<mxfile host="app.diagrams.net" modified="2021-06-27T17:09:43.327Z" agent="5.0 (Windows)" etag="BhTnEd2hSRNr0u3URqeM" version="14.8.1" type="github">
  <diagram id="yO90DpE4k4l1lEaFSwUe" name="Page-1">
    <mxGraphModel dx="1422" dy="752" grid="1" gridSize="10" guides="1" tooltips="1" connect="1" arrows="1" fold="1" page="1" pageScale="1" pageWidth="827" pageHeight="1169" math="0" shadow="0">
      <root>
        <mxCell id="0" />
        <mxCell id="1" parent="0" />
        <mxCell id="qcaZ6cuYOBvwn0T5m9db-1" style="edgeStyle=orthogonalEdgeStyle;rounded=0;orthogonalLoop=1;jettySize=auto;html=1;exitX=1;exitY=0.25;exitDx=0;exitDy=0;strokeWidth=2;" edge="1" parent="1" source="qcaZ6cuYOBvwn0T5m9db-2">
          <mxGeometry relative="1" as="geometry">
            <mxPoint x="226" y="217" as="targetPoint" />
            <Array as="points">
              <mxPoint x="160" y="218" />
            </Array>
          </mxGeometry>
        </mxCell>
        <mxCell id="qcaZ6cuYOBvwn0T5m9db-2" value="" style="shape=image;verticalLabelPosition=bottom;labelBackgroundColor=#ffffff;verticalAlign=top;aspect=fixed;imageAspect=0;image=data:image/png,iVBORw0KGgoAAAANSUhEUgAAAggAAAIICAYAAAAL/BZjAAAgAElEQVR4nOzdZ3gVR5Yw/sazM+PZnd2d2ef/7u47O+8MO8bqvl1X8UrqvlfpIiSEhAgCiZyjyBlMEjlnhEBZchrb42yMA9iAwQYTTM5gslAiGAOSsD0+/w82Hkzsuul0OOd5fh/8wdxT1dVdRx2qBIGCgsKQIYoxf5BlVRFlpY0kRw+UZHWaZFfyRVl5TWTKB5KsfCLK0TtFm7JfZMoxSVbPSbJSJcnKFVFWboiyekNkSp0oK7d/BD/64b+ZUifK6g1RVm5IsnLlh/9XPScy5ZhoU/aLcvROSVY+EZnygSgrr0l2JV+S1WmSHD1QlJU2QcwZbbPF/V/sfqKgoKCgoDBN2O2up2z26L6irD4vMuX8j5N1gygr34hM+U6Ule/vmtCN4O+irHz7Y/FRLzH1nCirz8t2pU9wcOxfsPubgoKCgoICNRo3dj9ps7n+HMSiooJszgxJVlZIsnOnASd8/2LKUZGpRTa72jGIRUXZbK4/N27sfhL7+FFQUFBQUHgdjMX+yWZ3ZoiyskiUlfdEWTmLPvEaX6UoKx9LsrpSlNWuTzFnE+zjTEFBQUFB8dCw25X/EplzpCSrh0VZuSrKyjc6mEyt4htRVq5KsnpCZOqUJiHKH7HHAwUFBQWFxSIkJORfmthdT7Fg1wBJVvfoYHIkjyDJ6hcs2DVAkqKD/vIXx79jjx8KCgoKCpNEUKjzfySm9hKZWizK6insCY94iakXRTn6haeZ2ksUY/6APb4oKCgoKAwS06dPf0KUld4SU3aJsnIZfUIj/nZNlJW9NrsywuFw/BJ7/FFQUFBQ6CMa/cXh+HdZjokTmbpDB5MV0QFJdh6y253pwcGxvxcEoRH2IKWgoKCgCEA4nc7fiMzZQmJq7o8LBqFPSETXrouyukZkzhZ/dDp/gz1+KSgoKCh8GE6n8zc2po4XZWWfSF8XEM99K8rqQRtzzgwJCfkX7HFNQUFBQcEfjRRF+bcgWV2pg0mFmNvz9CiCgoKCQs+RlfWLIOaMlmQlX2TqdzqYOIiVMPU7m6w8H8SUWLfb/U/YpwMFBQWF5YOxmKYSU9eKTLmGPkkQIivw4wZX6yS76sY+PygoKCgsFU2apP5aYuo74g+b/+hgQiDkob61Medmh8Pxz9jnDQUFBYUpo4nd9ZSNqVN+3NEQ+6JPiCduizZ1QRDtXklBQUHhdTSSWPRQSVYP6uDiTojPSLJyQpJdYwRBeAL7JKOgoKAwTDSxu54SmbJXpEcIxOyY8p3E1APBwQ4J+7yjoKCg0GUEB8f+XrRFDUK/YBOCSJKVsYw5/wP7fKSgoKBAD8ac0aKsvIZ9YSZEZ9bZbK547POTgoKCIuAhMXW0KCuXdHAhJkS/bNE1NqaOwj5fKSgoKPwaTZoo/ybZXbS6ISEekJha2Dgs7HfY5zEFBQWFzyKIRUVJTF2LfYElxBzUj0SmxmCf1xQUFBQeR5DsbCYy5Rj+BZUQM1JPiUxtjX2eU1BQUGiNJ2x2JVmkXRMJCZRv5WCljUBrKlBQUOgx/uh0/kaU1WyRCgNCcDDlOxtzDmnc2P0k9vWAgoKCQhAEQQhiSo4oK9fRL5CEEBBl9YYkK3OxrwsUFBQWDtnunCjSaoeE6BNTvpOYMgP7OkFBQWGRYIz9SmLOoegXP0KIZjbmHNKkSeqvsa8fFBQU5oxGol0dLsrK19gXO0KIR26I9uhxgiA0wr6YUFBQmCRsNiVNZMpXOrjAEUK8d0OW1Q7Y1xUKCgoDhyQpDompV3VwQSOE+JgkK1clSXFgX2coKCgMFDab8rTIlE+xL2CEEP+TmLq7CVNk7OsOBQWFzkNkygeirPwd+6JFCAmov4tM/Qj7+kNBQaGzcLvd/yQyZaoOLlKEEGx2dbLD4fgl9nWJgoICOSQWnSLK9J4BIeQuTPmK9nmgoLBoNGkS938kWfkc/UJECNEtSVa++F+78l/Y1ysKCorAxBM2puZhX3gIIcYhyWquQJtBUVCYN0SmNBVl5Qb2xYYQYjySrNyy2ZVk7OsYBQWFD+OH5ZGVj7EvMIQQ45OYupmWbaagMEEEMbWfSJ8tEkJ86+82uzIC+/pGQUHhQYhizB9Epp7SwYWEEGJa6hmbzfVn7OsdBQWFtmhk+2FNg+/xLx6EEAv4XpLV6QJtAkVBod9o3Nj9pCQrVTq4YBBCrIapNQ6H45+xr4MUFBR3RVZW1i9stBIiIUQPbOoUt9v9T9jXRQoKy8dTIa7/FJmyH/2iQAgh/3DETgssUVDghWRXh4lM+U4HFwNCCPk5pnwnMXU09nWSgsJSwZj7t0Gyugf9AkAIIY/DlP2Msd9iXzcpKEwfkl1pTncNCCEG83eROVtgXz8pKMwajURZKRHp80VCiDF9L8rq8wJ9DklB4bv4cankmzo4wQkhxDtMrWOM/Qr7ukpBYfgQg9WuIt01IISYy/cSc3bBvr5SUBg1Gomy8qoOTmRCCPELiamvCfTIgYJCezgcjl+KsnIb++QlhBD/UxtoYSUKCg0hMmcLiSnf4p+0hBASGJKsfBskq6nY118KCt2GyKJXY5+ohBCCR12DfR2moNBbPCHKyhH8k5MQQtAdFwThCeyLMgUFejAW+ydRVr/WwUlJCCE6od6w2Vx/xr4+U1CghRjiysQ/EYmVhUQ1A1eLDuBu3wsSs/pAQtvuEJmQDiJT0XMjRGRKJvZ1moIi4CHZ1KUirW9AAiylxxCY/v42yD1aAcUVN6C89vYDlVXXQ/7pWlj6xUnov6QQwl0p6LkTS/pektUV2NdrCopARSOJqet1cOIRC5DsTkjI6AHL9595aDHAY+DyUgiJbobeLmIxTNko0HsJFGaOsDD370SmXEA/2YjpySEx0HniPCi59PC7BN6Y/NZGUJPaobeTWIlaERwc+3vs6zgFhc9DDIn+X1FWruKfZMTskjoPhLwTVX4pDH6mpgHGv7QOpGAXepuJVURfk6ToIOzrOQWFz0KSooPwTyxidpLdCXM27fF/YfAAEXEt0dtPrMNmU57Gvq5TUHgdElN7Yp9MxPyiE9vA6pPVKMXBHX3m56H3A7EOWVZ6Y1/fKSg8DklW52CfRMT8EjJ6Qll1PWpxcMczf/sAJPpEkgQKUxdgX+cpKLhDktX30U8eYnpJnQdAWU0DemFwt0U7jqL3C7EOya5uwL7eU1BoiiZNmvxaZMpu7JOGmJ8zJRPKdVYc3DHxtfXo/UMshCm7GGO/wr7+U1A8NBo3dj8pyso+9JOFmJ4tJAZKq+rQC4FH6T03F72fiIUwZV/jxu4nsecBCooHhiSr9BkjCYgVh877bCJfuOMoTH7zIxj34lqY8eF2KLl00yf/bllNAyhJGeh9RSyEKdew5wEKip8FY87/EGXlJvrJQSyh78J8rybtRTuOQvNugx77O8FRiTD2xbVQcPaq579XVYfeX8RybjHm/A/seYGCQmDM8SdRVq7o4KQgFhARm+rxo4WZG3aA0oz/L3pbsAt6zFgGpZW3PPrdYYUvo/cbsZyrdnvU/8OeHygsHIyx34pMqdPByUAsYvr7n3l01yB9wBivfztUSYIVB8/x/351PYSqyeh9RyynPiQk5F+w5wkKC4YoxvxBlJW/6+AkIBZhC4nhnpxLKm9BmKu5T/OY8Mr73HmMeeEd9P4jlvT3JiHKH7HnCwoLhSxHMbpzQAJt9se7uCbl4oobEOqnnRcnvfER/10EJQm9D4kl1UvBzmDseYPCAtEkRPmjKCu3dTDoicXwrpbYNLO3X/NZfaqGK5/M0dPR+5BY1m2bzfVn7PmDwsQRFOr8Hx0MdGJBmaOncU3GI0pe83tOckgM10JNheeuofcjsTbGYv+EPY9QmDBkOYqJdOeAIJmx/nPNE3FpAD8t7D1vFVfhgt2PxPJu0+MGCp+GKMb8gd45IJgKz13TPAl3nbwgYHnZHW4orrihOTct6y8Q4mf19OIihU+CMfZbkb5WIIhcLbJ0/Vf6pDc/1pzb/E8PovcnIaKs/F0UY/4Ve36hMHAw5vgT3Tkg2Fr2Hal5Al6w/XDA80vq1F9zfsUVN9D7k5Af1dM7CRQexY/LJ9MKiQRdz1nLNU/AHcbPQslR6xcWgXw/gpDHkWTlKi3LTMEdIu2tQHRi9HNvaS4Q3O16oeSodYOnspoG9P4k5B63sOcbCoNE48buJ2lXRqInU9/dorlAUJPboeRYfPFr3b4jQchjMeUabRVN8chgjP1KlJW96IOVkLvM3KD9E8dIdyuUHIvOf6U5RynYhd6nhNzHpuxv0iT119jzEIVOQ2TqTvRBSsg9pr33qebJV2nWFiVHuoNATIEpu7HnIQodhsSU9eiDk5AHGP/ye5on37hWXVByLOFYC6G89jb0mLEMJLsTvW8JuV/0B9jzEYWOQpKVefiDkpAHG7C0WPPE27LfKJQcS6vquAqE8tofPnn0xTbUhPiaJCtzseclCh2EjUX3wB6MhDxK2yETNU+6E1/fEPD8It2tuIuDuy3YfgjsDjd6PxNyN1lWemPPTxSIwZizCfYgJORxEtr24JpwA53f4FXPelUg3NFz9koQmYre34TcIUnRQdjzFAVCNLG7nsIefIRowcLiuG7hO1OyApabxFTIPXLRJwVCee1tWLzrOETEpqH3OSE/EaP/F3u+oghghIW5fyfKyjX0gUeIRgs/P6x5kl3zZW3A8krtPcJnxcEdpVV1kDV2OnqfEyLKCohMuRYcHPt77HmLIjDRSJSV8+iDjhAO2SvLuSbZ1tnj/Z6TxFSunRx5TV27Gb3fCRFlBUSmXBAE4QnsyYvCzyHJ6gb0wUYIJ7vDDeU1DZon18Jz1yAkuplfcxpe/De/FQd3rDpaAWFqMnr/EyIyZRP2/EXhxxCZczn6ICPEQ/mnr3BNrvO3HQLJTy/9tRsx1e/FwR1l1fWQ3HkAev8TIjLncux5jMIPITGlvSgr36MPMEI8pCS25Z5cl+455fM8UnoM0bx7oy+LhMzR09CPAbG878UQVyb2fEbhw2As9k86GFiEeC3/y1ruyXXZvtM+e9zQYdxMjyb4RTuP+aRQ6LsoH/0YEMJY7J+w5zUK38QToqx8jT2gCPGFxKw+Hk2sxRe/ho7jZnn8u5EJ6TBn026PfnvxruMgygokdx0I+V9e9rpIeObVD2m9BIJM/VqglxaNHyJTjuEPJkJ8J4dj++d7rTp2CTKGTtL8W6FqMsxY/7lHSynfYY9I+Onfk+xOGLisxOsiYeaGHX57v4IQTZhyDHt+o/AiJFnJRx9EhPiYHBYHJZduej3Jrj5RDb3mrARXWkdwxKVBRGwqRCakQ5shz8Dktzb55JFAp4lzH9iG6MS2UHD2qlf/9tK9X1KRQHCx6NXY8xyFBxEkq6nog4cQP2ma2dsnE7g/zVj/+WMfBUx8bb1XvzHv0wNgC3ahHw9iXRJzpmDPdxQc4XA4finJyrfYA4cQf+oyZQF6EfAweSeqfvZo4VHaj8qBMo41Hu41Z/Me2jqa4GHKdw6H45fY8x6FtmgkymoD+qAhJACG5v8VvRi4V1l1PXc77A63V+85zP/0APqxIJZ2WxCERtiTH8VjQmTKqzoYLIQEzPCil9GLgp/uHByvhJCoRI/aYXe4YckXJz3+7Slvb0I/FsS6JKa+jj3/UTwiRFntij1ICMHQefJ89OJg2d4vIdTL9Rbk0FiY9dFOj3MYmv9X9GNBrEtizi7Y8yDFA4Ix9iuRVkokFuZqkQWllbdQioOJr3/o0y8KJr2+weNcMkfTTpAEzfeMsV9hz4cUP49Gkqzc0sHgIASVxFTIef/TgBUGeSeqIKmTf/ZJGLrmRY/zimvdFf1YEKtS6wV6H0E/ITLlOfxBQYh+xLftAQu2HfJbYVBWXQ8956z0+9cDg/Oe9zg/JSkD/TgQa5KYWoY9L1IIgiCx6BSRHi0Q8kCOuDRY+PkRnxUGpVV10GH8LJBDYwPWhv6LCz3KteDMFWDh8ejHgFjS95JdaY49P1o6GHP/VpSj/66DwUCI7nWaOBcW7z4BheeucRUEKw6dhzHPvwWhajJa7tm5ZR4VCYt2HKF9GwgOpnzHmPu32POkZSNIVvahDwJCDMgR3xJa9h0J3XIWwcAVZTCs6GUYWfoaDF79AvSetwraj5gK8W266Wop47EvvuNRkTC88BX03Ik1SbK6B3uetGQEsehR2AefEBJIKsz/9IBHRUJ6/zE6yJ9YkSQrY7HnS0uF3a78l8iU77APPCEk8JbtPePRuxMRsanouRMLYsp3jEX9N/a8aYnIysr6hSQrh9APOiEEhT0iAXKPXOQuEpbvP0MbOxEk6sGsrKxfYM+fpg8bU6fgH2xCCCZHfDqUeLAo1Ojn3kLPnViTza5Oxp4/TR2N3e4nsQ8yIUQfnCmZHr2PEJveBT13Yk1/dDp/gz2PmjUaSbJShX2ACSH60TVnEf/6CGevQrDDjZ47sR5JVqoEWmXR9yHJ6nTsg0sI0RsVJnqwb0POuq06yJ1YkSSr07HnU1OF3R71/0RaLZEQ8gASUyH/9GXuIiGl+2D03Iklfd8kRPkj9rxqmpCYcloHB5UQolMRMakevY9AXzUQFEw9hT2vmiJsTBmMfjAJIbrXbsQU7gJh1sZd6HkTa5KCowdiz6+GDsbYr0RZob0WCCGaTHlnM3eRkNZnBHrexJL+zhj7FfY8a9iQmLJRBweREGIQLDweCs9/xf1VgxwWh547sR6JqZuw51lDhiw7m2EfPEKI8aT2GsZ9F2F48d/Q8ybWFCQ7m2HPt0aLJ0RZuYl94AghxpTz7ifcRYIcGoueN7Gkm4IgPIE96RombEzN08FBI4QYlGR3QvHFrzkfNVxBz5tYk83uXI497xoingpx/Sf2wSKEGF9y10HcdxEyhk5Gz5tYU0iI6z+x51/dh8iUXdgHihBiDtPe/4yrQMg/c4UeNRAk6k7s+VfXEWRT0vAPEiHELCS7E8pqGriKhP6LC9HzJtYksegU7HlYl+FwOH4pyupV7ANECDGXDmNn0QuLxCguu93uf8Kej3UXIlOm6uDgEEJMaMWBs1wFwswNO9FzJtYkyc6J2POx7gL7oBBCzCsmrRP3XYRQNRk9b2JN2POxrsLGlPXYB4QQYm6T3/yIq0CY/+kB9JyJRTHlA+x5WRfxtF21ibTfAiHEz0KVJCitvMVVJDTr0Bc9b2JJfxdDIkXs+Rk9gmT1cx0cDEKIBQxcXspVICzZfQI9Z2JNElO2Yc/PqCFJigP7IBBCrKXkEt9dBGfz9ug5E2uy2dQI7HkaLSRGnzUSQgKr9aDxXAXCquOV6DkTa5Jk5Sr2PI0Skl1th935hBDrkexOWHXsEleRkNCmO3rexKKY2hp7vg50NBJl5Tp6xxNCLKl1Nt9dhBUHz6HnTCzruiAIjbAn7YCFyJwjddDphBALW3noPFeRkNwlGz1nYlXqcOx5OyDRpEnqr0VZvYHf4YQQK4tv042rQJi7dR96zsSyrjdpkvpr7Pnb7yHJ6jAddDbRM6aC9CPxbth5EdMpvvg1V5EQndgGPWdiTTa7Ogh7/vZ7YHcyCZwwtTm4UjtAUucB0GrAWOgwbhb0XZQPo559A3LWfgJzNn8BS3afgLzjVZov1IXnv4K8Y5WwdM8pmP/ZAchZtwXGvvA2ZK8sh+4zlkHGsMmQ2ms4NM3sDa6UTAh3pYBkd6L3BdGn2FZduAqEGes/98nv2iMSoPWg8TBkzYsw+rk3YVjhyzB41XPQb0khdM1ZDO1H5kDr7HHQosdQSMzqAzEtO4EjLo02kbI47Pnbr2ELpg2ZzMYWEgsteg6FfovyYeLr62Hu1n2Qe+QilFXVc114/amsph7WnKyGxbuOw8wNO2DCK+9Dn/l50LLfKIiIS0PvQ4JHYiqsOHCGazzZgl1e/WZ6v1FQdOG6x+O56Px1WHHgLMzdsg8mv7URsleUQduhE0FNaofen8S/gmTFvBs5BdmU77A7mHiBqdBq4DiY+dEOKK64AaVVdeiTv28KiAYoraqD4oobsGT3SRiUWw7xbbrh9zcJiJZ9R/LdRfhwu8e/ldRloP/HcuUtKL74NUx8bT2k9BxKj+dMJMimfIc9j/slROacid25RLtghxvcGT2g15xcWMH5trfZlFy6BdM/2AY9Zi6H+DbdvP4LkujPysPax3hp5S1gYXHcvyHZnbD6ZDXaOM47UQXZuWWQmNUHwpzN0fuceEayq9Ox53OfRmO3+0lRVr7G7ljyaGrz9tBvcQHM/+wAlNU0oE/MepV3vBLc7XujHy/iO1ljpnONgb4L13D/RrMOfdHH7t1WHroAo8rfgObdBqH3P+FyvXFj95PY87rPQpTVbB10KnkAu6MpPPPqB1Bw9ir6BctomnXsh378iAKpvYbBtHVbIffIRVj4+RFI7z/ao3+H59jnn77M/e9njpqGPmYfpuTSTVhx8Cy0yh6PfjyJBjbzfNHwhCgr36J3KPlJlLsV9F9SBKXV+nmR0IhWn6yixw0BJIfGgpKUAVljZ8D8Tw888tiUVtWBI74l17/fc9YKruOf1Kk/17/fZtAE9DGr1dI9pyCxYz+wRySgH3fyQN8KgvAE9uTudTxtj26pg860PFuwCzqMmwXL9p1Gv/iYCe8kQTgwFdwZPaDPvDyYtXEXlHEWtAVnrkCoksR1jpRzPFpbsus4V3si3a3Qxyuvsup6eOa19eBu1wt/PJCfkYPVVOz53esQZeUb7I60Mjk0Dia/udGrz6rIw3WaOBf9GJtJcKQb+i3Kh6V7v+RexOhBRpT8jev3hxe9zPXv866xMfeTvehj1lOrjlVAxwmz0ccI+cm32PO7V2ELjknTQSdaUrizOeSs24p+UTG7zDHT0Y+1kYVEJUJih34w+6OdfjtGEsdnftGJbbjuIuSs28Ld5sJz19DHrbf6Lsynxw86INldzbHneY8jSFZOYneg1SjN2sKUtzeiX0A8VVJxE0oqbkJxxQ0oPHsNis5/BSUVN3W75oI7owf6MTeauPTO0GdeHqw4eDYgx4j3PRGev/JLq+q41xmQ7E4Y/dxbUHLpFvr49UZZTT1kryzz6JNP4jPHsed5j0KWVUUHnWcZtpAYmPHhNl19nlhccQPmbPoCRpa9Bt2mL4W0PiMgMbMPxLXqAmpye3DEt4QwNRmCHW7NS8jaQmLA7nBDmJoMjrg0iG7WFmLSOoK7XU9I7jwA0geOg15zcmH0c2/B7E27Ie94ld/at2z/aa6/Tq0spfsQmPbeVljzZW3AxyHvY4DUXsO5/v3MkVM96hMWFgdKs7YQk9YJ4tt0A3e7ntCsQ19I7jIQWvQYAh3GzoT+S4pgzAvvwMwNn8OKA2e538MIhNKqOhiy+gVakAlJEHNFYc/33CHalA+xO84KJKZCjxnLUS4MZdX1UHLpJuQevgiDcp81zItMrrSO0GPmMpjx4fYf7lBcusl94S2raYBwVwp6W/TKFuyCpu37wMpDF1Anr8U7j3mUf0ml9r/uF2w/hNbPEfEtIWvcLJix/nMovvg1lFbeQv0jIakjvbQbcEx5D3u+54rGYWG/Q+80C0jI6AGF574K2Mm/+mQ1TP9wO/SetwpcLbLQ2+9rIVGJkNZnBPRfUgRT3/0Elu39EkofMFEs2HaI6+14qwiNbgYZwybDgs8OohYFd0vM6uNRW/otXMP1O7ra5ZGpEN+2O/RfXAgz1n8e8NUbl3xxEtRk2hcikP7icPw79ryvOURZXYPdYWZmC3bB2BfX+v0vhbLqepj81sfQZvAEiGraGr3dGCSmgtKsLSR1HgDNuw2ybD88aix2mDAb5m7Zx/VyXyB4strh3Xh+a8CyYvRj8SjhMS2gRY+hMKzo5YC8JFlWUw+D855Hb7dVSExZhT3vaw7szjKzYEdTrtufnhQFQ/P/CsEON0h2eqZIHiy5Szbkn67V5TPx4oobEJXQyus2zvhwG8eE2GCo91Hk0FhI7T0cVp/y792F/NOXISQqEb29VoA972sKSVbGYHeUGUlMha5TF/nlJF59qgbGvPA2beBCHkqyOyGhbQ+Y/ObH6AXA3YouXIeFnx+B4cWvQNNM3+6P4c7oyZVLpA+KEiyts8fD3C37/FbwtR02Gb2NZmdj6ijs+f+xIclKJXZHmVHOui0+P2mnrtsCqb2GobeN6JeSnAEjSl6FgjNX0IuB8tof/lKfuvYT6Dh+FrhSO/i17ZLdCfmnL2vObcFneC8r+goLj4dOz8yF3MMXfX7sJr6+gb508K9K7Pn/kSEyNUYHnWQqLCze55+GDc57HkKim6G3jehXxwlzULcmvtuiHUehVfY4CHemcH+y6K2h+X/lyhX7uPlSREwLmLPpC58ey5WHL9ACS34k2Z0u7DrgoRHE1LXYHWQm0c3aQtEF75ebLa/94VbswGUl6G0i+uVK7QDT39f+3N0fSitvwfIDZ2Fw3nO6eOTliEvjehm47bBJ6Dn7mhwaB5Pf2uSzxcrKquvBEZeG3i5zin4Huw54YAQHx/4ev3PMw92uF5RVe39CllTegl5zcunWHnmg4KhE6D1vFeQjPkIoOHsVxjz/NqT1GQG2kBj0PrnXqmOXNLdlwTbjP2Z46FiJbAojS1/zyddTZdX1tF26n4SFuX+HXQ/cFyJTRmJ3jFkkdujrkwvvqPLX6Q1i8kBKcjuY9+n+B67zEAj5Z65Aj5nLIDqxbcAfG/BqPyqHa+ILiTb3GhkRMS1g5obtXo+B0spbkNR5AHp7zEaS1WHY9cB9gd0pZpGQ0dPr78lXn6wGu8ON3haiLywsDtqNmOLXz2QfOhlU1cGqoxWQOWoaej94gqetHcfPQs83EGLSOkK+D96PUptnorfFbLDrgZ+FzaY8jd0hZqAkZXh3+66mAXrNXYXeDqIvSlIGjCx5NeBL8JZW1sG097ZCuxFTQOLcMElvFu04qrndC7YfRs83kAbnPe/1WHG364neDjNpYnc9hUuDVRgAACAASURBVF0X/BQiU/djd4jRBTvcXv1ll3esEpSkDPR2EP1o3iUbFm4/HNCioLz2NszeuAuSOg8Ee7h53lZv1rEfVx8ERzZFzzmQYtI6efW1VXHFDbp++RJT9mHXBXfiCVFWvkXvEAOz2Z1efWc+Ze1m9DYQfZDsTkjrOzKgdwvKauoh//RlSO09HL39/sLC47ke/Zm5Lx5lwTbPC9LSqlu0dbTvfCsIwhPYxYEg2pUROugMw5LsTq4lXe/VNWcxehsIvlAlCXrPy4PSSt98iqbF0j2noNeclZq36ja6SRyrSK46WoGeL5ZuOYs8LlBXHDyHnr9Z6OJlRZEpx7A7wsgGLC3y7K+26npo3jUbPX+CK8rdGia/tTFgGyWVVNyA3vNXQ3QzHe1eGCDp/UZx9RV2vpiadxvk8boJ419eh56/SRxBLQ6a2F1P6aATDCsiNtWjE6i0qg6i3LSroJUFO5pC7pEKKK8JzN2CuVv2QZja3NrraTAVSipuaO6zzFE5+DljjtHIph6Pt/T+o9HzN4OgoKi/oBUIIlNnYXeAUcmhsVB4nn/b1ZJLNyEyPh09f4IjMasPLNv7ZUCKgmX7voQuUxait1lPFnC89Ll413H0fLFFxKZ6tL10SeUtWsPFB4JkdRpegSCrDdgdYFTjXnqX7hwQzdoMngDL9p32e1FQVl0PI4pfAVeLLPQ261GrgWM192VxxQ3dLwIVCGpyOyi+yL9k/JzNe9BzNz61AaU4cLvdT+I33phi0jp68My4ARLadkfPnQRWs079uXYU9FRpVR20GjjOMi8ceoOnX1O6D0HPVw8iYtM8GpepfUag5250brf7yYAXCBJTPsRuuFGtOcX/vXDW2BnoeZPAkJgKLXoOhaLzX/m9KJj+4XYIj0lFb7OR5B6p0NzHI8tfR89XLxIyenKP0aKLX4Osw/05DMWmrgt4gSDS2gceaT9qKvdJMrzkVfS8SYDGx8gcWH2yyq+FQf7py9B77iqQQ+mbc0+k9hrO0ddXQLLyi5336D1vFfd4HVbwEnreBvdtQIsDxmKa6qDRhsT76c+yvV9a+81xi2jRcxjknfBvYZB3vAoSs/qAzeDLHmMLiUrk6vcodyv0nHWDqTBvy16u/iurrofwmBb4uRuYFOxMCFiBIDF1LXaDjWjAshKuE6O0qo72TTcxiamQ0LY7FHN8OserrLoB5m3dB6FKMnp7zYRnC+jOk+ej56s3ZdX1XOOY1kbwjsTUtQEpDrKysn4hyuoN7AYbDQuPh0LOZ8pdpy5Cz5v4R2JWH1i885jfCoOSihswvPhvtKunn/TnWOAs79gl9Hz1xt2O/30EuvPlla+zsrJ+4fcCQbI7XTporOF0mDCb62TIP3MFPWfie1Hu1l6tV/84pVV1kDl2BtgjzLNRkh7xTnDY+erRlHc2c/XhtHVb0XM2MptNUf1eIIhMLcJuqOEwFUoqb3KdDEbfHpf8nBwSA4v8eMeguOKGZTcIwsKzAJCS3A49X70JVZK4HjWUVdfTC59ekGSlwN/1QSORqd9hN9Ro1ObtuS72k974CD1n4ht2hxsG5z3vt8Jg6Z5TkN5/DHo7rWjmRzu1n9Nvfoyerx4NWfMC13jvtygfPWfDYup3giA08lt14HA4/h29kQa04tA5rpPAEd8SPWfivQHLSjzesOZxFu08ColZfdDbaGWZo6dpPl75py+j56tHtmAX1zmSe+Qies5GpijKv/mtQKDHC57hufBPfH0Der7EO00z+0BJ5S2/FAZ5JyohMoH24tAFpmo/djUNwMLi8XPWId6vu5q274Wes1E9LUfn+69A0EEDjabbtMVcFxE1uT16zsQzrtQOsPLwRb8UBgs/PwKuFh3Q20h+jmfJ9Mwx09Hz1Suec2Fk2Wvo+RqZX4qDkJCQf8FumBEt3nVc88BfRZ9DGRILj4cpb2/0S2Ewb8s+cGf0QG8jebBJb2zQfCyfeW09er56Nfq5NzX3Y2llHb2s6AWHw/HPPi8QJDl6EnbDjIaFx3O9pduy7yj0nAmfAcuKuRd90VosOptnorePPJojoZXmY5p3vBI9X71ypXbgOj9ofQ/P2Zg6wecFgsjUA9gNM5pWA8ZwDXrsfIl2celdoMiDLWwfJ/fIRUjuko3ePqKNLdjFdXwjYmll1IdZceCs5n4cmv9X9HwNy6bs92lx4HQ6fyPS5kzcRj+r/bbZ7I270fMljxeZkA4z1m/3/R2D45XQZvAE9PYRfrlHtL930rzbIPR89Wrg8lLN/VhW04Cer4F988c/On/jswJBZM4WOmiU4RScuap5wNMna/o3ovRVn3+2WFZdDy37jQbJ7kRvH/EMz8Q2+tk30PPVqyiOxzXltXTH1RuSpDT3XYEgq2uwG2Q0wZFNuQZ7qJKEnjN5sIR2PaHkEt9KmI9TWlUHQ1a/gN424r3krtlcxx07Xz0rOKv9j6qmmfS5o8eYkuer+qCRJKtX0RtkMFFNW2se6CsOnEPPl9wvVEniXi9eyx2D0c++SRvPmEhodDOuzx2x89WzeVv2ae7HoQX0HoIXLgu+WFWxcVjY73TQGMPpmrNI80AfUfIqer7k53rOWunzxY7mfLIXotyt0NtGfG85xwt2SlIGer56ld5/tOZ+nP/ZQfR8jaxxWNjvvC4QbDY1CbshRjR7427NA73diKno+ZIf2MPjuTbh0aLw3DWITmyL3jbiP8+8+qHm8TCq/HX0fPVMaz/mHad1Y7wh2VW31wWCKCt7sRtiRGUctxxV2ukNnRwWB0MLXvJ5YdDpmTnobSP+lzF0kuZxUXThOnq+eqa1H8uq6+lRnTds6m5fFAj4DTEgrYO8pPIWiAw/Xytrmtkb8k5U+bQ4yM4tBzksDr1tJDDk0FjN7yHQi4qPVnzxhubzzNUiCz1fI/OqOMjKyvoFdgOMSvNtshNV6LlaWc67W3xaGKw+WQOMCgNL4nlnJSI2FT1fvZrx4TbN/diixxD0fI1s+vTpT3hcIAQxZQh2A4xK6wBftu80eq5W1KxjPyiu0P6XyuOsOVUD6f1Go7eL4Mk7Xql5vHSePB89X73qNXeV5n5sPyoHPV8jk5gywOMCQZKVL7AbYEQR8S01D/B5W/ej52sl9ogEmPyWbzdW6rMgjxY6ItBrTq7mMTPl7U3o+epVSo8h2s+9+Xno+RoaUzx/D0GUlSvoDTCg5hwLp0x45X30fK2iaWZvKPbh/gmLdh2DkOhm6O0i+iCHxWkeOysOnkXPV69iW3bS3I/DCl9Cz9fgrnhUHASFOv9HB8kbUsYw7W80D1xeip6v2bHweJj89sc+KwwKzl6lnTfJA2keRzUN9BLrQyhJGZr7cfzL76Hna3SMRf03d4EgMbUXduJG1XXKAs0DvPv0pej5mlnT9r1h9clqnxUHo599k15CJA/Fc4cqrnVX9Hz1KMqtfRXanHVb0fM1OhuL7uFBgaA8i524UfWctULzAO8wbiZ6vmY18dX1PisM8s9chejENuhtIvo2/uX3NI+ptkMnoeerRw6Od7hmfbwLPV+jC5LVMu4CQZTVs9iJG1WfefQWLqboxDZcO2k+SmlVHfSYuQy9TcQYWg8ar3lsjXruLfR89SgipoXmPpyzaTd6vobH1NN8xYEY86/oSRtY73l5mgd41uhp6PmaSffpy3x212D+toMQ7kpBbxMxjtiWnTWPr1XHaKngB4mITeUoEL5Az9cMGHP/VnOBYLMpT2MnbGTdODZq6jRxHnq+ZhAc2RTmf3bQJ4VBWXU9tB85FUSmoreLGEtwVCLXWKPPY+/H84hh9ka6g+ALNpvytOYCQZbVbOyEjazDuJmaB3ifeavQ8zU6V1pHn901yD1yEb09xNhWHa3QPN7oS4b7Rbpbae6/nHc/Qc/XDIIktb/mAkGS1T3YCRtZap8Rmgf4sKKX0fM1KjkkFkaWve6TwqDo/FfQbvgU9DYR4+NZvpu+ZLifmtxOc//RZ46+IfEsmISdrNHFpnfmqIC3oOdrRI64NFhx4JxPioM5m7+AMDUZvU3EHPovLtQ89oaueRE9X72J4bgjOKLkb+j5mgUVCAHCwuI1D/CFO46g52s0qb2Gc22n/SjpA8ait4eYS0r3wZrHX/6Xl9Hz1ZumWX0191+febTUsq9oKg4as6j/xk7UDLQO8BUHaMlVreTQWBj7wlqfFAaLdx2HUCUJvU3EfOwRCVxjETtfvemas1Bz32WNnYGer1mEh8f9n8ffPbBHT8ZO1Ay0DvDVp2rQczWCUCUJlu077X1xUNMA3aYvQW8PMbcijhUVsXPVmzHPv6O572jJc9+xMXXCYwsESVaOYydqBloHeGnlLfRc9a5lv1FQVl3vdXFQcPYKhMe0QG8PMT+e5b1D6f2Xn1m690vNfZfQtjt6vqbBlGNa3j+4ip6oCfBMaJHuVuj56pHEVBhZ+qr3dw1qb8P4l9aht4dYx/ytBzSPzfYjp6Lnqyc85zXtpupTV7UUCN/oIFHDm71xt/bbZP3oNtm9QqISYemek14XBkXnv4KUHkPR20OspdfslZrH6NgX3kHPV094zm3sXE3mm0cXByHx/6uDJE2hxwztS/72XZiPnq+exLXqCkUXrntdHCzeeQyCI5uit4dYT3SztprH6dwt+9Dz1ROt/bacXvD2OcYcf3r4+wfM2Rk7QbNQOBb7oC1L/6H14AleFwZl1fXQZcpC9LYQa9M6XlccPIeeq1606j9Gc7/N+ngner7m48x6+B0EpizHT9AcQpUkzQO94OxVy6/7bwt2wYRX3ve6OCg4cxXiWnVBbw8hWsds8cWv0XPViylvb9LcbwOXl6DnazaSrC55+B0EWdmAnaBZ2IJdXBNbmLM5es5Ygh1NYfn+M14XBznrtoAt2IXeHkJEWeFazCsiNhU9Xz1YfaJKc58169QPPV+zkZjy4aPuIFzETtBMFu86pnmwW/Wv3hDO3e8ehh4pEL2Z/6n23UWbdaTJTpQVKLl0U3OfYedqUucfWBw0bux+UgfJmUr2yjLNg31YofU2bWozeILXSyavPlUNanJ79LYQcq/sFdrP/8zR09DzxZaQ0YPr3MfO16yaNEn99X0Fgs3m+jN2YmaTxrGrY0nFTfR8A2nI6ue9vmuQs24rMNoul+hU827a92QYtOpZ9Hyx9V9SpLm/lu45hZ6vWTEWe/+XDEEsKgo7MbMJiW5GFfEDLN2jfaW0h+m/uAC9HYQ8irN5e83jefoH29DzxTb/M+2PZDLH0B4MfmOPjrz//QO72gE9MRNaefi85kGf1ncker7+FKokwcpD2vvjQYoufg1N2/dGbwshjxPuStE8rnOPXETPF5M9IgHKOR430p1D/5GY0v7+LxiYmoudmBlNfvNjzYN+8a7j6Pn6S0RsKuSfvuxVcbDiwFlwxLVEbwshWthCYrSP75oGkOxO9JyxNM3szddXFv8s3J9szLn8/ncQZGUvdmJmxLM3fHHFDfR8/cHdrpfXmy3N/GgnfcJIDCeP47M9u8ONni+WcX99V3M/0cJyfmZTdt3/iEFWvkdPzKR4JsLUXsPR8/WlNl6ujFhWXQ/daXtmYlBzNu/RPNatvBYKzzWhzeBn0PM1ue8fVCBgJ2VaBWevah78k978GD1fXxmwtNjr4qAFbbREDGzsi2s1j/coi+7qGhLNtxYKbdnuf1QgBFDG8MmaB3/JpVsgh8ai5+ytnHVbvSoOii5ch3BXCno7CPFG34VrNI/59IFj0fPFwHOtoM8bA4MKhACSQ2O5JsfErD7oOXvKFuzi2ur6QRZ+foTeNyCm0H5kjuZxP2TNC+j5YiitqtPcR0PX/BU9Xyv4WXFgt7uewk7I7HKPXtR8Ehj1m2gp2AWLdhz1qjgY9ewb6O0gxFcSO/TVPPbnbd2Pnm+gJXUawHV9iIhLQ8/ZCmzhrj//4wsGpvbDTsjsOk2cy3UiYOfLyx6RAKuOXfKqOKDFT4jZ8KyFUFJ5Cz3fQJu27lPt/XPJWqvNYpKY2usfayDYXS9gJ2R2jviWXJNlt5xF6DlrFaokQdGFrz0uDMpqGiC5y0D0dhDiDzy30LFzDSS7w821ONLA5aXoOVuFxJRn//H+AVPOYydkBQu3HzZdtRzdrC3XBfBeRRe/BiW5HXo7CPEXnq+YsHMNpA5jZ3JdK2hxpMCRZPXs3QVCHXZCVtDpmTlcJ0Rsemf0nB8lrlVXrxZAWnn4PIREN0NvByH+tOpoBRUI92IqrOZYRGrloQv4OVsJU+ru+oJBbUBPyAqYyjWhTnv/M/ycH8KV2sGrrZqX7jlp6aVliXUs3at9czLsXAMlOJJv7YP0AWPQc7YWteHuTxy/wU/IGuZ/ekD7iVHTABE6XBQkoU03jwuD8trbMGP9DvQ2EBIo87bu13xuRDZtjZ5vICz94qTmPimtqoPgyKboOVvMN3c/YvhOBwlZQqiSxDWZZq8oQ8/5bi37jfKqOBhW+DJ6GwgJJJ7VFNP7m/8vZXtEAtc1Y+LrG9BzthymfEeLJCEpOn9d88lRVl2vm1vxLfuO8uqdg/5Li9DbQEig9Zi5XPM50ntuLnq+/jb+5fe4rht6fxfLpH7Yj0EUY/6gg2QspfWg8VwnSLsRU9BzTuo80Ks7B12mLEBvAyEYWvQapvk8GfXsm+j5+hMLj4eSSzc198eaUzXoOVsVY1H/LchyrIKdiNXYw+Oh+KL2dQPKahtQ800fMMbjwqCsuh7S+oxE73NCsEQlttF8vszcYO73c3rOXsn3x9Fw/D+OrCqIuaIEW3B0W+xErGh48d/4/gKfPB8lT28eK5RV14O7fS/0viYEk8RUzefMop3H0PP1Fzk0luvuQXmtdb7q0CPG1FbC03J0NnYiVhTscHNNvKtPVgf8XYSEjB4e3zkoraqDSItuX0vIvbSeN8v3n0HP1V+yOBdG6jV3FXrOViYxtb8gyep07ESsas4ne7lOmMwx0wOWW1Jnvk1U7lZ04TooSbQ6IiF3aD13Vh27hJ4rdh+U196Gspp6WkQNWRBz5giSXcnHTsSqQqKbcZ00BWevBmQb5GYd+3v8WKHo4nWITmyD3reE6InW8yf/9GX0XP2h78J8ruvI6OfM/bKmITB1tSDKymvoiVjYYs7tkVsPGu/XfJSkDI/vHOjpk0xC9ETrOVR88QZ6rr4m2Z18L2XXNECYqzl63kR5VRCZ8oEOErEspRn/hCz6adOSiNgWHi+fnH/6MoREJaL3JyF6xDM5YufqawOXlXBdS8z+JYeBfCBIsvKJDhKxtNkbd3OdQCNKXvV5DmHOFCipuOFRcVBw5gpExrdE70dC9KrgjPYdHc1UaIdEN4PSyltc15NQJQk9b6KAyNTNgigrO9ATsbi41l25b+X7cm1yFh4PBWeveVQclNfeBjksDr0PCdGzxTuPaz6fokz0Ds+EV/hWTZyz6Qv0nMkPJFn5XBCZsh87EaLAwu2HuU6k8S+/55PftQW7IO9YpWd3Ds5eBTk0Fr3vCNG7ae9/qvm8im/dFT1fXwhV+F7CprsHurNPEJlyTAeJWJ4jLo37ZHLEpXn9u0v3aN9V7WfFwZkrEJmQjt5vhBjBqGff0HxuJXcZiJ6vL/BeW8Y8/zZ6zuRu6lFBlNWz+IkQUVZg5kc7uE4obxcSmfHhdo+Kg7LqeghzpaD3FyFG0X9Jgebzq9UA4+/o2LLfaL5rSk0DhDnpywV9Uc8IkqxU4SdCRFmBkKhErq8IZm/c5fFvDV71nEfFQWnlLQilBUwMz+5wgzMlE1plj4cha16ASW98BFPf2QxjX1wL3WcshYSMHhARm+q3L2aspuOE2ZrPsczR09Dz9YYtJAZWn6zmu3vwwjvoeZOfk2SlUpBk9Sp2IuQfBue9oPmkmvL2Jo9+o8uUBZ4VB1V1kNCmO3ofEQ8xFTJHT4d5W/dDucZCtODcNRiy5gVQkjLw8zew1N7DNZ9n3aYuQs/XG73n5XFfW2j9FP2RZOWqIMrKdexEyD+w8HgounBd00mV3p//VmSrgWM9Kg7KahogMasvev8QDzAVsleUaR5XDzv+i3cdN9UneIHkSuuoua/7LliDnq+nJKZqLj5/umMSwCXkCQemfCVIsnITPRHyMz1nLX/sSVVScQNYeDzXv+tskeXxQkhJnQag9wvhpyRleHzMH2ZU2esBWfLbTCIT0jX378AVZej5eirvRBXXWCo8/xVI9BhLp9QbgsiUOvxEyL1mrH/4C4SlVXWQ3DWb698LiW4GBWeueDQhZFGFbzxMhQHLin1aGNxt5eELtJkOB0d8S819O7Tgr+j5eqLdiKnc46h5t0HoeZOHsCl1gigrt9ETIfdjKnSZsvC+TZOW7z8DanJ77n8v98hFjyaC/kuK8PuCcJvy9ia/FQd3lFy6Cc7m/GPRiiJiUzX366jyN9Dz5RXsaAqF57/iGj9zNtOiSPqmNggiU77DT4T404JtfIsw3ZHz7lb03Am/WZxLd3ujrLrOJ+txmF24q4XmPvXVImiBNPnNj/nGTk0DBDt8txos8T2JKd8Koqx8j50I8Z9Bq5716MI/Z9Nu9NwJv4HLSwNWHNyRf/oyvYX+GGHO5pr7c/JbH6Pny8Pdvhf3mBmWb8zHKBbzPRUIJtay70iPLvgLth+il9AMyN2u532PpAJl/qcH0NuvZ6FKkua+nPb+p+j5asZU7jFXeO4aft5Ei+/pEYNJSXYn9+dG5bU/7q8QEoOeP+E83kyF/NOXUYqDO1J6DkXvB70KiUrU3I+zPvZ8AbRAm7H+c+5xkpDRAz1v8nh3HjHQS4omI4fGQsmlm9wnbllNAzhi6XmyEWUMn4xaHJTX3obcoxX0ydpDBEc21dyPCz4zxt2Y1oPGc48Roz0+sbYfXlKkzxxNZvoH2zy6wCe0pcreqEqRHi3cq3X2ePS+0CO7w625DxftOIKe7+MEO9zcf4QUV9zw6Tb1xM9sSh0tlGQyPTQssvQg7UcZe/13K0vuko1eGPz01+/2Q+j9oUf2iATNfbh413H0fB9n+YGz3GOjRc9h6HkTHuoNWmrZRJwpWR5d1EeWvoaeO/Hcgm0H0QuDu9FyzPezh2svEJbuOYme76P0mrOSe0zM27ofPW/C6YellmmzJjOwRyRAWS3/S4lG+GuFPFrhuWvoRcHdmnWmZbnvxcLjNfffsn2n0fN9mLhWXaC0qo5rPBRX3KBVNw1IkpWrtN2zSSzYdoj7Ql5ccYO+Xzc4Nbk9ekFwrynvbETvF71hYXGa+2/5gbPo+T6IHBoLa07VcI+HtkMnoedO+EmyUimIsnoWOxHiHU+2Vy2tqoPoxDbouRPvtB44Dr0guFdZdT16v+iNzFEgrDx0Hj3fB8l5dwv3WJizeQ963sRjZwSRKcd0kAjxUEyq9m1kqao3n54zPXsp1d+w+0Vv5NBYzX2Xe7QCPd97dRw/m3sMlFbVgUifvRqYelQQbcp+/ESIJySmQnHFDe4Td1jhy+i5E9/ov6QQvRigAuHxeAqEvONV6PneLS69i0crdCa07Y6eO/HKPkGUlR06SIR4YP6nB7hPWr1dfIh3Bq4I/N4LVCDwk0NitJ+jJ/RzjsqhsR69BDt0zYvouRPvSLLyuRAkK59gJ0L4tR+Vw33SFp7/it4mNpmes1agFwNUIDwezx2EVccuoed7x+yNu7iP/YoDZ2lFTTNg6mZBZMoH6IkQLmFqskePFpK7ZKPnTnyrnQ6WWKYC4fG43kE4chE9X1FWYGjBSx4d+4jYVPTciS+o7wuirLyKnwjhsfLwBe6TdlgRvXdgRjFpndCLgXvRzo73M9pXDOn9R3t07Jt3HYSeO/EV9W+CZFfy8RMhWnXLWcx90i7b+yV63sR/PLmb5E9thkxE7xO9MdI6CNHN2nIvhlReexvGv7wOvZ+JDzF1tSDJ6jT0RIgmUe7W3CduaeUt2iDF5JbuPYVeFNwtTG2O3id6Y5SVFG3BLo8WQ1p+4CzIobHo/Ux8iClTBUmOHoieCNFk4fbD3Cdu+oAx6HkT/8ocPR29KLhDTy/Y6Ymdo0BYinjHL+94JfcxL6tpgFAlGb2PiW/ZbGo/QZSVNtiJkMfLGMb/MtrUdzah500CA7swuKPzxHnofaFHPNs9L955FCXHZ15b79Exb951MHr/Et+T7M50gTFnNHYi5DGYCuU1fBsxlVbeolXMLGTgcvz1EArPXaPbzA8RHNlUcz/OQ3jJ05M/QMprb8Og3GfR+5b4iT06UrDZ4v4veiLkkZbt/ZL7xHXEt0TPmwQOC4vz6MUyX+qWsxi9H/QqJCpRcz/O3rg7oLlJdicUnf+K+3jP3vQFbfZmYna78l+CIAiCKCvfYydDHqx19njuEzd7ZTl63iTw2g6diFYcFJy7ht5+PQtVkjT35fQPtwU0tzA1mft4F567Rncoze174U6ITPlOBwmRe7CwOFjzJd8bxblHLoItJAY9d4Jj6trNAS8OSqvqwB6RgN52PeOZhKeu/SSguUXEpvId85oGcMSlofcp8SOmfPePAkFWvkFPiNxnwLIS7ot1bHpnj38vY9gkGP/yezDur+9CW/qW3ZAkuxPyTlYHtEBI6tQfvd16F+5srrk/J76+IaC58dzdKK+9Dc270oqsFvDNXQWC2qCDhMhdeBZWuWPymx979FuJWX0e+BJkWXU9JLTrid4XhI/EVMj/8nJAioOW/Uaht9cIImJaaO7T8S8FfsEhreOlz8J89L4kgaA23P2IoQ4/IXK3Zfv4XkwsOHPFo9+Ja931sf92cpeB6P1B+NhCYmD2xt1+KwyKK25AYsd+6O00Ckdcmua+HVHyasDzS+01/LFfSk19dwt6P5IAYUrdTwWCxNRz6AmRn6T2Hs59wW7m4cVa65vvseld0PuF8OsydYHPi4NFO45CREwL9LYZSWRCK839OygX5yXjLpMfPlZy1lFxYCWSrJ65+xHD89gJkX/gXc0sZ91Wj34nJrWjQ0oRFwAAIABJREFU5t8oq66HqKat0fuG8LM73LB413GfFAct+42it9c94EztoLmP+y5YjZYnC4+HKe/840XXlYfPQ0zLTuj9RwJLYs7ynwoE2a70wU6I/KDj+NlcF+zSylsQEpXo0W91nbKQ67eKL96AyIR09D4inglVkmDK2s1QcO4q3x2Dnceg/cip6PkbWfOugzT3d/dpS9DzJdYmMbXnTwVCcHDsX7ATIgrIoXFQdOE618W71+wVHv9e5uhp3H9BFpy9CnJYHHpfEc9JzAnudj2h+/SlMOHVD2DJ7hOQd7wSCs5cheX7z8DMj3ZC9spyaDVwLG305SMZwyZpPsc6jJuFni+xNsZi/yTcHdgJEQX6Ly7k+4v+wnXvBkF4gke3mYsuXKe1Fgjh0G269m3aM4ZOQs+XWJtwb2AnZHVyaCz3RO2LZ4MrDp71qEhYfbKK/rokRKMha17QfG6l9h6Oni+xNioQdGbSmx9zTdAzN+zwye/aQmKg4PQVj4qE3KMVYAt2ofcdIXo36c2PNJ9XTdv3Rs+XWNuDCgTajwFJmJrMtdFOWU0DRLlb+ez3HXFpUFxxw6MiIf/0ZZDorXZCHmnBtkOazyln8/bo+RJL+/5BBcJeHSRmSSNK/sY1KU95x/drtUcmpENZdb1HRULe8UpgYfHo/UiIXvGsbBmqJqPnSyzMpuy6r0CQmJqLnpgFhSpJj13B7F7++g7d1SKLO5c7Vhw8Sxv2EPIQms+lmga6I0dQ2Ziy7P47CHa1A3ZiVjS8+BWuibjPvFV+zSe58wCPCoTy2tuw5lQN7Q9PyANoPYdKLt1Ez5VYm8SU9vcVCEEsKgo7McthKtcEXFbTEJA1CNL7jfa4SCg8d43WSSDkHlrPn4Jz19BzJRZnj468r0Cw2Vx/Rk/MYoYWvMQ1+faavTJgubUbPsWrOwnhrhT0/iVEL7SeO3knqtBzJdbGmONP9xUIjRu7n8ROzGqKLn7N8ZfFVWAB/su87ZCJnt9JOP8VhKpJ6H1MiB5oPW9WHDyHniuxtiZNUn99X4EgCIIgMuUidnJW0WniXK4Jt9/iApQ8O4yf5XGRUFpVR3s3ECJrLxCWfHECPVdiaecfWBwIgiBIsrJBBwmansRUWHHwHNdki5lvj5krvCoS4lrRVtHEusJdKZrPl7lb9qHnS6xLYsqHDy0QRKYsx07QCtzte3FNssMKX0LPOXPMdI+LhPKaBkjpPhi9DYRgSOrUX/O5Mv6ldej5EuuSZHXJQwsEG3N1wk7QCuZs3sM1weplY6T2Huz+eLcOY2egt4GQQOswQfsW7v0W5qPnS6zMmfXQAiEszN0YP0Hz45lUxzz/Nnq+d+swzvN3Esprb0M32uueWMzQ/Bc1nx8Zwyej50us64FfMPzsMYOsfIOdpJn1npfHNaGqSRnoOd+LZ2/7Bz4yKcB/ZEJIoMxY/7nmcyMmrSN6vsSyvnlkcfBjgXBVB4maVsmlm5ovFvO3HUTP92Fa9BzqVZEwY/3n6G0gJBAW7z6h+byglUgJoquPLRAkphzTQaKmlJDRg2sSbZ09Hj3nR0nqPADKPNy7obz2Niz54iTIobHo7SDEn1YeOq/5nMDOlVgYU48+vkCQnRPREzWpKW9v0nyhKK2qQ89Xi9iWnbm2qr5X/pkrEB7TAr0dhPjLmlM1VCAQ3bPZo8c9tkAICXH9J3aiZiSHxEJxxQ3NF4rhha+g56yVMyWL69HJvYoufg2xLTuht4MQfyi+qP28x86VWFeQw/H/PbZA+PE9BPRkzYb3mT12vrxCohK5CqAHSeo8EL0dhPiSPSLB1Oc9MQ9NxQEVCP4xde1mzReJ3CMX0PP1hC3YBblHLnpVJPh7O2tCAimuVVfNY3/J7pPo+RLr0lwgSLL6BXayZiLZnVDO8TJf2yET0XP2FAuLg4XbD3tVJEx5ZzO9zU1ModXAsZrH/cjyN9DzJdYkMWWX5gKBBbsGYCdsJmExLbgmyNBoY++CKDEVFu446lWRsOZULXo7CPFW9+lLNY/5zNHT0PMl1hTE1H6aCwSbTXkaO2EzyVm3VfNFYuZHO9Hz9ZUJL7/vVZFQVl0PrtQO6O0gxFPDCl/WPN7VlEz0fIk1MeZsorlAEMWYf8VO2Ex4JsWsMdPR8/WlnrM93wmyvPaHzz0zR5urT4h15KzbonmsR9DnvgQJY+7fai4QBEEQRFk9i520GTCOt5jLquvBFuxCz9nXUnsO86pIKK+9DZPe+Ai9HYTwWr7vtOYxHhKViJ4vsSCmnOYqDgRBECSmlqMnbgK95+ZqvkDkHb+Enq+/RCake/0Z5OJdx8DucKO3hRAtJKZCWXW95vFNq4oSJKXcBcLTTO2lg8QNb/6nBzRfIPovKUTP15+i3K1g1dEKr4qENV/Wgiu1I3pbCHmcUCVJ87guOHMFPV9iTUF2pTt3gSCKMX/ATtwMCs9do78g7sLC42EFx9r0D1TTAN1yFqG3hZBHiU5so3lMz/p4F3q+xJoYi/pv7gJBEARBlJUr2MkbmatFFtfEh51vID3z2gfeFQm1t2HSmx+b8p0NYg7xrbtpHsvDi4yztDoxlcseFQeCIAiSrNCCSV5oP2qa5gvEnE/2oucbaD1mLPNqN8jy2tuQe+QiOOLS0NtCyL06TZyneRx3mjgPPV9iQUzZ7XGBEMSUwegNMLAxL7yj+QLRZvAz6PlicLfv5fWdhNLKW9Bu+GT0thByt0lvfqR5DKf2GoaeL7GeIKYM8LhAmD59+hPYDTCyVUcvab5ARCe2Rc8XS7DDDQVnrnpdKEx8fQOITEVvDyGirEDR+a80j10nLZJEEAiC8ITHBYIg0MZNnpLD4rRPbjUNwMLi0HPGJNmdMP2Dz7wuEvJPXwYlKQO9PYRoHbNl1fUg0bs0BIFXxYEgCIIkR+/BboQRhTmba75ALN1zCj1fveg9d5XXRULJpZvQfuRU9LYQa9M6Xs28/gnRMZ4Nmh4Wsuxsht4QA1KbZ2q+QIx54R30fPUkqVN/rt0vH2bB9sPobSHWJIfGah+n2w6h50usRwp2JnhdIDQOC/sddkOMqMfMZZovEN2mLUbPV29CopvBSm/XS6i9DYXnrkFc667o7SHW0nbIM5rH6MTXN6DnS6yncVjY77wuEARBaCTJ6lXsxhjNjA+3a75ANO82CD1fPZKYCmP/utbrIqG89jZk5z6L3h5iHRP+pn2djy5TFqLnSyznsiAIjXxRIAiirK7RQYMMhWffgYjYVPR89az9qByfFAkrDp6D4Mim6O0h5sezpHhMy07o+RJrCbIpq3xSHAiCIIjM2QK7QUaj9eJQcukWeq5GEO5KgfzTl31SKLTKHo/eHmJuPEusY+dKrEeyK819ViD80en8jSgr32A3yki0XhzWfFmLnqtRsPB4mLr2E58UCbM37oZQNRm9TcR8JLuTaxdH7HyJ5XzTuLH7SZ8VCIIgCKJN2a+DhhmG1ovDykPn0XM1mnY+euRQdOE6tOw7Cr09xFwSMnpqHoOlVXXo+RLL2efT4kAQBEGSnRN10DDD0HqBWPLFSfRcjSjc2RwKznq/+mJ57W2Yu2UvsPB49DYRc+g6ZaHmsTfhb++j50us5Wlb9DifFwjOHx4zoDfOEJiq+QJB3+p7Tg6JhYmvb/DZ3YT0AWPQ20SMb9xf39U87mgPBhJoTqfzNz4vEASBll3WKsyVovkCMf39z9DzNbq0viN9srBSee1tmLN5D0h2WvaWeG7xruOaxxvduSKB5pfiQBAEQZKdBdiNM4Lo5AzNFwhaJMU37BEJsOqY9s2xHqWspgGSu2Sjt4kYjy3YxVWs2mgPBhJITF3ttwLB4XD8O3oDDSAmrZPmC8TYF9ei52smQ1a/4JMiobz2NszZ9AWtUUG4KEna/zgovvg1er7EWhRF+Te/FQiCIDQSmfoddiP1Lq5VFyoQELkzekL+6VqfFAkllbegx8zl6G0ixtC8+2DNY2vK25vQ8yUWwtTvBF+tnviwkGxKIXpDdc7JsVHT+JffQ8/XjH7YPlr7ctePU3DuKtiCY9DbRfRtUN7zmsdUp2fmoudLrMMmq2v8WhwIgiBIwdFO7IbqXWRCuuaLxJpTNTD/s4OweNdxWLDtEExduxkG5T4LbbLHQ1yrLvQSk5eSu2ZDwZkrPisUsleUgRwah94uok8rD1/QPJYSO/RFzxeDHBoLsemdIX3AGBi4ogwmv7URFnx2EBbtPAoLth2CnHc/gcGrn4c2QyZCfOuuYHe40XM2A1lWFb8XCFlZWb8QZeVr7MbqmS0kxmcTUllNA8z/9AD0XZgPIdHN0NtmRCGRiTDtvU99dkzWnKqF1N7D0dtF9IdnHFlpJU85NA56zFgGc7fshdIq7atM3rkGLth+CPovLYYwZwp6WwzqelZW1i/8XiAIgiBITH1HBw3WNV9NRj87UarrIfdoBThTMtHbZ0SJWX2hzEefQ5bX3oaFnx+mOzzkZ7SOnbwTVei5BkKYMwWW7DrOtfT044qF3CMXwZmShd42Q2Hq2wEpDgRBEJrYVTd6g3UsOrGNXwqEu+UeuQiuFnSS8LKFxMCcT/b69Fh0GDeLPlcjkD5wjOYxM+PD7ej5+lOkuxXkcjxu8cSaUzUQ16oLeluNwBYcFR+wAkEQBEGUlW+xG603LCwORpW/4bNFe7QY//J7wMLomTivVgPGQNGF6z47DqtPVUOLnkPR20XwzNm8R/N46bcwHz1ffxlW+HLArn/ltbdh0usbQA6NRW+3jn0b0OJAEARBYur7Omi4boS5UmDNqZqAnhh35J++DEpye/Q+MJpgR1OYsWGHT4/Foh1H6GJlUSWXbmoeJ3HpndHz9bXwmBaQd6IK5RpYeP4rSGjbHb0P9Ehi6tqAFwhut/tJ7IbrRasBY1FOinul0F+wHolr3Q2Kzn/l02MxcFkJ2ELos0jLYKrm91vKquvx8/Wx5C4D0a9/5bW3oc2QZ9D7Qm/cbh9v7aw1RFltwG48Np6d2wKhx4xl6H1iRHJIzA+Ph3x4LIov3oCM4ZPR20b8L6lzf83jouTSTfR8fandiKno17279TXx4xt+agNKcSAIgiAxZQZ+B+Dp9Mxc9JPhQTpPmofeN0blatEBVp/yzSqMdyzff4ZepjK54RzP3Wdu2IGer69kjp6Gfr2jIuHhJKbkoBUIQcGxf8HuACxpfUagnwSP0jSzF3ofGVn/xYU+/SSyvPY2rDx4nl4oNakF2w5pHgfNOg9Az9cXkjppv2uCoXX2ePQ+QhcS/b9oBYIgCIIoK0fROyHAIuNbcr2QhMURl4beV0Zmd7hhzuYvfH5chqx5gQoFE7EFu7iuB9j5+kJwZFMorbyFfo17HCtvtibJymHU4uCHAkEdjt0RAe10psKKg+e8G7g1DZDz7hZoM3gCuDN6QHRiG4iITYXoxDaQ0LYHtB40Hia+vt7rzyVXHjoPkt2J3mdG16LXMCi64NuXGEur6mDgilIQmYrePuKduFZdNR/3stoG9Hx9wftr4G2Y8s4myBg2Gdztev50DYxq2hri23SD1tnjYfwr73l9F6/w3FfofYXFxpQh2PWBIAhCI9FCayL0mL3cq0khJr2T5kV1JLsT4tt082oVsl5zc9H7zAwku9Mv33eXVtVBq+xx6O0jnus8aZ7m4z1t3Vb0fL3VfdpSz8d75S1o3m2w5j9cJKZCTFpHKDh71ePfHFn6OnqfIfhWEIQnsIsDQRAEQWTKfh10iN8FRzb1eBLoMmm+V7/dYdwsKK742qPfpz0cfMcRlwbzPzvo80Kh8Pw1SOkxBCS6o2A4POOh7dCJ6Pl6IySyKRRf5L8OlVbXQ685K7367bZDJ3q2uFlNAyjN2qL3XUAxZS92XfBT2O2up9A7JAAmv7WRe3CuOnoJwmNa+OT3IxPSYfWJau4cckzwV4vepPcfDfk+3CXyjsW7jkNK9yHo7SPaSHYn1/FVmxt7QbOhBS9xj+m845UQ1bS1T34/3JUCS/ec4s7BDHdueAQFx/4Fuy74WWB3iL+Fqc25b/UvP3DG56vq2YJdkHeSv0igv0x9zxYSA73m5Pq8SCivvQ0rD18AJbkdehvJo7HweM3HtPjiDUOfh8GRTbmvgWtO1fh8QzNbsMujFRuttMIpdj1wX5j9ZcV+iwu5BmPB2atgC/bPSnosPJ57WeexL76D3odmJdmdMOeTfT7/LLK89jbkHqmgnet0rM+C1ZqP5bT3P0XP1xu8676UXLrp14JoNWeRMOWtjeh9GAh6eTnxZxEW5v6dKCvfY3eOP0h2J/dLMr66pfYwrtQOUFpVpzmf/NOX0fvR7BLa9oClX5z0eZFQXnsb5m3dB4mZvdHbSH6u6IL25/Hdpi1Bz9ertnK+e+BK7eDXfCIT0qGE81NL7D4MhODg2N9j1wMPDImpa7E7xx8iYlO5BmH/JQUByWt4Ed9b9c069UfvSytI7pINxRU3/FIoLN59AmJadkJvI/kBz7Ez8roktpAYrrYOL3olIHn1mZ/HlVdK98Hofelnb/3/7Z15eFXVuf8PapVen1/r/T2/3t7be21zbZo9rJ1DQshZ+yQhHBIICTNCmEFmkFlARgVknocwBAIZWgdsoWptRaVCq1KKyCSTCAjIlJAIldFEhff3B9paq7D3md69T76f5/n85fPIu9+19npX9lkD9zzgO1GEme6ABIW/E85fZbkDllRcD/tvbrfTzlkJgwpK2XNZm+y/sChih8msPnmR/M06uPo3bbeb0/1Ry+1VdMrd+/F7z1pufQwsv0ZG/UZRi83ORWsTX9rMnstIqhr+NO55wG1RdFnOnaRwW2SjAz667JdRja2/jbURC949wp7L2qZIakijn/5dSGdZ3M7Fe49TqwGj2Z+zNjrpxc2W22nutoPs8YZiwcHTlp91woZNUY2tr411IAUHTrHnMoKWc9f/O6IJ8zEHJCqs2hmwI7324JvWk01sxSeSovd1A/7D1EArmvLK2xGZJJRV3dr10GUCLumKpssPn7PcPs37PsYebyjaOX+gQaNWUY1NFabl2Eorq2P3mHNNjuCu/5ZgT1SYtdr5Co9VssS35pSNlzezBXs+a7NJZlMqOGD9r7Fg7DltseXTOmFwpgZa2WoT7nhD0e5ZDxwxltpYsJ3Zuht7TiMhd923jKaZK7mTFS7NnPaWO9687YdYYpzw2z9ajjHSK4uhNRt36EMLI7Tj4au/lIYUPkMpmBBGRDtb/tacvsQebyimt+xs+Vm51lo8/tzvLcfYsv8o9pyGW9UwC7jrvmUeSkn5IXfCwmWLfqMsd7yRJRtYYuxlYwFRoD2ugXaMwqTcXsNopc0zLew6+ZW3KR0Tw7A6++33LOd/wOJi9nhDMa/XMMvPOnbdRpYY24980nKM+aOfYs9puH3ooZQfctd9Wyi6+Sp30sJhxzFPWe54XBcjdRw73XKMzfuOYM8p/Fcz23SP+BXia89eodyeQ9mf1e0aNk5PLKuqIX9OB/aYQ7HNkAmWn7Xf/FUsMWbl97UcY9dJc9lzGmZf4a73thHC73NA4kK207gZljteD6aDUDqMmmo5xlYDseLdybYZPJ6WHToT0YlCScV1emT6UkpOa8b+vG40o2UX67kuv+76I37bDZtk+Xl7Tl/CEmNm2x6WY+w+ZQF7TsOqkd6Au94HhaLLI+zJC9G2wyZa7niPMp0z0O3JeZZjbNptEHtO4e1VhUnthk+iwg+rIjpRKK2spokvvkGZbbqzP7ObnLbpHcs5nvQ79x/v23LAaMvPO3T1cywxNu89wnKMncfNZM9p2BTyMHedDxpV+JuxJzBEG3fobbnjTd+8gyXGkSUbLMeY0aILe06hNVXDT40e7kVrz0TmVMavu+r4x9gmaVE7eW03fBJ7vKGald/H8vMu2n2MJcZBS0ssx9h28Hj2nIbLBM1swl3nQ0LR5WfcSQxFO0eMLmU6hGPhziOWY/TVtnvRY8Sm3QbR0v0fRXyiUFZVQ5Ne2kKySTtScErjt2o1j6XnP42JPff1zKa2+g9HjIv3fGg5vuyO/dhzGiY/467vIaPrZp4DEhmSVjteScV10pOi+3uj3QVT9XzZ7PmEwZvTfTDN2bovKhOFJe+doB5TFkb16HA3aDl/+06wxxou7SygVRnO4LDTr5PTc9nzGQ5VIy2Hu76Hg7sUl39FsNP58sdEdwtN064DLce26vgF9lzC8Gg2fZhmvbU3KhOFkorrNPevBykrvy/7cztBq3nrO49nRX8ktHO9fO/Zy6Mam52fQFafiJkx8DOPx3MXd3EPC4puDnJAQoN20kvWz1xftOfDqH6aLbJxBOrY53n2KMPIKZIb0bQ3dti6+jskK6tpWNE6SvLnsD87l49MX2opT9xxhtMJGzZZ7iPL3j8b1TFwuY1dPzP/vJs9l+HRHMRd18NGXFygrqLLy/xJDc7Mtt1tDaLR+o0rq2M/W3G1G/4Eey5hZNTrZdCggjJbZ+aH6vLD56jntCWuvsY4GFXDT3P/sv+2uYm10/rS8jra6htth0RnIWDj9r1sxdV98nz2XIbBS3FxgbrcdT2sqML/lAMSG5TC5u/8UTlaVZi2tsGVlF+rFRc1eVOzaOqr22jl0fO09sxlKjhwioYVrSPV8LPHFg31ehnUZsgEKrJxP0c4XLT7KHV9Ym6tyvO37R5ac+oTyu4UM4vg/km7Y2CkF2iqhp+WHjhlKy69Xjp7HkN+bt2cwl3PI0KCJr/gTm6w2rnatayqhmb+eU9E4xn364224pn3Ds89EdG0zaPj7jA4uPvAGrvKJg/fmkRWVkd1srDq+MfUrMdg0rzuH4ytmJTWjDLb9oj5XR/jf/OqrX6w7P2zpEYwJ8OK1tmKp+iji+w5DIOfc9fxiKEYvkkOSHBQZney9zm/rKqGBkboDPZeMwpsxxJ4OLbvYEjP60SldyiEK49U1Jq/cL9ukplDY559mYrLr0V1olBWVUNztx2gtkMn1uo1C7GiL7ut7fZfeeQ8eSOwc6rzhNm2Y2nUrgd7DkNVE+Y47joeUbgTHIqLdh+z3SmHFD4T1hiGFj5rO4bVJ//GnrtIO/W1bZZy0WH0VPZYudSTGlKHUVNtrUgPl6WV1TT3rweo96wVESkYMDrOfHOP7bafv+NwWGPoO7fQ/kTl6PmY+MLDXb8jjibSBnMnOVibdB4Q1OBYcOhMyP+2avhp7rYDQf37sX7Fs27jMKt52w+yx8uuMMnry6Y5d1hoF0mLz12l0c+8RKJ+I/58QMva2VL4dZe/fy4s//7MP+8K6t+PhUWjaqJ/IHf9jjjx8Xn3KS7e0bBoj/2vCGVVt05V6zhupu3fZUVSQ2r/2OSgB+IZW3ay5yzSGvUDtnJSPyOPPWanqBp+6jN3ZcQviLqTE1/cTDk9BlNyGn6KcKppzTuFNKksraym7lMWkpFsb1Ko18ugdsOtXxj1TWPkj4JL8fF593HX76igGOZwByQ8KO3uaPimt/5yepmadB5w209e2Z3706inXwpp21pJ+TVq0KgVe84irZaYZmsh3iMzlrLH7ESz8vvQeBv73SPl4j0f0rCi5ym7Iw5mcoKN2/ei6Zt3hK19i89epbHPb6Sc7oNJFd+9Jqhxhz40svS3tPrkxZAmJb6sNuw5DFVV+IZy1+1oUkfR5SXupAdr68G3Xy1vp4CvOnGBVhypoOWHz9GKIxW0+sQFKgnTYrL80dE91ZHTJ363xXreK66zx+tkRXIm5fYcGvHbJK249uwVWvb+Weq3YDUlNgiw56Y2mffIcFp59HxE27ek4jqt/sYYuOrEhbAtqO34+HT2PIbBSx6Ppw530Y4qWqKvrQMSH7TjN7zOPnjezumbY/+nha/brMcQW/mpn1G7DvcJVlWYNKJ4vSMmC19ZsP8UdZ+6kGSTdrgnIsw2yGxJA5cU33FHkBuc/kee23XDrWr4W3LXaxZUXV7kTn4ozvlLdC7NsevMP+2K6P5jJ6oKk1aduGA5R7Pffo89ZrfZpMtAGvPcH6j4XPS3S36nldW04N0PaNjqddRu6ARspwxCry+buk+eT4v3Wr8R0enO234oJs49UXV5gbtOs6FpZn3uBghJYdq6ZjQaLtx9NCaumA3GsetesZynkorrLLfOxYJ6vQzKbNODZvwpuBXlEbWymgo/rKIFOw7T4OW/ooZturPny4l6U7No2Op1VHDwNH+bhdlVH1bFzJclTTPrc9dpVlRdbuduhFCd6ZCBcsl7sXO9bDDavbe+x9RF7DHHgs37jKBl75+N3oVRQVpw8DT1W1BEGc07U5KZU2sm0lpiGiX5c6jt0Am0yGF/0ITbpfs/Ys932BTmX7jrMzsJCX5V0eUN9sYIUbvHfobbESXr2XPgBNeevWI5Z0veOxkTh6c4Rc2bTu1HPkmTN26l0vOfshcLK64+cZEmv/I29ZlbSG2HTKDG7Xu5/meK1EAratl/FA1cWkqzt+6j0kp3tEWojnn297F0UuoNVfUlcNdnR6AK+boDGiRkszv1C9sOBKuWVFynZj2HsD+7U2w1YIyt/GW07MIecywqkjOpSZcBNPkPb7IXjmBcc/oSLdl3kma9tZcmvvBH6r9gNbV5dCyZOe3Zc/uVDQKtqO2Q8TR87a9pxp920ZJ9J6J6m+c3XbTnGDXtMoBKKqK/RiWv93D29girwnyVuy47CvYGCaOTXtpCZZWRfSFKK6vpqde3sT+r09QS02zlccorb7PHXBusn5FHT7y0hYrLr7IX/0i45vQlmr11H4159mUasLiYuk2eT60fHUdZHfuSr3FrMpIbkUjO/E6NlAA1aNSS0lt2oabdH6X8x5+iAUuKacKG12netoNUdOoT9mf8LovPXaXszgP+qb0f++WLkb8krLKaZmx5N5a+Gvxd7nrsOFTDN5G7UcKpV2bTxBfeiMin1smvvEWpgdbsz+hUxz5v76ZL7nhrm15fNvWZs5LmbT8Y9ZtNhBoSAAAWVUlEQVQmYfhcfvgcdRo34zvbOTElQON+81pE1qZMfW0bySbt2PtyJIz5C5mCIRAI3KMIeYG7ccJt/Yw86jJxDq0M8YKcVcc/pm6T51Nyei77MzndzLY9bOV24NLI3LoJ76y3QRbl9hxKo8peoOJzsfl1IdZc/kE5teg3yvJW6iR/DnUaO4NWHgnt0KW1Zy5Rz+lLqEGjluz9NlKquvw4EAjcw12PHUmCbuZxN1Ak1etlUG7v4TTjTzstvRAztuykJl0HxMR+3mi7eO9xywMPTlZ0jnq9DGo1cAwtO3SWvRDCf3bpwdPUIDO04qx706lxh940bdN2S//m7Df3Um6vYbVmDFQNmcNdhx2Nops7uBsJut8uE+fYGvzyx0xjjxn+q8kZudRnznKa9eYeWnXc+kFYMDyuOFJBQwqfsX3JHLSvqsvt3PXX8cTHN/wRd0PBGFCYtn77rO1nSLhFf7MOlD9mGk18cTOtPXOZvYDGosXnrtLI0t9S4w692du7Nvlzb9p/cNdfV6Bq/uXcjQXd7/j1r9kaGLPy+7DHDO3pTc0i2aQd9Z2/Cl8YQvTxda9QSsPmpOGE0eirycXcdddN3KXo8ip7o0HXa2eAnLN1H3u8MHRVw08t+o+msc9vpEW7j9Gq4865aMoprj1zhRbuOkq9ZhTE5DZBd2le8Xg8d3EXXVchRFoWf8NBtzt9s7UFoV9ZTzZhjxmGX29qFuU+MpR6zVhKY577Pc3fcdg1pz2Gw8JjVTTpd1uo25PzqGGrruztAf+hEL4s7nrrShQhN3M3HnS3DVt1tTWQLtx1jD1mGB1Vw0/Jac3I36wDtRo4hoauepbmbjvg+onDmtOXaeILb1CHUVMpLbcj1fNls+cafofCfIO7zrqWlJSU7ykxcE8D5HXhrqO2BtjEBo3ZY4YO0fBTZrue1GX8THqsdAPN2bqflh8+R4UfVlHRqU+o+OyVqE0oSsqv0ZrTl2j1iQu04oNymrN1Hw0tfJZaDXqc6rn8/oha6o2UlJTvcddZV/ML3TfQAQ0JXWy7oRNtDcRTXv0Le8zQXYqkhpSa1YYat+9FLfo9Rg8Pn0Sdxs2gHlMXUd95q2hQQRkNK1r3nQ5e/ivqt6CIHpm2hDqPn0UPj3iCWg0YTYH2vahBo5aWDyWCLtLw9+WurzGBKswj7I0JXe3qkxctTxBKz39Kvqw27DFDCGNUYR7jrqsxg2GkPqjo8iZ7o0LXmj9qiq2vCGN/vZE9ZghhTHozoZ7/v7nrakyh6uYUBzQsdLF2L41J8jdjjxlCGFtqQj7JXU9jElWX5dyNC91rp3EzbE0QZr/9HnvMEMLYUdVlhcfjqcNdS2OSuLhAXe4Ghu5Vr5dBJRXX7H1FMJuyxw0hjA3j4gJ1uetoTKNo5iTuRobu9ZHpS21NEBbsPMIeM4TQ/aqGOZG7fsY8+fn5dyu6uZ+7saE71RLTqOijv9maJDTrMZg9bgihixXyvfz8/Lu562etwDDkjxUhv2BvdOhK+8xZaWuCsOzgGfaYIYQuVcgvDEP+mLtu1ioUwz+CveGha7W7o6FF/9HsMcPwiQuKYLT8hW4O466XtRJFl3u4Gx+601YDxtg75vb8p+wxw9Dt+sS8vx+9XVJxnaa+/lfK7tSPPS4Yowq5k7tO1lq8Xu/9+KkBBqNq+Gnl0fO2Jgnj1r/OHjcMTr1eBi3afezb27aymgYt+yV7jDC2TBDyC6/Xez93nazVaJrZRMEpizAIm/cdaWuCUFpZTSmZLdjjhvad/saOO7Zv066D2OOEMeNNTZNNuesj8Hg8qjBLHdAhoAtd8O5hm4cn7SUFF+e4yiadB1hq2+Lyq+yxwpixhLsugn9QRxXyqgM6BXSZqVltbU0QyqpqqOXAMexxQ4sKk4rLrR+OlZgS4I8ZulpVyKsenJboLIQQ9yr4qQEG4ey337M9ScBXBHc47tev2mrXjJad2WOGrvamEOJe7noIvgVNyM4O6CDQZWredCqt/NRWIZn66lb2uOHtbdi6m+2Jn0huxB43dK+aSOvMXQfBbVB08zfcnQS6zx5TFtouJjhh0bmqwqRlh87Yas+1Z6+wxw3dq6abv+Guf+DO1FF0s5q7s0CXKUxa/v5ZWwWl6NQnpHnT+WOH/+LQ1etsT/j8ufnscUO3alZ7sO7AHdy6r0F+zt9poJts0sXaavevO+bZl9njhv9sWm6+7Xac9sd32OOG7lQV8vNAIHAPd90DNlBVmcPdcaD7nLHlXdvFJasjTuJzipo3nVZ8UG6r/YrPXaMkfw577NCdqobM4a53IAgUYa7k7jzQXaqG3/YEobSymlTsanCEI0rW226/7lMWsMcN3akq/Mu56xwIAUWY73N3IuguW/YfZbvIzPnLfmx9ZDazbQ/b7bbsEG7qhEEq5CHu+gZCp46iy0vsnQm6ypl/3m272DwyYyl73LXVxAaNqdRme5VV1VD99Dz22KEbNS97sCgxNjCM1Af5OxR0k15fNpXYOIGvrKqGyiqrKTWrDXvstdHFe4/bnhx0m4yfFmBwGkbqg9x1DYQRVTUfVnDSIrThwyOfsF10yqpqsPUxyg4tfM52Gy3cdYQ9buhKbwohO3DXMxABNCEXO6CDQRc56809tovPgh0fYNFilMzrNdx2+xSfu0qpgdbssUMXqsnF3HUMRBBVmJvYOxl0jYkNGtPaM1dsF6Hhxb9hjz3WTfY3o7LKattt03nCbPbYoftUNfk6d/0CkaeOqpsfcXc26B5zew4J6qeGvN4j2GOPVbXENFp75rLtNlm67xR77NCVnvJ4PHdxFy8QBZKSAg8ourzogE4HXeLoZ14OapKQ2aYHe+yxpuZNp7nbDthui6KPPiEjOZM9fug6LyYlBR7grlsgiiQkpj7kgI4HXeSKDyrs/95dfo18jbGzIZxOemlLUJO17E448RIGoeL7X+56BRiIN9J+zt75oGtMbNA4qMK05vQlMlIC7PHHguM2bAqqDYasfIY9dug+hfDHc9cpwIhmpPXg7oTQPTbrMZhKg1gYV/hhFamJaezxu9k+c1cGNTlYuBNbGqF9dUN2565PwAGoujmTuzNC9zh4+a+CKlRL950k1fCzx+9G80c/FVTOCz+sQs6hfTU5nbsuAQeRoJm/Z++U0DUu2HE4uL9mdx3BnQ02bT1obFC5Lq2sJh9OtoR21eRG7noEHIiiy3fYOyd0haowbV8r/JXzth/CX7UWbT/yyaByXFZVQ60HjmGPH7pMYe7grkPAoQgh7lV1czd7J4WuMKVhcyr66G9BFa8l7x3Hkcx3sOPj04OeHPSaWcAeP3SZQu6Nj4+/j7sOAQcTFxeoq+jmx+ydFbpCs2n7oBYtllXVUMGBUySSGrI/gxPtOW1x0JODx8peYI8fuktVmBfj4gJ1uesPcAmKLq9yd1roDhu27h50MVtz+hIlmU3Zn8ExCpNGrP110PmcvmUn/zNAt3mVu94AlyGE//8qurzggM4LXWDHx6cFXdRKK6upUdue7M/AreZND/oQpLKqGlqy9wTWdkC7XvxpYsa/c9cb4EIMI/VBRcjrDujE0AWG8lm8pOI6dXx8OvszcKkKkxbvPR50/gqPVWJNB7Trp0Kk/JS7zgAX4/V671d0ecMBnRm6wOFF64IucmVVNTT6mZdr3TZIs+nDVFJxPeicrT55kXSs5YD2vJGSkvJv3PUFxACa1vC/8CUBWnXwiqdDmiQsf/8spWS2YH+OaNjtyXkh5Wrl0fNUTzZhfw7oKj+N98r/4a4rIIYQQuqKblY7oHNDFzhwSXFIhW/t2SvUdsgE9ueIlEb9RjTrrT0h5WjNqU/Im5rF/izQVdZo3jSDu56AGCShnv+/HdDBoUscvPyXIRXAsqoaWrz3BPtzhNvc3sOp9PynIeVl1fGPSa+Xwf4s0F0KkYE1ByBy3Jok4EsCtGa3J+aGPEkoLr9GbYeMZ3+WUK2fnktztu4LOR8Ldx3DmgNoU7MakwMQFYSQOtYkQKu2HvR4yH8xl1XV0Pwdhym9eWf257Gravhp4JISKikPfiHiV05/411sZYR2/RQ/K4CooijpP1GwuwFa1J+bH3JxLKu6dWbCrLf2uubzervhk2jNqU/C8uyjnn6J/Xmg67yBBYmABb/f/318SYBW1b3ptPLo+bAUy7KqGnpq018dudtBS0yj5n1G0JrTl8P2rL1nLWd/Lugyhbzu9Xrv564ToBZjGKkPKjhxEVrUqN+Ipv3xnbAVzrKqGnrq9b9Sbs+h7M/m9WVT/4VraO3ZK2F7tuJz16hplwHszwbdparLi4aR+iB3fQDgq2OZcXcDtGyPKYvCOkkoq7p1muDIkvWkRfnnh+a9h9PCnUfCss7i6xYcOIV7KmAwXk3E8cnAaajCvOiAlwO6xIyWXWntmfB9hv+6peev0/C1z1ODzBYkkjPDFrMqTKonm1CLfo/R0v2nIhJ7WVUNTXzhDfb2ge5TFeZF7joAwLcSFxeoq+rmbu6XBLpHkZxJUzZujVih/ftf4wdP08jS31KncTOoadeB5Mtqc8erppPMptSwVTdqPWgs9ZlbSNPf2BH2rwTfdPXJi5T7CP/PJdCFCrkHVzYDRyOEuFcR8l32lwW6ynBthbTr2tOXadXxj2nFkQpa8UE5FR6rpKKTfwvpboRgnfLqNpyMCINTmDvi4+Pv4x7/AbCEostX2F8a6DrnvB36QUJus6TiOmW06sqee+hOVU1u4h7vAbCNqsunuF8e6D6bdh1IBQci9/u+kxxZsgEHH8GgVXVzJvc4D0DQaFpaD+6XCLpPLTGNOo2fyV7AI+XkjVsptVFL9jxD96oZsgf3+A5AyAjhj+d+maA7VQ0/9Zm9nL2gh8vVJy9S/Yw89rxCd5uQmPoQ97gOQNjQtLSfKThQCQarMGnoqudo1fEq9iJv19LKapr15h7y57TnzyN0taouL8YbaT/nHs8BCDtJSYEHFF2e4n7JoHvVEtOo/cjJVHDwNHvhv+PEoOI6DSt6nmR2O/a8Qfer6uZHP8UBSCDGqaNq8nXulw263/rpuTSieD37ROCbFn74MeV0fxRXMsPwKeRmj8dzF/fgDUBUUA1zgaLLm+wvHowJfVltaOJvN9HKY+G7DMqqa89eoUW7j1HPaYtIFdiRAMPqTU34l3CP1wBEHUWXbRzwAsIYM6Vhc+o8fiZN2LCJVnxQHvYJQUnFdZr11l7qv2gtNe06ENsUYcRUhWzPPU4DwMaXt0Fe5n4RYezqTc0imd2OGnfoQ33nFtLkP7xJS/advPOXgTOXafbWfTSieD09PPwJSm/eiepn5JGWiAkBjLiXcBsjALeoo+jykANeSggh5PYDD9YbAPDPqMJc5oCXE0IImTQLucdhAByLpplNFF1+xv+iQghh1PxcEf5c7vEXAMeTn59/t6Kb1Q54aSGEMMKa1YFA4B7ucRcAN1FHEebz/C8vhBBGSCE3eDyeOtyDLQCuRDPMTgrOS4AQxpY3NZHWmXt8BcD1CCHuVYV5xQEvNYQQhqSqy2tCiHu5x1UAYok6mi6LFXxNgBC605uKbj7twU8KAEQGTTObKEJ+4YCXHUIILeq7oQpfM+7xE4CYx+vNuV8R5g7+lx5CCO+gkO95vd77ucdNAGoVqvANVTR8TYAQOlAhv1CFOYp7nASg1hIfn/wjRci97IMBhBD+w0OGIX/MPT4CADz5d+uGOdEBgwKEsJarGnJCfn7+3dyjIgDga8TFBeoquiznHiAghLVPVZflfr//+9zjIADgNqiGb6KC7ZAQwuh4U9XNqR5sXwTAHShK+k9U3TzqgMEDQhijqkIe17S0n3GPdwCAIFAMX19Flze4BxIIYUx5Q0/0D+Qe3wAAIZKSkvI9VZibHDCoQAjdrpCbcVQyADGGqvobKbq8zD7AQAjd6FUt0WzCPY4BACLHXYpuLnXAYAMhdIuaXOzxeO7iHrwAAFEgISHw/1RdbmcfeCCEjlUVcqfXm/Yf3OMVAIABXfdnK8JXyT0QQQgd5ce4XAkA4AkEAveoupzggEEJQsisJsxxKSkp3+MelwAADkMRciOuk4aw1nlDFXIT9/gDAHA4QvjjFSG3OmDQghBGWFWX2+OF1LnHHQCAi9B1f7KqywvcAxiEMPyqurygaWZ97nEGAOBiNE02V3R5iXtAgxCGxcuaYXbiHlcAALFDHc0wH1WE/JsDBjgIoX0vK4Y53INLlQAAkUAIca9umIMcMNhBCK15U030D4yPz7uPe/wAANQSVEOOUXT5uQMGQAjhNxXyC9Uwp3KPEwCAWowi5JP46QFCp2heVoR/Gve4AAAAHo/H44mLC9RVhRyg6PIz/gESwlrp5wkibXBcXKAu93gAAADfxl2aIZsqmChAGC0/F16ztQeXKQEA3EKC7s9WhDzsgAEUwhjUPKYIszX3ew4AAEGj6/5kVZi/5x9QIXS/qpCv6bopud9rAAAIG/Hx8geqLudzD7AQulFVmEVxSUkPcL/HAAAQURThH6no8hz3oAuhwz2vaP4R3O8rAABEHSH8PkWX6xVd3nTAYAyhE7ypCvkHTUvL5H4/AQCAnaSkwAOK7hukYKIAa7GqLsckJmb8O/f7CAAAjkRVzTjVMHcp2CoJY9/PVd3cH2+k/Jz7vQMAADdRR9X9A1Xd3O+AgRzC8CnkYUWTIzw4uwAAAEIjISH1IUWYYxXdrGYf3CEMzhpNmNMVr+9/ud8nAACISeLj8+5ThFyv4CcI6Hw/V4V83e/3f5/7vQEAgFqFmuhvpOjyRVwWBZ2jeUUR5staYip2IQAAAD/5dycIv0/V5SpV4MsCjLLC/ELRZXGCkBmBQOAe7rcBAADAt1MnPl7+IEE3C9gLB4x1n05KCjzg8XjqcHd6AAAANokLBOoqQo5UdXO3gnULMHg/U3RzvyLMJ7xe7/3c/RoAAEAYiYsL1FWFv5kqzEWqLssdUHSgg1V1eUHRzULVkDlxcYG63P0XAABAdKjz0EMpP9QS0zIVYb7DXYygM1R1/wEhzFZfXoyEnw4AAAB4PB6P5y5VmL1UXW5XhK+Su1jBiHtB1eUuVTeHeXBoEQAAAKsIkfqfmvD3VIVcrejmMQcUNBiKwjyjCrMsQfh6CpH6n9z9CwAAQIzwk5SUf4s30n6eoJr9Vc3cyV7w4G1VhXw3QTX7q6ovQVHS/w93/wEAAFDLiJfyB6puDlOFeVDR5UUFuyWi6WeKLi+qQh5RhHwyObnhj7j7AwAAAPCdJCen/0Qz/O0UIecputyo6PKkA4qp2y1XdLlZ1c0CRTe7JSRmPMTdzgAAAEDIxMfn3SdExk8Vw9dA0WWbBN2cqer+HYoubzig+DpHIQ+pulyq6GZHxfA1ECLlp/Hxefdxtx8AAADAippkxv0iUfZWhfylqpsnFU1e//Imy88UTX6h6PImexG3pe+GosvPFV3WKEJeV3XzpCr8Zaowe2nJaT/jzjcAAAAQMxiG/LFi+BqowmylCrO/KvyTFWGuVHS5XtHla4ow/6zo8h1Fl3sVIQ8runlS1WXFrcN/5GVFN6+oQl5TdFnzpV8V9BpFlzW3/pt5RdHlZfXWdsAKRTdP3vp/yb2KLt/58t94TdHlekWYKxOEf/KtWMxWiuFrYBjyx9x5AgAEx/8HS/QGQnvKqQUAAAAASUVORK5CYII=;" vertex="1" parent="1">
          <mxGeometry y="195" width="90" height="90" as="geometry" />
        </mxCell>
        <mxCell id="qcaZ6cuYOBvwn0T5m9db-3" style="edgeStyle=orthogonalEdgeStyle;rounded=0;orthogonalLoop=1;jettySize=auto;html=1;exitX=0;exitY=0.75;exitDx=0;exitDy=0;strokeWidth=2;" edge="1" parent="1" source="qcaZ6cuYOBvwn0T5m9db-5">
          <mxGeometry relative="1" as="geometry">
            <mxPoint x="400" y="260" as="targetPoint" />
          </mxGeometry>
        </mxCell>
        <mxCell id="qcaZ6cuYOBvwn0T5m9db-4" style="edgeStyle=orthogonalEdgeStyle;rounded=0;orthogonalLoop=1;jettySize=auto;html=1;exitX=1;exitY=0.25;exitDx=0;exitDy=0;strokeWidth=2;" edge="1" parent="1" source="qcaZ6cuYOBvwn0T5m9db-5">
          <mxGeometry relative="1" as="geometry">
            <mxPoint x="790" y="220" as="targetPoint" />
          </mxGeometry>
        </mxCell>
        <mxCell id="qcaZ6cuYOBvwn0T5m9db-5" value="" style="shape=image;verticalLabelPosition=bottom;labelBackgroundColor=#ffffff;verticalAlign=top;aspect=fixed;imageAspect=0;image=data:image/webp,UklGRqAmAABXRUJQVlA4WAoAAAAQAAAAVwIAOgEAQUxQSMMgAAABHLVt2zD2/3+3lD0iJgBPUo6wUPcHANTzpNn/nSSQkMguoHVvcc+6q4C7jm6titiBe3QPcFRq7d5PVdQqUuvudItatUotBSeiOCtDxcVGSEhy/oDkXPe57kTxM4yICbBWbU9Y21YkRAISkIAEJCChEiKhEpBQCUhAAhLiIOfe25IP5hnt+ncjYgLgof8f+v+h/x/6/6G/TY9/v+fcvu+f9HvQpNtvWP2fYQ+WPHMDHZdOeJAkohCdrXz2wZGANHT+fP0HRsYh9a0HRXS/kE48KOJzlVRY5wGRQCSXtH9AxL+C1uYBEa+jpJv+D4ho4km74EHRIVbKUw+MmNYSdhkfGIFHM5y61A4eIG25zYnkLvBAqWlqajXHXw+CB00DOj4bObrrI/DQ//+fi4Gh0XFrf/9NjX9fG/dKaIA66Y2+1XrpNSxMvr4+nuI8atXuEf7SrOnDH2/nY+Bj8PX1MQjSm3x9fY0i9D6+3p5itEZfb704naGWr6+vr4/BUxatMbjPhFnTp0+fMX1UBz9PYR61e/VrYVIbj86zD9y1oXrb7u6f1dlDXUwdhi1IOHKhwlz1TPKGL14Ka2FURDMs/nKFuWj/7EZCmgxctPuaxWZHRLRbS48lTOsZzKHLwrS75rK0+V1oLUZ+ejjbbK64uGSYhtBmXnKR+fafsW1pweN/uWguSPmop4iAHi8s2paWYzabzUVp++KnhDdmF9zrtZ/PW2zo0Fq4Py78UREBL+2z2OyVWZ+1VxPd+M0WVH/z5nFa9egTl3QH6Vd2fzm2rrB6a9Bh5liS9qlV55FuTfm2v1L694ux+oK5GueGJlxBJzc+6tQb17H6mzGUiBSsvnzZI5SBnx22IPX8+klBnHp/kmJHgSe+60vqdggdXntDPZ5JRleZ/JQ6GJ8+XICirVk7I2sLefQIOln5knPGCf9WoOCig5E+SmhWobNfOKEdlFyGzh8KcmIFOvuFxqnhxejk7kBnjONSSlDs5Q+CmHg9uacARRfu7udc7xx0dr5KNFlrR9dpX9tEPu1Th1Dh60sHmUheG9HpkmHODEpGRTPG1RL3Njof6yB0PdL/Z3AwHZ1/R+NE+zx0eovBUcRhVDDvbV8Ogw+iopU/tHQi+AQ6XTFcFV64iK71whjZmq1FjnsnaglPVziHh00OAr80o9J7e4kKvUooaVrNxP9QYGmX6hr+R7jT1JFxEzpvf6k63y/LUdk/uynW9McKVPrSBEfvInGfr3y6hWZ0teYPtFI9l4s87WeneDvj+StSB1fXJRkZFs03iYlF6mcAoP/MhkLfq24WUuc76mAhYKquSqsjqHh+lEJROcjQtsRUjfYixR4mnWEFuuLleonetSDfv7o5EVhIWlrN0KvIc08LEfotpONe4LsZBW/zqOKxi3TG0SykVjYCgAEXkKE1Rgn/b5Hp9rpV+lRQ8C3ZTMvRNcebpHnHipzzBjkKRfK2KlPykevFgQJCTpDOB0Eiij5hqmJKJxUEOfieZB8DEHETeb4rLngnsk1tCQAv2EjLZfscXfWHskxD5v8FOBhMuwAA0+zIt3g4rck10s02k1D46VpVjCdIxW0dLCbhVOhbgEwrnxfV6hQyPtoY4HkraZ1kkei6R8sxsJQbfuhgCC0L4Mm7yLngCdp1Uk50jrhkL1FtHHxPG9fwLLLNaScmNANZHwgU8ZNcDW65sOx6MtQ7gewzdMKuQK9byDt/mHJHUPwyDbfK139HxruEBJ9E5r/BMyqzDF35Uhk+Rf45jYRl1j6J3G90VMqO4u2RwM2SiawnCTDtQfZzh1lUJaLEpRWH82tVLMHtrsKubUb+px5VSMnUAHbcM4JImk+Rf8HPZWpi3IqufYuR3VcosDJ381ezZsz46KcjZZVicusJkzNBltIhoHL2WaTnzRIg2tUk0ubirOO4BebS7vzQRw/V6/wfj92TLeAfYHMj9bdvF0W9+fm6w5cVwAlyFESD2uGpAEK9XBR/ft8X0196+aVX5q9Lu0miy+STga4+3ZvZeAvpcB+gtp3ys5kylYl9y8zHDOCw+dilN4RdrS3Dhn4gW8amz995553Y+B054nAkIQFF58ePbQiOjT1e269aC9D1z2O2HKnJgSDQs8Oi607tNrIo/6mHAYhNZmcLwnhmpWcS3+ykA7myP+tVxwOqNTYctqlE1FrnhpoFFX/WAqg+Qw+qU+vrbkBua1a+f1GKOoFg/zdPOdpVDzj89TiIbLDcIqawLyPboYXtgSjDtQUhQOz6h6AbtZwx7EOx2x8DodNzVEgTj+7gUg2nVtmUzSC+zrRDVTJiA4GBLa4WCB59TQiu07P5daQeyBIc7gwCXy0VYh3mzCirEHOcJwhul6Q+YUVuQVE/Tt1LKRMVAPBtM+qZFkHgrLg7USC+a5qQ8jZMTgzTg0B+iYEg9Lm7InCRM7tQpDUaxNf6Rm00Sege7uI0DKljFREo7PYgULJ5mghczML2vQ8IZbfFCwS/YhWxW+Oou03E3ShQUveVykxEdzGS0QjSC2pQOQyUbXNNxI1HGJROA8Hc0uuAaN2PIo76OfoBRU4FZfWJqhKS7jacDJFnqQrYZ4PSw80CMFq5q2GgCtZhIL5ZjoCstg7qXhDxLSjtk6wmseg+xshT0Eq+DXrF4DMRmxXL7wfqkAhKfiKgqL+Dpy0CjtZWDDreUI/QHDciu6U0mNpctpuNQPnAdAFXmitU+SKoQ3knRZqU0Wwjq9MsRoEjgOF89ViB7mQ8m+4lJEztJdls4DhBAI5W6AtQid89FIE/aBhV3SMnBPwMHH3OqUU/s1tR3pdLyywaFi+oLdN5PxaGYwI+UuaIUSXs00DZyQJmVtfBTLP0ZgETVMKwD93LJD0T4x4BiGcWNJDnNeA5UcBeoxKVPUAlbnRSqKeZNqO6sUjfa+QRdE4doixuhjmSCXwhBLHkx4F15MhpxaTxf7QbdZVYAmpxzKBQk4vCFtNsM4HpQlUIPoruZloQk4hyMYh47IuhvhL87MFEk0DDLgrcaKMav4DCfvuF/UnLa88lvFQN5qL7GcNEd0gYYlnmsohazOxTgOsrdtpzCqwF1fhaKe2vwq7RUnRc/P5VgWY3VCJ18YIF/zugFnlNecAIBape+vKZJpwK2rJ5LJ8WK87eSz1mKqX5UVS9YtqXwHa1CiSiKp4cGQIA4D9ktzrgKia67cog4rkfRpnY5OrYeGXSlok7rVOPV5SCT0R1LaM9z2emfBElqpDgDw6188pVoSicB7TPVQqx4uzC5loeO4FvEm2ruPdBPaIV+0zUs1aSvQefoRbZTNtQDRON4OxcmxrgFiMPeK5MMUQ0rwtn8TWjBNp2YfY+rm+sjWT14dOuWLZImxqc9gGn9ftUwTqOCURVMEA0b4xgEMdoAe2MsEsNXN8Y2h1vPv63JfPJQDV8EYjhlWqA6d5MYEIpB8Sy1c0Ve5nRG7RcYZs9XN8sJB8z8IE8yeJQDc/VpcAhVcD5XCDsOAvE7FeUeobRW7RsYZ+D61tIS+N0Q67W11XhJw1pnjrktuYCdeN5IC7xcTlT3YAPaKmuQhOPqrgIyNPVAZdquABE7K9kgYfqKzKL0eu0q6Iqn3UDxttIGV58tDelCi9Wh3m0mSpR1J8PwOhtZg6Y0lSJOEYf0NJF3erhBoyhWX34NCyUSZOE6jhfrXAXJ9D3+u4WA/zDpMByRom07aJu93IDxtIqQ/h0LZNpIrqUuwX8MJITAIS8tC1LMfxEgb2M9tF+c2MGm0n2MD5jrRKFnGZWuPz1ca98miqJZeOMJ/qN++ICt5MhvACg2eTlFxSyPi7uuolNrfO0b9yYdqUkfI3PIpQoFnn/1A6q1o6+LcOpwTqo2vhTZhjDDgAahi3IqFAA94kr6samyx1arBtjyqcl8NkiUWgOq5KZ4LhVJr9DdcHxc9d4ZbeUAAA8Or53MFdYxVBh+CabV5A+0o2BTNpJLy6NL0j0A3LOHgzO9srjdq0VONsxhRUuk6Nqh6k7K8Xgcq2w3zyZaBMEhLozG2jFYVzGWuXpZ+Z0qC04/xW3t8H54B2syvtKA2Ds9HmekIx6wm53YdLoMu1qHXcmloYLmWg3ozSGfcj4z4ZA7HmbV2EdAhiXc8IkvTwA4P9RngBLd2H4PpPxSP9D784MEXA8kEdbizxRFkYb/YFqSOWVrKGAaSUn8wSpALrso+FEcVcCWWgOC1gI7kzj2zR8hsdylCb4KPJdbwT6QV4rge61khGmBckF/ltpseIwjsXTSLc/49aYdgpI9eDQs0SeOcg3yQtkWycA9MsZYYxk4J9OSlCgqAsDvzQBmfXcGogRgK8x8NqJ0jS7wedIIxBoSOV1TiMATJsY5TWVDCaQVimAu72Vm2sTsAHcm575Am60V26mWZ5EZHuhFYjscZuXpZsI8P+LD66SrUURZbUS+KFig8wocJybozkkAHcYlBpwF6WJKGFTGAFCv0FemCgEmufwKQoX1m3y7NkT2ynX9DpliSI4TaE2l1DgZaObA2+KwO91yrS/gNKYtiHbaBA69A634qeFQFgRG9xiFNN45Q1ExJyVdZVqkkd5T5mysYp0yESRn4C7E5QnAr9SpPNllGe8jc3XIDTsBnLD/GFC4A0+1nFCmp5Ah1eijcr0tlOmKIP2t7XiumSgyMJmbg98IQS/9RU3/DLK43Mauf7tL2RiPvJDW6xOBGxgg+neAgIOobM7RiqyFKl9FUJc01jU+Gso9HNwf1rdFIL7OwnSv12CEsUh14K+IND0EQrkgJgYIKLBJTY4X8BYdL5i5xCdsA5FlNttFcNLUZ4iGqy2odC8tm6Q5iMxeH2OUYA27DAqyKD1dTbvgUDjOpQFdzQRAC/yyQ2l/UJAtO9+NkRM41Sk7vVRDjH1+WCCruP7t1DwInCDoP45MYjnJ7ciBA3cakOZNPHI9V+dAOMGlAePNxEAv7DBxRrSJRIipn42xEB7Nh3JHwMHxJTPRzdyYOz26q+FKPpkoFsEUaIQcxNeiwipxrNd1Ff/oMLKhRVzKY8AuvcmlAlPNBfQ/Babov6kuyIQS8+sGN/IT6+pzhD84l4Lkkv6MEGszD7x6w8Jq9YkZ95G8bYh4B5pfhWGiMWXTx47duzYmTxUfr1Smt3IdYWWZlqPcuERXxq8wwZ3kS6JqTZvT+KCufPmvr/yYCmKTNay4fkpuEnQ6LwCnJcoNRG55rUGsu4nlA23GmnBx9lgJGWjAkqPBGGVJRLs9nebYECZBDcrSW8pFHKazZdAj0X58DtPErxoZnMymDBSlgOe4s7P4JfZENwnmMwv8Xs76R2FYpHrtUDa0xY1sEfTDCls8D1Crd/kyO8B4i7BN9yudwd3Cj7iluK/AcljlWmVwyYGyM2yUA2wqAsJxvDJaukcNNwnRSwocAW8E3nlPQ6K3entVui/4vVfczhIG6zMCuR6PZTk8weqA/4VQNJfYIPLCGB8r5DfRp0yoF/FKbc/0PJINx/jV9Je3BR+M0mgmWNldLEXhGaRirop0q+Czfca0ouoFvguCSbzKe9LAOi5jdvP3qAQmFbySWkJ9NrppIv1lDtFKqzjYCnJPkaxL2lTaACRt9mktAF4xka62EwJwz7kWtQHqA2vqceNUFKTXDaYpKeAPjKT1TpfUAyMC7isqgMCvbaTTugV89xLOgcO3ybZOir2OskyXAR0P87ktzoA8CmS9xqViLKw2aMhLUH1wHUk3VI+5kgSgO/rmWwK52iBAcDYXA5ZL4HYeaTloPwc0teOOtso5w2KdSiinKkjBPy/vcugLFYHAH6naQmgYPBRZDsJqL0K1QT7UWBYGRtMDaIBBL5xmMeB/kAUB63WKmZZ3RwEN7lKKG3LoOUNwt2ujry3U94E5bdSPgHRT+xX7MBQqDoQ6e8qMQfZ5vtRdImoKtt1FONxPhgjAiBg5NoKxc6+7AdsQPvsSUWs2yJA/NuE+cDxPcLHWkfQt8C5v/wYtM1zLrO2MPAdd1KRq5P9oNodtLL+CjS7wScBqN2L1KV0MAW+Y5TXVAgANJy594oCdw5NNQFdCQD91H9KRWWtDdOCkt85tcqLBSx2apUnOPtyuTOpTYDjcwXO3AoDJT2f235TkC311QCo/slK2jmDAonI92nSN6guuEZL6Wnjg6tEAUDz8Z/tzRNxfeuc3iBUGQDN4G9OCLj207QWoLBnTL6D/BgD8NTFFDkoW+QFzo885WhzE+AZdsjR3h6g9GPvbMoj2dL+96wBHIakIX01iI8o4XOrBSWoUG0K21A8LzAqChMHAD7Nes38fPPhq/nVpyctmd2/qRcIVgoAaneZtjolv+Ru1bL8U3/EhTfVAMNWH5/Kz88/Prcl8G278Ex+fv7ROZ2BXGfyrrz8/PNrhngAV//Rv9/Jz7+x9nkfYOjRrP+ry/Zfya/21JZvR3cMBme/RIGDxBm3Id/NnpSZqDb4JgWWMMI/jEo41Oqq14CiDKrV1evUsWPHjm11GuCr0el0wFyj0+lAsFan0wBvnU6nBaGBvUeM6BvgVPVaXbUaoL5iE3DFR9wEG6N5QP1TfdJ1lKc5WcczYMrlXlHz+mEzYuWhmUaS6JcqUOAnINznIvItH0Fpe0N9bN0pbQsY4QXv+y+PbEWHmdF+DDzmWVDgzU7iPkbGlxtTZqP64NcU3/2ccNF9F+NOdPb0lDZKddyMQpeC8DY3OSVrCR7r1ShFQ4ClrPJa3295GYlZCWN9FWjy4TUUWtpKmDYROS8DYv1MNbrWmvIWK0zQ3l/xPElBtOasGd3IT0RI/1W3UPAXIHzAXVavUbpZ1ahyPGVUBauy8PsroZW0qhX/Lnv1hX5tH63lXbVW8+5PTl11CYVfCBamPYicbcMpr6Aa4UJKz9us8IDmvkpPs5hqi7NPHfmn6pELt1DJ8lEgPApZm9tSvlOn9VpC8DleGHlfpatFAbYfgXC/VF7leoJ2pzr9/QjBM5VZiu/9lMBS6TabxI218jrlQfDMUKfcZgT4i5l19P0U2C7bgUAQrvsRef+jIxjK1KmwHWU1M1ytvZ/S3yLXgXogvvEVZr9rCfUq1An7UhZzu9xIvqG07HsXmFUp04a6oOAAZL4YiD2tbgmGyzeIdvQeBl7OlcYaZwAl3+K2jNJLrSZS3mD3hnx1bKRf7mWg3gdn5ch4EpRdJ1lPtZpOmcJurXw+Z0lx9zQA9ab/xa9gYR1Q+KALmu4CDsin+Zhi73yPA+A7aN0dVvnfNgXF09VvhYb0FodplKnsTskHLW4QlunueQCg8Wtbr3I5+klTYFghWS8OyYGkTRxGUBaxK1cBiLY7dbYu3CN3il6dpdzZxc8GA8sybisoHSwMzH0odfM59KLEsytVA5hV4sQ/reHeWRPSdcbmc3l3xVTcPrtxVqdA4MouWUeoZWaAmyhfIUNLd8oSlwT9d5ZUk/mBH9xz1x06ZeEPv+45cC6z2nP/7N6x8tNXR7YC1hWSGa5xsEY7N6iYw61WlK3sytUBPHtP+3Dhu883gXt2g3fTJtU2fUSvBf7p3G7qCR5HOGDpC84MyEKOZ+pTjrBLV4m/3oPcKgIIsIwF4qKm1dWeUYwsd5kItU6x21sjsI5bZWfKG0ww6+sXe/Ye834aMl0MxKb/sUuoEXiLm30cZQAXRLx1x4ZsX6eEFbJ7s0ZgADdcSGlxjQ/n4gGUl5B9eI1A4yvc/qAYd6hRZgBlEbvLjWoEdD9yS/cjwPtq9AcQPTayW62tEYCxVma3ulGGV6hQNKV+JjfraKgZ9EtlZp9E8T+pPgXBlD5Wbim+NQQQxQy/p8Cn6vMLUF9F7pFQU6g9yOxIIKW9TXWGk7ZwO6CpMYAB5bwqulNgq9ocC6TUKWJ2NxxqDrUreOE7pCfU5m2gPofM47U1CND6Oq8UDcV3v7pcqk/axOxqKNQoxvHC9hSINKvKPKA2v8psPlBDEZES/ux8TvP6lmRIVpMLvqSpdl7p3gSudl/DHx1E2lhdCKZAf4uKTACqaQ+yto4D56Pas8YvwFlEMr8r0zZWtmgSLFGPrd6kvmZefxid426zGl4fV7vVk98URJRwwn0+pAZn1CK/B5B/RNZFYeC82Hx9e1HtecQ3BYmsMJwEz1pV4jUgN7XyWgXE4TB+d0FtVuObanaD1VYafKEOv2ppi5F1XlNCNG95d83m25uCOazs/WnGA2qQVgfIbW/wigHi4ZJXF82b3lTwUU6YbCBB80vy5fcEsnY5sk4NooirvTpx1TcFURZO5igadLkpW8looPctZmWOBOr1KZqrvSrDPk54ug4NhhbLVTYa6JpdyDpJT2qforv0VUG/Ck74oQAYVihT2WgQGI2sy/vCPY353xWsYFXeVwAMz5Kn9HkQ2DyX1zKoyWiVwwmP+AqAjudkyX0SRK5B1lktazQglhV+KgLqbZUj7TEQGYW834OajZDTrEqGiwCvRXclWBkCIjvd4XUyuIYDJrLCS01EADyRwe3mi1oQ6XcEeUdCTYdmNys84C0EQj4v5mRe1QyE6hKQ9y6o8YCwYla4yiAEYOAmPklPgeBY5F3UvwZEE88LYwWBbuiflRxsyU95g+BoC7PFmhoQaH2dF84UBKDttSlHqVvbhnuA6CdLkHduKPBLSW5L4l9ISe5LCj+TktyXFL4SxDGzzBAFAG1nb74jrjJpQU8QH5aDzOcDs3h2mx4178SlDpvXJnE3LnXYvDaJn8jnNC80zxAHoGs9YeWFCpLdcmXj1M7eoGDELWSe7s2rNAPqGTYpzbDjDBuVZthxhgWcRQDyv0d8VTDexgtxpgJV9Q2fj1mWlJxx9syZsxl/H0yc93Q7PSg7Kg+ZW8cBp9gMffI6FrWFNezBorawBlC4bOnIb8q0jZslRquIw4DgoKDgAOA4qQK5bzFyOm2h5lWH2uLKGxxqiysjktrq+qIgooQZ4ne1GPBdaEbuReHAJ3Rbey4JzdZrXhWardfsC2rr84uCRHa4u7FaBCUi/1XAZ6itrguy2paVl2S1LSt7qm043lSzG+wwY4g69P4b+ec1ZbRjhRXbtfOCYrt2dugOFl8UzOGHJR8a5NNMuYMSxoCq2Amqtm9nWLV9O8/ZlulNBR/lh3igp2zNf0EZ04JUxjKk2M6dQcV27vxlIMoiARbO85dJPysbZTRPALXRAMi294XJtvc1pVvEV2XYJwPiiRe00gz4G+VM0quOXb6gm5kggm5mMlN3GPSu+5mlQNw52CBFp0QbylneF9THkqvZ9hHQbPs4EXSD/LLgB0kQf3+S3+PLilHWZSBNO0WagpqnGLidIm2Auq8YuJ0ibYD6BGVdVuhth+bIghV/TjBw0o/ano/SZreUZBSm29wgluZ4QFqm+3AqwoqHB6Rlug+nIqxMUGxLtAZ637HSIOKVBd1MPIydZqfbUeIYkENo9oDUOTGgHjQbGmJ4xIB60GxoiDFDFIoIQEQkR3rlIaclQrRsjw3zUKz329sqUOqTIVJopvmCMJ4aAI3krAArjgHQSM4KsDL1vwB68xOlQsTCYz++3NwgSt9ozP9S7qDskSBFIe+BKDPFgJHcF6DPFQNGcl+A/mk0SZJVNWdt+uSFxzs0Dwn2qeIVHNS4be8x8zadNqMK7gIpTvI3wDVzAYT8rD6LUxdAyM/qs/hlILxYvupLs//9J2nNmjU/bk05crEA1bKovxSDAQGgE2z+QcgCOGfY/IOQBXB+Gk28Wqj0Uo0UhZCXz+JTARQIDd+YKYACoeEbnwZaX3djcluDDErQDDieqk8JW3wWJqpPCVt8Fj4NxLkx80GKE0PqO5+6r4IYkCe6r4IYkL+NT4bbku4tRwJdvvZk/gyi5pMJ82cQNZ98G4i0uSnWcSAHgcXXHxKAUeJrTwnAKPG1j2Pa5qZsMcrRUMlnD9k3CJ19/Sn7BqGzr38ciChxS4rCQY6KijjxNVjy2ZP4Giz57OtAoluyCiQRFG10wminE0bfq9kNNySvqeoxTP4N5O8A5rohMSDLsU+6u34pPVy/lD5P8FG3Iy1ImrRd+zdofxkQZXEzzJEgjexD99e/wfWnYdjnZiTpXYf8Ej/IL/H3gX5mt6K8L6hO2OjciHDnRvSBYIVbEQ8SXai0UYOlnRosfbPQHDciu6VMHXX42kP2DVj29afsG7Ds658IYt2IGJDJUBcu+YxR4mtPyWeMEl/7RiHpbsPJELkySH3yQICMaj55IkBGNZ98I5joNkSCXBWTzV+euq+C2Px5ovsqiM2fP5ImyU3YBZIpQy5AeKo+BRVAmKg+BRVA+EgQVuQWFPWTzQQRza/0nH1WMMPXaTL7rGCGr9NX0sS7BUs10lkEdECdYMCAFPOfMwwYkGL+cxl/Bmh93Q3IbQ3ydXZVA5YJunwmAFZAnKHLZwJgBcRl6TvAAjdgHqiAdXZUAyrPZIBFXzN/p+kMsOhr5u/0oXwyXF66tyrYSDNcDVlpegA0eqoByxwNgEZPNWBZVz8ERNpcnHUcqINZTXdchkHTXAGYHlOhG3CQswBMj6nQDTjI3XzKNynLEV+fcauL22JUDTNtp5zNwI2cA2DW8kM41ZDFQwNg1vJDONWQZQMbp1zdblt8eRBR6tKKw0FF1iZPgphpO0XaMGwnd4KYaTtF2jBsJ38FzGt8ebDSpS0HF9HIfWHWRh9dmLURIItsvL0Gt1xYdj1XEX08dhMC8thNCJhXWXl5EOnCRoOLEAJG3asRNOpejZBh2fX24HOX9SG4iEbQslVnDJWtOkNorGqvz7TcRcWbpDh/YDCGykadCV026kxY+TpgWOGSlutBSnH1dRoJXXSXzoQvuktnAodV1/sD3UKzyzF/oAU5syuVVRoJH3WPyrQy6h6VCS6LygcAeOGii7kwBqRVhxIVXdKZVvK1gR60mK8N9KCVfUmnb9hkrd2F2Nc2AXlPhxBR7AtOWp3HqivQ+jxWXYGWcl+g8SMAPJPsMpKfApl5THX6XxZUS7ThMVa0RHseY0VLtJov2Ij0HXXjN1tcgHnzOC3IHXWi8w1RqIiWaNNygcYZaN9ygcYZaMcyICpMn9Kj8+wDd20qZru7f1ZnD5Ce650K0ySXS6faEWhjLnU4tEmkzbnU4dAmkbbNdThGzfRBA0Oj49b+/psa/7427pXQAFDHUEQkM7lDktuc6BdTkvuSAv1qSnJfUqDdQypynxL93/8P/f/Q/w/9/9D/D/3/0P8P/f9wpwBWUDggtgUAAJBQAJ0BKlgCOwE+bTaTSCQjIaEnXqiwgA2JZW7hcR5cxe68NNh+A/wH4AfoBTf+v/mgP4D9XbpeZf7Z+T+5++gxO7B70C/Qef79Vfc95f/QH/nHoA/gH+H9cP+5fsz7f+oZ9NB/oPTy1KvoB+AH1+9/gzRAUVF1MqGQgKKi6mVDIQFFRdTKhkICiouplQyEBRUXUyoZCAoqLqZUMhAUVF1MqGQdugOJKujRmr2LjV7Fxq9i5Bc1btKxCKYohFLvm9/AQW121n75/Ulo4EnRmlZcMlb6IxC8PGqhkHktv62Cn4FQx/4WRzkUimF/VpDRHGfQgKKi6mSLYPfctj32W1MOyJpk+EBRUXUyoZCAopoWIzHAqvvG/ooAmnPcNTDsqKi6mVDIQBP5KGBoklepEuNEJ7EdGQgKKi6mVDIQE1PkdiGonp8IPXsA9onZCAoqLqZUMhATU+R3AkqZMq9Sq56k+9BRUXUyoZCAoqJV3s3dNFdGmgeE4yWYbyiNU6w9i41excavYuNXsXGr2LjV7Fxq9i41eUAuhRoTHDEsimJNwDYokVYtu9i41excavYuNXsXGr2LjV7Fxq9i41g77Yuhpk9egxeCgQ2fqp/gqLqZUMTdntcavYuNXsXIDttfUQckyVlNuo0bWoCiouplNxj0og4v6ScX9JRrN19N7oRQSVMkW3VeROGo5BfcGQDzb5yLkc5FyOcmFrofVwVEkLTV0Ay2X+svlcr1fCwRwI5BfcGIm4wLjV7FxqL441esdusXGr2LjV7F26xcavYuNvRdTKhkICiouplQyEBRUXUyoZCAoqLqZUMhAUVF1MqGQgKKi6mVDIQFFRdTKhkICiouplQyEBRUXUyoY/QAAP738QAAAAAAAAABBeSp//7y5GroQDnpDiIKmVBSvRdxO4zuxqfwRNAvJyN3GHug4BCfnyTNnyTNnySYO2TLwNCBTFYc6nTZN+NeVjrDv8VnTeFj7dgsPo2e81mZK8p5Z1l0TPKOSBPxUTHwO2+GT8bloS8VAenF1Wx+KwEgtBuXTRsfcY5CWJQY3mD22HZXMQi5eu+zTfLb2mv+sClj+j2TZHiMVYmu94JMtkxmCODPpEMr4t4HlK5LkfAPDqHvED1yG7IT2VYFYJzYkS/R43qd+HlcXcUAAAAADpZ2KCeChaOSnoJMa5S9kvRTHByru3obu82AAvtsnUMkCs7GRN2lUDcS2sUdG+PizZkUn+HjzGIABh+Z2PqBX8QFIjXsCnwUzoPc0IBghKO4q69xLIZ3KSKo5v/w7Zew1xMvuVP/97NTgyPjWgVga6rmrVxScWkm0FXiC9lM8QzMAtpQTrT9MwNoAKQS8gkrSAMssv8yFLSjh27DKlsyFuCt23HOp6ZwAGRgSK72Jb4Ma0FGkQLnZUIegLtga25UMcG/CMG7JqXFTJ6eKvfkT+hr1K8n/d81jwaUajvegdgq5WUEcp5Eh5TXSEwb1kP69T2h4UZoITcgzIqKs1LoB/g0bwbrCnusGBgCvTifEa1a+x0ndsCvTexAi5E3HHapSg+cawHNUn3rcQ3H0+a/wNOdXysArC8vAP4CwAAADbPpDX6yD85IEtSsk/bt30JN5bCIW80UQroJ1zxwADsGltSSIjCPgN8E7kcwLxmU8FZymVjc17hMTtChjX0XIXYq3AAACA2sCHTLpDx9hBK7QtC2xEMKtNYdd0CZBeSQj8XC4zKeCtAVmqXGQFmXG49mLRPQtlGXQffUKLXz9NmofSQ7u1yYkjc9H00DqQYPULLEDk0lBr8IwLcMnPoF40cfYJ9EFkmMCGlkORgn0QWSYwIgw2aOz8UANyYarm9QfShyxHgsE83FIJ20wC/BBp7S0J7BPogskxgQ0shyME9r3zN5wVp7zV/KE5yBZts4xwfhmjVuTiGUQHewoAAAAAAAAAAAAAAAAAAAAAAAAAA=;imageBorder=#000000;strokeWidth=2;" vertex="1" parent="1">
          <mxGeometry x="510" y="200" width="152.38" height="80" as="geometry" />
        </mxCell>
        <mxCell id="qcaZ6cuYOBvwn0T5m9db-6" style="edgeStyle=orthogonalEdgeStyle;rounded=0;orthogonalLoop=1;jettySize=auto;html=1;exitX=0;exitY=0.75;exitDx=0;exitDy=0;strokeWidth=2;" edge="1" parent="1" source="qcaZ6cuYOBvwn0T5m9db-7">
          <mxGeometry relative="1" as="geometry">
            <mxPoint x="920" y="258" as="targetPoint" />
            <Array as="points">
              <mxPoint x="920" y="258" />
            </Array>
          </mxGeometry>
        </mxCell>
        <mxCell id="qcaZ6cuYOBvwn0T5m9db-7" value="" style="shape=image;verticalLabelPosition=bottom;labelBackgroundColor=#ffffff;verticalAlign=top;aspect=fixed;imageAspect=0;image=data:image/png,iVBORw0KGgoAAAANSUhEUgAAAVQAAACvCAMAAACVbtbpAAAAGXRFWHRTb2Z0d2FyZQBBZG9iZSBJbWFnZVJlYWR5ccllPAAAA2hpVFh0WE1MOmNvbS5hZG9iZS54bXAAAAAAADw/eHBhY2tldCBiZWdpbj0i77u/IiBpZD0iVzVNME1wQ2VoaUh6cmVTek5UY3prYzlkIj8+IDx4OnhtcG1ldGEgeG1sbnM6eD0iYWRvYmU6bnM6bWV0YS8iIHg6eG1wdGs9IkFkb2JlIFhNUCBDb3JlIDUuMy1jMDExIDY2LjE0NTY2MSwgMjAxMi8wMi8wNi0xNDo1NjoyNyAgICAgICAgIj4gPHJkZjpSREYgeG1sbnM6cmRmPSJodHRwOi8vd3d3LnczLm9yZy8xOTk5LzAyLzIyLXJkZi1zeW50YXgtbnMjIj4gPHJkZjpEZXNjcmlwdGlvbiByZGY6YWJvdXQ9IiIgeG1sbnM6eG1wTU09Imh0dHA6Ly9ucy5hZG9iZS5jb20veGFwLzEuMC9tbS8iIHhtbG5zOnN0UmVmPSJodHRwOi8vbnMuYWRvYmUuY29tL3hhcC8xLjAvc1R5cGUvUmVzb3VyY2VSZWYjIiB4bWxuczp4bXA9Imh0dHA6Ly9ucy5hZG9iZS5jb20veGFwLzEuMC8iIHhtcE1NOk9yaWdpbmFsRG9jdW1lbnRJRD0ieG1wLmRpZDpEM0U0ODlGRkY1MjA2ODExODIyQUNFOEFCMjIyRjYzRiIgeG1wTU06RG9jdW1lbnRJRD0ieG1wLmRpZDpENzUwOERDMjJGRjcxMUUzOTYxMDgzOEY5NEY0MkUzMyIgeG1wTU06SW5zdGFuY2VJRD0ieG1wLmlpZDpENzUwOERDMTJGRjcxMUUzOTYxMDgzOEY5NEY0MkUzMyIgeG1wOkNyZWF0b3JUb29sPSJBZG9iZSBQaG90b3Nob3AgQ1M2IChNYWNpbnRvc2gpIj4gPHhtcE1NOkRlcml2ZWRGcm9tIHN0UmVmOmluc3RhbmNlSUQ9InhtcC5paWQ6RDRFNDg5RkZGNTIwNjgxMTgyMkFDRThBQjIyMkY2M0YiIHN0UmVmOmRvY3VtZW50SUQ9InhtcC5kaWQ6RDNFNDg5RkZGNTIwNjgxMTgyMkFDRThBQjIyMkY2M0YiLz4gPC9yZGY6RGVzY3JpcHRpb24+IDwvcmRmOlJERj4gPC94OnhtcG1ldGE+IDw/eHBhY2tldCBlbmQ9InIiPz4Dh2wQAAAAZlBMVEUAAAD///8AK2QAK2QAK2QAK2QAK2QAK2QAK2QAK2QAK2QAK2QAK2QAK2QAK2QAK2QAK2QAK2QQOG4gRncwU4FAYItQbZRge55wiKiAlbKPorufsMWvvc+/ytjP1+Lf5ezv8vX///+X3zc0AAAAEXRSTlMAABAgMEBQYHCAj5+vv8/f7/4ucL8AAA4eSURBVHja7Z3bmqI6EEazgQgBOfwgotIoef+X3BcBJRDONtNK6qpn9ENZViV1SkH+0/J2IRqBhvq1UMn3iEXpyDs01HlisghAZGuobyPqHFGJqaG+w+bZMcRLHA11FUzm+xHawjTUhcbuBS2USayhrtqQwrZyxuecXzXU5Ui9imOaXa8/RVEURfHg5flenjTUZWIIpOfbg0uSpSkvr7HeqBaIEwFIbiVvSZadztmD80dxBqiGOkdNjwCSnHckP53P8SnnnPMzYGioM1yoAMDlpaX3ovr7Ht/SS5ZwzjlPcNQR1QymERAXFdBHlgBIOeecl0me3JNzzjnnd0CHqfOYnmo1zcU+L6Bm1/Qnu8Xib4Q6oTKLaVYbflE5T2fOOS9ORfpI8gvnnD/GFFVD7WPKkwpqzjnnSZEWt2v2wznnKXyd+pu874dNpveKacY553l2T3l6P5Wc8ysiQ0OdKkFjPeW8PANAfOWcc366X3Iec3DOc0QW0VAnigfEksP/KIrKD3ic+OlxT3k6jamGWssBwJ2rpXzwCy8ynvJsClMNtU6hRMCND0rJ7yeEE5hqqJX4tUM6ID8xAoNoqFOFAfFjRFHPgDvtahoqIYSYtT/aL0UyVkPVUOca/wUILKKhzsigAhg0/vIEHA2ioc4IpSLgOsT0ngDejAtqqIQcgWSQaTyPqYZKCAXw806mGioh4fAuVZ7mMtVQCRvZpc6Y6PJrqFJ8ehnyT4HIJBrqXBc1LocV1SEa6uzk1FAs9cBonl9DVWT7T0PuVD5akNJQ2+ICKPig9UdEQ51X6kOzLKWS2e6UhhqM7FK8WGL9+4bKRjN+15GuKQ1VZfwjGb8UAdFQ5xr/SLp/0ZK6Z6guRmt990VL6o6hHuo+qQG5AZaGOi/mT8oRqBlANNTpoVQw0DzRaFLzNdRZ2f6x+inn5bJ9aq9QPQwn/J6uv6OhzmGajTLl15FTKBrqfKY8XbZP7RLqVKY8XhRP7RGqEWCkzN9w/T0NdZLPHwHxzxSmPF+4T+0NqnEEkD4mMeXZsnhqZ1ANFgHxjU+UZEnWf2dQDRYBOD+mMi0xclpSQxVI04JPlp+lS+peoFIPM5Fyflm6pO4CajW6Yx5Szk9Ll9Tvh2oxMV0mu89Dujib8u1QTdsT42UUcyamLKm2htoDFHFW8AWSjYxJ2xtUyo7Ra+5RyRdJMnaqfz9QTbsxoSu9FnypPJYvqV8F1XKeCorkvAJoVfOz9w7VsL2owbPka+W8fEn9Eqh2PYIzvfys51k5VIuX1G+AarpCR5N3Aa3Sft5+oVKhpPHlzt8pZ+CwV6jUFxN5fvh7pcSidr9vgGr6Qkkf/N2SY2F56tOhGu7SCHSS9bt7hGpHPZMO32T9h/1BNf3XgKP3yw0LK/4fDdWJ5OGRb5ZkcSXlc6HOqokukAKLKykfC5VGQJzz35MzVsSonwnVAXAuf5HpA6scqg+EanhzSveLJMMqh+rzoBoBkNx/lekDK63/06AaAZCW/NcVdZX1fxhUI5jYBLlWUd39QN2CKU+BFUn/z4PqTZhy+A4fdWFX+kdCPUijeJfJz8gmVyb7gmpEiNfu+1cUow1Uqzf/T4LqTjj5NG7bip+lUSYsAKSrEtSfBdUaP0o6ZRNSRaXPWOIRA3mxI/MPRoZITDsZAVXy9NwYlpbz+36gOsMD+aa69YkqeZq+Xs8557uBakXrjZ/HSpcsqUlXTHk68mC0b4FqBOPnyKdU8xSxQ1GvCTVTfllT8/8gqB5QrFbUs/JU2llALU/PI8A/+4j9nYln9Eared2f5gEAJS8aS0O51qf6CKj2G7wpLh7PWapyUrhlaA6pSVcG/58Alb0hPBXVvO5cv8fruajXZjH1+NVQDSd8D9MrVIMTshfUUloovrVGZVHHDYA+pvf8mqav5++maXa9FcXQZOnuktpQ1LO8eXlfBNWkNmOe33ymdnLtMi3zLIZa4vSsgPs4AUCsTJ5WH1PKbpb1HVAPzG8TSs83RQbk/iLqN6T1bPMkTc9XIVkavx6D1kmeeocQkEtf6fxB1H8RqlW1l6dper1er3lRFD3dEkUKAKHHqKVQdMrY0Q97tLhQJE99UzzdTzrAVmAN1T8C1TwCcXab4OA/UgChY42vx8zvPElekTz16ii47sZ+PDewyDY+Gaod4TQpXVJeAHh0xl7H3NeycOsaf70fGb5Csd1PhupNDZjyGPAWODv0wNCZP1vKbWiHtl779JPN35kyeKuy/GDhnR66cX8KhJIqWu6La+CYn737GwHSfLyH7xojWtyL1x3nnynTppQy5tB16dS/Yf6vBS3uLUEXJyBYrD1WR1Hz1S0Tf373t48BQj/qreuXF6zKHPvtuZ452sb/fVDrxEnPOOM8xrSHa/ZtVO0ZlPn64v5HQLX8viA/T1a4N1XRUDaBG7A2u/8RUFnPsLgyTwCEq7SKyQNoywy/afx/Bqrhq5v4qyifrQJgyc/wu58ATHr88YdD9VQlucftJBIe65pwSCAlp28it2KTr4fa6XJ4/FxEq9hqpMRFowerEL9TdCDfD9UHcHpm6l6555CtXvkOjaC/qC7sW2QHUJX5jMB9w72b0TOpn1dIQ5uQPUAlhLrNhEbku7b5lhusH+TzUye2fx3pHyunUHpgjB0ofZ+34wL4Ka7P9cSjhOwL6vvlIK0nR9vY5FO/G6rxKltF3kZEvx5qNQQoOjrWlh/73VBNxpiqPqihfp5oqBrqnDQKpfuAao1vwNab9mhvSTuEQSUZ86qfYv5LqP5oYth8Uz7eFjH+ggpBq059ZLQ/CdQMqem/ghqOdih6q4aXyBma+SN7qLpb6HgYhQogPPwbqKM1DHPtwZBfgapOGCjgG/8AqjnaTOth2VP1lBWU+dM6e6GKPrYxqPUivilUOlZuM1cPhXhuOcGSkgl9ajellFKHea+UZCevjWfVnFKnit3c7aE6YweUPawbXdak6jA2O3lIFZ9P3box0+6DSkg9zFHc3aZQ2Uhl2HzDsfBVQtU/qh2qqKLV33F83t2mUP0RaB5+tcdhMVRiiG8mLydtqMZzFd8UqsjteyOJOufvQa393mAIqlDVzaFieOyD2LHf5FO9GWpFlQ1BZfXNbQnVrEsawxllpU9l2MewCl2qXdiktE7qWdWfdgAgsNsvS5epHv4ReIdGZDoBKnEBIDLGoFobQ316geaQoqp8KtPreuLsxd8Xf1ZviszWy42lsXmAJWIdjkNQxeLFBqC6/8L8HQBB1KeqRgQgVN4V6zjZlgJqDZ6RHqhO1I6TrDlQKYDmI6o6UIP69S2hMgCu26eqDACo4lVVT0BEO1BtWdE7UA1PEQLZM6AK5+XQC5X+E5fKB8DMnlXVECrc9amMoO7CpwYhtH74xKEFNYwAeNS0qRpq+zLVSmDPgHqQB9a1oIoPoFtDDQBQYaWmWlFNErR9qgpG46iImJoeHWWobee8DVW8p3EOwxCLCpsOlUTSii9DtQKgPu2yJVSxOapVtVJUoc3dgqjsu9ZHyVpQHdIP1VV4a9azJ2YiVDmKblzQqOwn2jyhYlZfSamqrLIdt6VgjrLvsbZlCapP+qHSwctMheqgeRAYAHzpcHIdcW0IlVabo0pVjahiwGSfSviu3WSmGXWhHgaghupQzQhnQaXSit/NDhrbJ6md+jYVqloravu2WN8wU9qBGpJ+qPZrvWtVxGZBNaVfuJtNtbdPUrNaQbuq+lRUcZempGGR0bu+NaG6A1CDZ0ygjJOmQpX3JoWHVuVcN4T62oM6qspediVZGO3PBZhtqId+qGb/8F5jHdTQ9+Vz8J6xLdTgaTttVX0pqnBbHAm20R81NqHSfqhDyfHjKqj1P0zKwlfssSHUxp23VLWhqLJP5Q+UmVvOP/pfJt5Aucqeu6ay3ogqrCsq20E1G1rXUtWwBUBaC9nAVjwRqo/+mUh01e4vfTnjWCXZt4MqfWGvadd287tKPhWmQ41GoLIhk57jp9KBL+eLhX47qE5TBSVDaiqqCLCb35tOg+pvALU3opLdanM7qLI37r18Jbu74ZuN7+38HahDsX/DQ7O3gyrfWUNVJUUVPg6dv6aOQe0722/NzFKxQajCB9wOaiv/9FRVu2XjTe0c2mGc6VC9ASfiMDOfag1CNTaG2mL3VNVQkaNjDTIR6XcwJ0J1Btxdb17mPyCDUMm2UE20Rr1VqtpW1CYsoUaH/lBoIlRr4IRvNBWqSL7Y5C+Zf+f7VqraVlTZp4p6DZfNgErCXu/fnhymHttZmz+wUTmd+/IARE7Ha3KaN+b27f8i9zcVqtPn8Fa5vwlQu90zf8Cl6lY3TUBV6Jd8KjPqad7zMQequFmrD9U41Kpq6JFhqEex7G4GVeHW1OVN2mVNJSvv9u57mAVVWHn3x/EmZv6rsF7+Hl2oXlVf2AyqwuU01R0pssUHdYFeVW2eDFXoUJuqN6lGZdg+FP1p3YRKUH+nzaCq9nF1l5+MXyye0ug0oTfBLKhVOYp16n4DLhWl9MBcv9l60Ybq1edTnLqLNTK2g2qq8JnKFvIWoqp0GlbD92q9sdksqM/L1J3Ah2Nf3b+vP91QWFQ3979lL5V6tfJU/qPbIm3VqfXQ9+uRqJFNZkJ9lU6j12WUHSpqWLYyadApU23aSe0ooZoq95G131rlKcd6qUagVk0Y471UKlaOQSZArc+wbAWVqb14TxHo0K77Q6V2KtGuNxtq9zIGGYca+V7P4JE2UW/zc1TqdlFiUNX/0e7Aj9ds03q8hKI/VTIC5Qe+LuNXyif1p7aOUQ4fpJTeKH3UtofT1onVPQW69DLfMUJJi4aqoX6F/A/bLl78nVA/0QAAAABJRU5ErkJggg==;imageBorder=#000000;strokeWidth=2;" vertex="1" parent="1">
          <mxGeometry x="1040" y="205" width="136" height="70" as="geometry" />
        </mxCell>
        <mxCell id="qcaZ6cuYOBvwn0T5m9db-8" style="edgeStyle=orthogonalEdgeStyle;rounded=0;orthogonalLoop=1;jettySize=auto;html=1;exitX=0;exitY=0.75;exitDx=0;exitDy=0;strokeWidth=2;entryX=1.033;entryY=0.689;entryDx=0;entryDy=0;entryPerimeter=0;" edge="1" parent="1" source="qcaZ6cuYOBvwn0T5m9db-10" target="qcaZ6cuYOBvwn0T5m9db-2">
          <mxGeometry relative="1" as="geometry">
            <mxPoint x="100" y="258" as="targetPoint" />
          </mxGeometry>
        </mxCell>
        <mxCell id="qcaZ6cuYOBvwn0T5m9db-9" style="edgeStyle=orthogonalEdgeStyle;rounded=0;orthogonalLoop=1;jettySize=auto;html=1;exitX=1;exitY=0.25;exitDx=0;exitDy=0;strokeWidth=2;entryX=0;entryY=0.288;entryDx=0;entryDy=0;entryPerimeter=0;" edge="1" parent="1" source="qcaZ6cuYOBvwn0T5m9db-10" target="qcaZ6cuYOBvwn0T5m9db-5">
          <mxGeometry relative="1" as="geometry">
            <mxPoint x="500" y="223" as="targetPoint" />
          </mxGeometry>
        </mxCell>
        <mxCell id="qcaZ6cuYOBvwn0T5m9db-10" value="" style="shape=image;verticalLabelPosition=bottom;labelBackgroundColor=#ffffff;verticalAlign=top;aspect=fixed;imageAspect=0;image=data:image/webp,UklGRkohAABXRUJQVlA4TD4hAAAv58NoAM+gNADQpNH4/0Saw1zeUNRIkvJbRevfDhwzg6JGkhT/atbPHr2ZGec//v/fe+7Zzmo0LgjWbsbwaERuRWFE7s4AEBBJbLzMVZXGU+Yx85hlKrJUvQ1zDfdcbBN4u20ri23b1mxAvDlBlDdd//+fCkKjgWNMjbVWRPQfFmxbVZuDvVIi4aLhiryh6c/wNVc///HzH/8NCuDwHYeY9CS+4Ro+hS0Y9f3WgFi2dV3D/P3WCBOxrk7L77Zz7IhtdZNk8PUmqYFVgn25SUbzzU4IjMiqsOxufK9JYfPzl9qNBCWN0wLgS03KGvuNdiMCo7xRHL7d5JiLbyT7QhOcJrhFwnea4NxgX2ZSoZxk32VSo4z4kpPVf4+PYQT4+U9+/pOf/+TnP/n5T37+k5//5Oc/+flP/h8SAcYv/4QFuJRSsLPOMfPB4W9L4KxzBuDP1/v9fj15o6vCWaKAsZQPBtdMp421yymHsg+P5DN/Tg0IKTmckTCptFYSTqh7f/6J6vN+shZ4vhL13IUUjxft9eIXDHKy67Yrv2tOd8TrM6YfeX5CnZqNmRWHsxEQyvht86ebxhM8X4ku1bwerAk+nx2P9+cZpdXnn8fVAghlQhqwts3Nkp9K93yPmY/8k53tZC9+25XTkp+LJP5N/RFl24lia7suq8ZPm5jb683293u993eC5/tztSDUvCbB6qiZzuMGTz70hZvbmZ6PZncUqXYS7DyES+2OfktlG5wltvb+p6zeT3o/wwGvN4+/XytA/MAXA9VpZmrMDre2vOY0bjAx2ezJ3haVavoHEyr6tzQHP3aOZL/xn4MqynNoQ3ZLwN+Pf404U0Arq83Psn8N8F2HUOP7eQYNS56Pyid69y90j5x/S7INTiXHx8+noKH1Mzvg+Xix/c0+j2vlyIpS2+p7j8kCSx1Bafq3BFwuHiFGYtSdgbRrLZr7t6w7uNH3JQZe0j358zNmNcTy/Aj+3o/7l432H/iq6WkoweAktjCWutZwod2KVFapZe0YXGhfcYknwaDjBNZCol+8ojFrJR9zo/Tz+wC2H8SvEoBhAhrCDQ5926rR7JY6tuWqzvTaLSD6t85XplNLsMvxUtJ+FHYHTckNagLPXVJdJQiFjRufYP62wGKEFalKN7c+BZsylTKEAN36d+vzEkNRjucexGAXPO+xSbLr87WDPR/7Sw9g/z7L55w5oAWv+4vJwsGRek2PKf7AdkfWtTEa+pfiKru5twm0JrrcJY4Su0LKjx8qeQ5wLCvMEvN/nbZOHdCCmwR0dmur0HWftwdC+7A2Rzv/nvESx9ha5UVk5YTB6zlbMBCzowxowe9udFa4tlZ1+5EHMcWTfUKAUJbQv8H2kxIDj/eHoOATe7zyhq/H5VyaGEsc0LbgF8l6dYTAjUc3Gq7MbqsHdO/f5BL3J8fHivS96EZecxEe9M8c0LbgZtFFBDa5tVFvsQBJH/XSlt20DzTx70bst+DmDiyVdJWZJow/r6klJhfXKmjZSbSvv5GYNtHwHhyJobwTnMK/3u5uNJfjpdQV0oo1n/cDLqEj2jYLaNva2o06R0jy9lo/Hxm/63rBKfyb1JTlTeV40RHqwlLj53UNNOcOaG5u98zKm9jqpf4ccLW4dVtPiNS/57vEUC5ix6kyX55FN+DaObK41uFsC1a3icmyQ8MKrTXQ6vloTnTnAyT+Pd8lBv78tJITwEuWLpwbXM5u6yCgtVlbLHggdM3caPh8dD6A0Ka9f5Nmblo40lIkI54zLlqy39RPQPOL4kDsSLnY3YncEGqJuvMBOvBvpkUhxRtUSco3CtRePF0wR9TiOwpom9WSUTpS1p3IDa7mmKVxPkD0b7zIXWxrvMRtHaHXvD6XLhefH3Qdbasla9CKkdsae3KDSb07ckYwqbPPZSd6PmPdJOCVpdSlMsw0R9WXgVGCutZrP28Xm7mharcj6noEhX8zul4OCAvNJX6WM+S6yQ68UBvIJCWqw81NgqI+3D/0iqz+HMmDedSdEOiGatonBGoCw+zPB3Hzb+vG53Gd3iOp593l5lV98a7PP72qd/3jatpgzBkB0m59ejeY6o2/0QVmO7A0vtlV2iu/9qq2pXbHXv90i/FZHdr0up4UYtm69a9m1ftskt0ew+9Ec7F2oDuGkbUHfWgf/Ufat3ix2rt5OC2U6/ca28odvMZjfbh+Pq7weB/9cpUwh44/85UYdvSravOZmFrPi44Fm6sEex8yQfpKrGOvzz0CRoOxzxf4eQE9w1eCH8DJIwuJqimXl+J9dwDwGP+lke4AwBjnj11xzthu9WYCScSiBwD7l0GAJwpKIyx4vj6f8aBi16sPBjcXmv3yb4rEFsJ2+nlAoQj0WBDk8dDXg107MN3xZ74fjJVM/VEJ+yMR9jpmgWYFzoiuh3jtCCU2N0+TCdufgIxnMt627azEzWYjJf2gqgj0+HleYrJ5LQXnQhFqTv1LR8TPStkzGm92kkIocwICJVQ32v95Xl+yhUOnwMCSgZN0SsZT5dsTnuyk2/kzEETfz4fGCM5GWPFnLG+Pi0u2pPfAwgAjTkhGWlQT6qqmu2b224mMN5/2s57x8anI85OrZfPKqGx1mTe7siRtRQExYJi+jNvHKMYOrW1r7Ga90PBMH4RclEPq4/MQ9h4zjdw8jqOXYzzm7uWqLFxWsq2o8Q6BiAmB/ZOxmq2eyba5RWWZBxCxPa8TGKMapmFJE3anINmPwufJ0GNdGN/sqhLc+MVSN7TdeiLjycrVN2naEXjSMGzvJJFqyEu8bicgud/HF7IwzoF3uGzE137itai4HZtTWhurWOrG2hZw/axA2qxX38Y+b4txXmjavrriOx+6MH6NFVVc4Tkef71qpBZeV31wpe2pHN7JSLuuF3ZLfuuYeJ11JA797cmzPq7cnIJWGHB48xrexxe7ZoBabEa2vC+SoWUF916NreJ1HVWHfo3DnI04PN9jaaBHbPJ18R4+dEHgSHhVcyRXDUM1ZlbHs/B/ADJ2WK5eVQon6folQbFs67uIgR4pu+HTZ5MemnshVY1KPj+JuqwYKuEak4bvNnZNNlUZWKXt1zhIhhq9RKavZIlFptfMTowz1lBDAmePZ1Qcril0Nf5Kxj1jIEJxiAnjm0MNjr279UIen4xnY8b9fmjRT7DT4Ypiq8XQAem2JN77T0WABgxxOZIYOkPCzTLq+iE8P4K5MY74+Ylq3+JmIuPfibQDmgQjE1sdkQFVSe7zfhXiFJecQHdkJDz0j23cCGOGYFfvvzXB1Z9BXP7Eaiat4HYzHmvk0PuvSA7jxeuNDOX6sKXnh+fu05vIuBuJ8/oLGofDiIK7ItkBGFQYvB9wyxDCNqn+hRgfB7HQGzlmJ77rmrKBG4mMte78ya2xbsjx71zUG8kOgubxqnjp87y18u3/XZAtHMZb3yXJGvDH85k0bTGWNw73i7UOi9v+DY2342hUeiQYlhjj0ZXXqzCmgifceeSvYg3KKe3jM0Nyf0G+3kkhSjEA2w/NGbzZnVYO7+9Wrr40hJTxMC9A4NqvdpKJI92SQwdPUDt8ipHfamT8OxkDZrA42aGNCDWlxe76JfBKK8JxNPOvAx5w15ARLUIQRfH+euXqjx6GZPBXBx0rT3S1Z8I+2cbhcS3ZHK7qA24fMjaMVfwlyCKgMPgw3AQ/OyQlVHaknsNdZK2h1V6MK1uLEJPv13j1WrL8c/gLoeudwPsYC6snd5HxeFJrdYXcCj1j9NzObDEVH/940LG111j3K3v9c+T+ZjDeTD1pX1em23bjN/SMlpic7Lb13W78FkpTXjwZyfUC83kAcuRzmTe63qQr/GnajXdactQUOHtoN57Ix0fN+Qj/4Cb2kKlXkymfc9+Qtu5220/rFsuuI6bA2Xu/btk5MZ+T5Ju3GJMmLThLFU/K5+TK2946ZPzjjHOqWOSNS+376teNwo3zkIr2qj65Hhzfn6S8ba6PmOtt7dxk7L+f1jXjBhOT66bfdVIfn5IMiKFhjrnrm+se4v4yHk8xLhpMWzFMKBvON46K5K80ejqSbtVjto2s3zfGrcrh9UEokuOUkIs/5bhoQjIz5ZMRioFUJMMIv4XIeKJyeKTh3IezjnPKxykvnorkp6ddNd/3e4m0f7v332Lcct7UWOq6HRuOm8DceJyT9p1Dyp/l8V/EOCQDsv+H/uu9Hyq6v9+fVB1ajs+IulvL2lgjgP5u45bbupmZMmvQjg0wxhP1SOwhF1ToebHGDzydtxze332c0ORudPDhOvaZ/iBuxwaGZPzA6Hq4j/d4qcBqK35Ntcb2T1UO7/V3GSd08Itsr3mNmbFEVrRL12yA/5/nFSSbVbUfsjk0xMDfPRP2xyK+0VyaohusMR4f/HQ9UKCetdOHX0CyhepJZoN0LcGePY4SmmgKGUx2DCuGTufrEdrPTPk1ZueZnNUAbwL2eH+y5W+vH9n8LOs/acquWxOg+hAbO5I1n31fH8y7xcSr5bHdTjC5TfRDPHrSbI/PsbG5RvMGH998uHpkCySfaEinf0uNQqNMBOXwepz1JoA0a5eazddP/B6azkQwmdxm220saUoyfuTtFqBgGK4d2QLVTCohCTLr1gKHtpM7eXP6GR4yOdv+NFswNHF6MbWbphxicptNEuxylp4cILucKx9Gpnsilo/h0pFty6Y4UQWZVgDcEjGMp5iVNqsZCVzLwI/zMnq0gd2JMCIPF5eDIKnpOh6rvxGBoaaqfOnI5uKYeoB8VtcoNFo/gqa695P1v94bVWONol2Sh1aara5BqwbCPB3GP+Ur8MBMPf3awdMnKkPiRthQ6EdTk1LYLvYKQ09zTqdevgVoK9s29FpqtbrEtJNZ5M93+SJfOwTbZhlBIAYZBCiXEIb0AFJdvZsIqXiele8AMdmGsZikCG5nms8DSGyVHbl2IIr4Vg3GswTa8h5tNvzqg5zK0tasjgsTswvt/GpaboAS5p8ntHDk4sGXHWmwOik49OzG2MGkbDlqEYQaLJdOy7WUaubbqe1tnD0LmvHzJMnDK2eYXjtkx6faNMgU0LWml9grZKXi6Sq3AFMm9AqKaMFxVmwUFw3KU9PfddcOwSHWaKSVGyUQF+Nss2WfUc92Q08qq55qZZuy94H2HxAA9kiX+PXBoPqqYEr2XDsEv/TSaIpQLhTRkRtjtwsrxdUSWtjqo41I1iIWE3xPiyWWreuK9Qor2UqWfOPioacVCWRi8s0wsGiJtrgtdpXzWq9V2MnafAYu58TH52yBFvIF7DigTF+IpY+7bkpFWNXVrSnpM+Uwv/w2GkpLPa0BMjDqtSUIXV0pLk3oUarRp8mg0lDZA7MwchcOYna2n8WtLEwwwyhoVi60pCFahczT3dBdX1cKWM1M+Bov1yx5lZg4+sBSaYqSjg0XT3EpulxaSNFyRb8ZJ1r9uNejF6FYmrsWcVG4rjSTpYBVgnWpe3/GbOoesj5c2sjsbaEyH8hGbhA4Uo69duPGup6zz2TgUoetfgqcvNP7ywuVNRodKa3q6G21Xv2PSk2Hi3NO11HjRnsz72rxlzbX8RLhMv58F0vfsOe77MiNpXg5b+805T2TJigIJsfYrcaErWYKnJ0L87zhC1G49qZC7skUqRkP6+9+zmDe9Uqk5+YG3IGu+YK0jeWGMIbbS0HO0rlKggFUBfOcn3t+XtlKdd3NdJKF+n5XPZfdYJrn+1PUPeBEi0CHWROuEy5Z2ZYsOtk5rnBSNIqmVaDbKiFwd+OUbadA4kZeN0t2qlVjPOXfLABitK2gex50N5k2yUA+hyOoqTj7LTuv3DOdaZCxhZ1tS7wLp8p/jSkx+Vqvt5t6vD6f8XPCbCV2DObeKHE+L8/WWnPGL3IdT9ZxJR1dbJ3+xsrFf50zJYrJxTpntTihlyH5G8GcNNr2TP4iJcOdp84IGLhU5/0ypsUeUocvmoIo177m6uc/fv7j5z/+XylEWbEvtW5aykrxr/SXAlVt/ymrMH2l9/N/MMr+/Mf/tIJ/z8n/rcbPfwy/n/Ptf/5j4N9z8psdX1uwKiUWHKCKU/hi/vfhWF+lVhS2Okad4l9KKP+f3lRQ7CsJMP/pT01fyp3rEPp/fGH/m4P8GjX++W/8W8P4e17v/Vvejo38UjZNx+Ska9TicBJE1ym577+UGxcVlGPbma3jlMPwjVXQoN3475Xu5/84Kvj/3pKf/9Z+gVr7+Y/h53++/c//fHuuUTDf6XWP8wg4NXyld8rYgnJGseE7rQCGPP2aq5//+PmPn//4+Y/fKvj5j+Hn/99MTul5MbtaZj0pfjIfT7uPD15u5WMuVcp6Bdty0vPBb1OD/yRJmVySDNvEXIMqMC3vvrmiTot13oewriF475yZlagIbKSBBJiaJshwIbXE+NhYF30cvRx9vEyiWh4VQ7hQB9bDGjQOIHXmtCZn1RrKfwQiqXdf+cRXh1NjjZmpOoBmBabDkWl52/UerWbjwuptvI/Hm56NXDiDvqdL6wzhxpR1cwZi8VNRVkUfBxe9nPrY71yYuc46V94AhvWd83nGfScQ2LRYH1aXPa3r6u0ySUZy2ubIc7AmYVrPO9supGwLgv7hU6Y9jml+xx0htQ2rM5OSUiRKSqkiL97OKDkCXAc/E0ZQbLAyA2k2XfKxX4PVSua8rNQSeZlF1bhogoX813hi9UarA+OAkhBuDW7J+02qOZ5WQyAixJxcEpVekuypcevqFsVJmF4wTKfn4XbTiMmEYHeT5POeu+MnBt4oZMBZnaIbq1BwEoYc1hxAGb+6ZZLi+H0+gITDo48FHjqHKIzcrFLWAf0ln/C7iWApWwl/wIRMORYE33+jeEnYkPFWYg+EUibUsi12poNVKpF4WT8fmI4S9GYzXfxqsessIOTsVjuhDKWJkQMi4eXjAwIOICYX/KwEQ/vYzbIeoBLhIepGVhKCmQRC9gCAiDzVMS2m3fMT+vyCVHZnu4JroQ9MA/7fOCvcahtIE8M4r7sXLhL1tOxw/ytHOP78IorI/ssGWF3jYxN9XAuh3M66GKDu26Rlk0CO/186DU7jQzmffLAKanwVYyL4TejINILnQhzqVtuUQQewY/RWzC4YiTlm8n4GEukVmUZCLhWC7cDY7uNF1EFoX/vfX8AnFyVE5Xn3Hn3eeZShtU9FcvHoU8MnEqZvtI0pG9zEa9PvtPcLIsoA6fM+xUFWDUiI+FObfJb6uAYw+VD/pRwORkF1KMdv0iYnjUBGIM+essFIEqY1v8d+pAuWILkZuw3CEmwxP2AakOBq/2H1WQRz3PAAGZ9ZKlPvvDdyoAjlOBELTNOkcUoTcNzxebWKJpZl1T1WJscEF4uZkGwzwz3y78fUHhRmgQRT0SsUJybe5NEAYbyt+4H0Xg4UCaBIERFPGs0Dl1tnjmNak1z4ya130Y7iNs/o8uQQRlx7Xxc6QCZxZhyYdH6BgQD7FqzAgk3eVwpHuZDdpaVZjcCE/dVKsmuC8B3o1RAxvdxiO5AV93LMs4G3mCgDX7yvMuLJQUgIuuxAkM4bjoSwtekKTAc3kSWCOswFEMs6D0DEdJhxZ5eOaX1/QdpgGV06oUfFOIDvnFcYsdk7NWBDniIM+mLaWQQU+ORdpRlp0BUoSais11RML+sCGIFFdF6ZMKuG26v4nQ6OsL4XX7zDlWSNOW4Vz7xhGrCQJixUPk6jHBzzoGOFqTYzK2HZ/+REFD2hPF1JwwmT1Dd5useA+GBxe+2dXxilNHK42HnNMUzasEg0FOnTMMjgNcMQ4S2vDPXeTaTFFxBcTsFKqhODijToQCc1JufU3WVnivnulGzO3u8xBuQxyFCXpGxhIUymaA9ZGhnHRIEmr1l1LF4MA+nOQDF2YCQhz3PD2IG0Qd9eryd72p3iA/IYXFW62XsFWEz7XtKeofhcU4a3rjIvcUqezEl3q5VlolqCMBIizXp3QQXqiCo3HlcYBpJjcAcpGLBY9P46tWRbeBnBm0rpOO978qenUkKcihF5wgMbGu+Yb6+iOcc95ZsI7P9Pj584prTpHrzRsJZcss3BoVBbXD6zp3wTU8ZEx3IZQCuctlsG1Ale5BLJBcWRIcS7chNUNdnysVpeWBh9+QLFyqj9fQ5WNohXSSg9sM8D2YHLhJGvE51/F3VzYTXkBT1Z/BWd42ZkMcc+5rXhETz5k7Cw+69FVBc5WNaJNUgnmbNgYlmNIIvoCIF6KqJiGri4awrcksZxyaG9QwKKxefZ5GOMowINipjy2dsyaovrShsU/ZVYSr/CFMsQtVOaMtUFbq6ituVSZlRlQyU2/JeOSQvtVGHh5IhJEmXoOmjn6MFjG1jlGq30tdKrzv1t165sUm+jxQsMfw/OhWeelJmvwjo3qQAgGW0RwqVF6AZVTGrgevUNm5/g8870HbgxvRpBD7BBc4LCrUyHWBC2BsdXqN9U8yJEFYTZX2kgPn1JZoFYmsoIudxdG21WM30IXHzF3TlzDE9r2lTh0EJt2zIDQgdb+8qqWlwL6ycoPlStflHNntsTpuXtB2lCE8xJexIVx2h2qFHDKaq1tDgQDXyCZAPE5jIWhmjNKzglRRMD4JFpG5m++eB1m2/UuJO1VUohbWe6P7DJO1oyOSebxK28YZhvZ1/SwQPVd7oSw3Ts5uLWMwBpm+RVsWlHZQ0UIeakjm0tFtEEnhq2GVDfzj7r19SAk1/cQWSZZnedzTa1MEFV3p5jC/EqyWerhh4aQFFj9qYJZm8ZrvfJ2Tif9PkkG7zEk/7ywm6QMH3HwVslGqjJ+Yiq3hR8bG2uQwCTLSDolZyDZfgCtdEghCRGQC4mWMr0emT6doN3toFy/gh87n1Slb5HApwaS2hyVq2rKMMLaUe2h5cm6m/TDezyabZHptXN9lW8mULwTVQlWIQVQ5cYyGGanVXL6ootiKOY8G5WQnCgfUlOy4FpmzJ9l2F1y9xGicqCbN4Fw/8QsI1Oq2aVQgIOL/mojBacAf3XmrXA9B1mLRa3BdaCVmaWe6/l/gL/A/wCsbht29NaFVkCxjIvGSXyQoKQaZ9h+h47pD+v2LAkAy/Q7A9gbem88goA40It0cBq+i80KLAc05MAuL/guoOMld8PNWnY6QGZN+r60IOUcHMTHyYGPjItbi84N/WXomgVpH08Wd5l+RxH/Ub2HCXaudAuNIuRQcq0kXcXrO8Nk/OaZZqj570BmKaGPglgFxJJHmarLWXaqturMWnd3UEzzxTT8Zp3V39m8Za+XP2JetNxDWUEpEzfXfXk5q6K6ScH5dujVLwKlh7AY8N0berJncPS1FRGCO2DkTdhs3R0vQpDtgJ5sKKzeu8iNllNXe/9RAChfctsBTHfW2MmAZjWFm2ugUCPTaTULB2AjI2y1bVj06a9KiAFN02GLcCI6q3iB3fWtKURq27HdukWI/B9hwtEV8iip3bp0q6XEegt455Js2Qgpkw2HWXP6y2ZvhnfiikfJO4mbzEx3tn7ide0MysaHGk4Br29lZiDLYyWkvbpfs0/IEm7KeJYiBG3lsUw0wPZXBUkQ6LADrimn3bjhfMzNSbnFT2MzxG+bFPDPvK4ocUw3VtvInSbfmAWFGZcqj5LhkSDh5vIY/LBS0YMmTY027IDx5kavnAqF1qA8u7mesEpcrigOW7cMsckAMwxWDi3cOoksjiUAmIMy2okOYJTeWhGXQyiAIRwq+9q8s761XnyXyWue4gkSb8m8R9bDm92ir7VeEYOTX9zZipYkQWxfJKmcBHJh3Zgvb65cu4tb1AWDneQwN/94zHY8RX4mTrkOwnkkPTjCpK20NTW7jFFjYadxEpzbwFi/Ji8t6eJY0qX4GvFQVo4DwnpDCf1sI3tv5IDZupfIT4/Fcc6Qx0VKDGtqOs43F1F6xfSHdeY4RWwTBH6iu5bOXJcNLOfqEM+IFFteQLqXlqLPUbNtI9SbirKUOo2f2+w4YwR382zoKkSB1H8MOQ4pzzlTiZ7PPqpp6N8IdIOyUAi2zUjADPpC6BusLpygfJlngyZACFyqhlPxhaIwr5bGK0YrAa6dCDly0n3NYhTRjx4Itpe1zEDqrq5tuA1EHZi6heOSeCTQBBsFW4cktI7qtg8xPwIGJoANGGBddS4KCEZayxlNcGl+KhPuINDSal7y8gQ7pL0fEAUdi9lT+NHv44bV+xMNq7YWM6HDUjQ1MUnHQ0BlB92gp+Iy0AUdxNxMby7a+eDIdoEaqAz2SZlaxufnXHt0knjDYmRNDGgtsIwkdXIg8QMWZefjO11AbLR/aMKLK4z3GLjAafZxOL9zAFxgxckgW8KTuPan5SOZBMzdq4PvITmVW+lwaWEwhQCkZFYUDJQB78IMj/fX3uAGH6X+g2Sn5JZbjzuFEwHp1Bg0nsjgWAaDzMf2hGIgZdiU0ldH+QZoylHhD05ckHJNqzf9C3W/VM6IY76W13yUwzg3k2E6Vu2PG+2wxasYgQeHhpiYDRbxcxkQC6BYiQUcvHrgi1X7GYapmc+3Eeo7outbjKIICYbMDVklPdk4QKSGXWhAMmkYKq4V+nE0ppi4NKGyhGPgJyTmcnUTDXM1OZH4CfFBUya9TC3wHtwRl0gZl819UqhlthAIqJgjiVto4InnbGj+odgMfTjhZtMZpcnhjpQaWv+b3FAauODlrzmWywfua6J7MjZBnRUB3jKtIQK3eyykvsOs6BMCPm52BbnhetniRwyBXFZVqcYBgByTqe7yRFibY63WCmG5kj/R/48dja80XNRhlVzHeyMm+du0pVjiHxXMD25NTKNMgCZMG2n2+qn4pa9H6AnKUWuqUmltfGrn5Wom3EOZX4Z4Oa1KlT0m10mJUXOx9PiwprM2q8JMCMemf0a3KyVzMgxJpTSSQDXktdz7dbVmZ3tLNdSqmk2ycmRovI/saqaaX63rW55ckdNpmud+UtgGxe2ELsIr5y7A+ExwXBsv24yhsHdh2Y++NgYm047WdS27EpaJSDes7fgTMZvetn9tnkzKU7C9WR2JoOzOa6NtX5dvdWK0zC9Bnf08nHG3cmZTXR3mya5efuwbtsWzbfVOzNPyDAulFaCXoBpzfD9N4rdy9aF7eDl4J3VSrLax309Ae0zkZySqalvudNqF034P1YrlV4Sto98J9NkTyIH1b6HgckpFdYIptk9N/ApgBjOtZ7neVnmXU2qJjLbqhdhPKKXpYo+npP54U+5oNePxyERElPiN3PwXJy5MiXb4sC2Tq+KVkoS8g3Jac0wrfNM33QvHR5cRWSg9vPfGng/M3H8/6ftVYQexu7d+J+7gItmXj4wfZ+rv/o8VGLU4UuO4ec/fv7j5z9+/uNfOLYvOcS0qO84YPiaq5//+PmPn//4+Y+f//j5j681Bg==;imageBorder=#000000;strokeWidth=2;" vertex="1" parent="1">
          <mxGeometry x="230" y="205" width="166.67" height="70" as="geometry" />
        </mxCell>
        <mxCell id="qcaZ6cuYOBvwn0T5m9db-11" style="edgeStyle=orthogonalEdgeStyle;rounded=0;orthogonalLoop=1;jettySize=auto;html=1;exitX=0;exitY=0.75;exitDx=0;exitDy=0;strokeWidth=2;entryX=1;entryY=0.75;entryDx=0;entryDy=0;" edge="1" parent="1" source="qcaZ6cuYOBvwn0T5m9db-13" target="qcaZ6cuYOBvwn0T5m9db-5">
          <mxGeometry relative="1" as="geometry">
            <mxPoint x="670" y="259" as="targetPoint" />
            <Array as="points">
              <mxPoint x="796" y="260" />
            </Array>
          </mxGeometry>
        </mxCell>
        <mxCell id="qcaZ6cuYOBvwn0T5m9db-12" style="edgeStyle=orthogonalEdgeStyle;rounded=0;orthogonalLoop=1;jettySize=auto;html=1;exitX=1;exitY=0.5;exitDx=0;exitDy=0;strokeWidth=2;entryX=-0.007;entryY=0.386;entryDx=0;entryDy=0;entryPerimeter=0;" edge="1" parent="1" source="qcaZ6cuYOBvwn0T5m9db-13" target="qcaZ6cuYOBvwn0T5m9db-7">
          <mxGeometry relative="1" as="geometry">
            <mxPoint x="1030" y="233" as="targetPoint" />
          </mxGeometry>
        </mxCell>
        <mxCell id="qcaZ6cuYOBvwn0T5m9db-13" value="" style="shape=image;verticalLabelPosition=bottom;labelBackgroundColor=#ffffff;verticalAlign=top;aspect=fixed;imageAspect=0;image=data:image/png,iVBORw0KGgoAAAANSUhEUgAAAYUAAAFYCAYAAAC8g+C5AAAgAElEQVR4nOydeXxU1fn/IYCgAu7Wavv1a2tXW7/tr/12sbbnuTMhmCJo1ahf19aFrufcmSQEUNTrWner1Vbcl1aRup/n3skkgQEMASGyh33fISwhIfvMPL8/7gxG1oTMzSTM8/b1+Udg5sw5zz2fe7bn9OrFMAzDMAzDMAzDMAzDMAzDMAzDMAzDMAzDMAzDMAyTcoio9+EUrMg7Xjq5ZxSGc848lAps37nS8X83WGxc0B4VhOHbRSVDzj7cZ0on94zxlSP7Hal86a4/hmGYbslEyuszvnJkP+nk9g9W5B1fGM450YrAwNGl2SeNwWGn5Nv+bwa17yem7fuV6cA1JsINyobblA33KDTuU2jcJ7V4WiG8LTVM2CcUH0ktJikUkw8tmKkQFrZbWsyXKKYd7jOlFpMkive+WBbjLYXwWLK8pg3jlC1+ZyLcoBCuDaL/l0Ht+0kAs78TiMDJo0uzTyoqHzGoMJxzYsLc+o+vHNlvIuX1SXd7MQzDdBoi6m1FYOAoG86Sju/rARt+oNB3kQoZ/oANvzURChQaTyoULystwhKhXGmxTiJsUSi2KxQ7JYpdSotaqaFOIexVCE1Ki2alRbNCaJVaULcWipY25W2SGuqkhjqlRa1EsUuh2Jn4rZuVFusUiulKi7DSxivKhr8p28gP2PDbIEK2aRs/NUP+C4OY/bVRNpxVGM45kUcfDMN0GyyysqwI9E2+7QeL4XzT9v3KRLjBtGGMQuMZqWGCQlEiEWYrhDUSxS6pIaq0iCktYhJF/AtKdyfeHdSmPvbVk4ao1GKbQliptJilUJS4oyTxtNJGkdRwvXQMkR/O+apVOfwE6eT2tyLQ1yIrK91xwjDMMYoVgQGF4Zwzg8VwvnSyfxiwxf+ZNoxTCP9RWsxRCBvcjkvsUQhN3Ml3lYFAo0SokVpsc0cbMFehmOhOtcG1Co0fScf39VE2nGVFYACPLhiGaTdE1Ds5ArAiMLAgDN82bbjUneoRz0ktHIVisdKi1p2+gSh3/t1QKOJSQ1QhtLrTbqLKnZaCZ5Vt5AccuLwgDN9OrOXwiIJhmM8ZXzmy3xgcdkp+OOerQRt+LFH8USK8mpimWKU0VCstmtPe0bFSosTaxg6FYpVE8anSxiumDb9XaPwoqH3njC7NPsmKQN90xyXDMF0AEfWeSHl9AhE4WTrZP1S2cfW+KSAUVQphb2JxNJbuzovVVYKoRNEitaiXCPOUFv82bRgXQOOKgA0/kE7uYIusLJ52YphjBCsCA8aW+U8zQ8a3lC1ulAjPSy0qpIYVCsUeNgDW/kpsAtiViJGpUounlS1uVHrIN4LFQ0+VTm7/dMc1wzBHwUTK65OYDiqXGnZIhMbETpa0dzysniOF0OouaItdSsMUiRCwIjAg3fHNMEwHsSLQV2nxbx4NsFIqhPLRpdknpTu+GYbpIFYE+ko03mJTYKVSCsV0NgWG6YGwKbC8EJsCw/RQ2BRYXohNgWF6KGwKLC/EpsAwPRQ2BZYXYlNgmB4KmwLLC7EpMEwPhU2B5YXYFBimh8KmwPJCbAoM00NhU2B5ITYFhumhsCmwvBCbAsP0UNgUWF6ITYFheihsCiwvxKbAMD0UNgWWF2JTYJgeCpsCywuxKTBMD4VNgeWF2BQYpofCpsDyQmwKGYQVgb6F4ZwTrQgMtCIwsDCcc6ZZ5v9SUmNw2CnJP7MiMIDvbe3esCmwvBCbwjECEfW2yMqyItDXqhx+gtJDvmHavl+ZKPJMLW5XWoxVtvGQQjFeaXhRaeMViVAsEUolQqlCUeJe8A4vKQ0vKjSekWjcrWwj30S4QYUMvxnyXxgsHnqqFYG+Eymvj0VWVrp/dybDpsDyQmwKPRirKu+4sWX+0wrDOedJx5djonGH1DBBaTFLoViuEDa6F3SLeokifnQBAq0KxR6FYrNCsUppMV+hsKU2HjW1cVOw2LhglA1nWREYyCbRtbApsLwQm0IPgoh6W5XDT1AI31O2cbVC4z63gxabEhdvt3RJB4EirhBalRbNCsUeieJThfCSRPHHQMj/87Fl/tPYILyHTYHlhdgUujkWWVlF5SMGmSHjWyYaf5IIKDUsUVrUHu3bv2fBpEWzRFgrUUwzER4OhPw/DxYPPdWqyjsu3fV4LMKmwPJCbArdFCsCfc2Q8S2p4XqF8LZCsTkxGuhWRnBQoYi7oxbYrTR8IhFGK/RdVFQ+YhAvXqcONgWWF2JT6EYkFooHBkL+nysb/qYQ5kqExnQHSecFUaXFOoniI6nh+sJwzpnjK0f2S3d993TYFFheiE2hG0BEvQvDOWeaaIyQGiZIDTskipZ0B0fKhSIuNdQphJnKNvLzbf83J1Jen3TXf0+FTYHlhdgU0ohFVlaweOippm1cJxFQItT0iOmhVMhdFJ9j2jAuiNlfsyLQ18u6JqLex5oBsSmwvBCbQhogot6jS7NPCjhwudIinFFmsL8QGhWKKoVQaJZm/5dXHfcoG84KOL7cY2lNg02B5YXYFLoY6eT2D6L/l0obrySmiTLTDA4IRGiSCOWmDb8fg8NOSWXnbZGVJVH8UWqYEIjAyan63HTDpsDyQmwKXcREyutTYPvOdc8WwBqpIZruxu+OUlrUKi0+lo4hghV5x6ei7s0y/5cUwkyFsDJgww9S8ZndATYFlhdiU+gCrMrhJyjbuFqimHZMLiCnOii1iCmEjaYN44Lad05nRg0WWVmmbVynNOyWGqKmFrcfK2sLbAosL8Sm4CEWWVmF4ZzzlIZnFYrtPFXUweDUokFpKFPoN6ST2/9o2qAwnHOm0uLjxNmJuEJ426ocfkKq2zodsCmwvBCbgkdIJ7e/suESiRDh0UEnAtQdNWwwEQoKwzlndmTUYJGVFbDF/0kNdW0+b10Qs7/mZdt3FWwKLC/EpuABweKhpyqEwkTKBx4dpERQ557shu+1N69SoHjol5UWs9q2gULYq9AY6XUMdAVsCiwvxKaQYoLFcL5C8ZzSojbdjXvsCaJKwwzp+HKOdK5hfOXIfiZCgdSiXmmgu0uvI6WN5Mjj7VQtYqcTNgWWF2JTSBETKa9P0IYfS4RihdCa7oY9ZoUiLhHWmgi3FoZzTjxUewQw+ztKi/lSC7LKbqTKddPojnBeIuhhoXT83+3K+PACNgWWF2JTSAHjK0f2Czg+n0KYy1tNu0BuuowdCsVdweKhp+7fHoXhnBOVhn8qhNYAZlN4yUTa07iLXp51f+IzoE5p3296+kE2NgWWF2JT6CRWVd5xpm1cqRDW8PpBVwcv7JUIjxeGc85MtgcR9TZR5CkN1VILemyKoq216ykWj9LMNZPJRF/iPgjjyZ4+hcSmwPJCbAqdwKocfoKJcGsiAygbQjoCWIsGhfBm8jyDm25cVEgU8ULn11S+2qFoPEpEROt2raB7y25K/rv5bc2kJ8KmwPJCbApHiXsDmpDJN1JWGoNYi2aF8C+lh3xDafFE4i4HerPyKapvrqMkDS119MrMR0hqIKmhzrT9Q3ryFBKbAssLsSkcBcGKvOOVDX+WGnakuwFZyUCGJqXFnOSur4cmj6Q1O5dSnOL7TCFOcSpd9h8K2kMSWVrhrz352lA2BZYXYlPoIImtjjdILbalu/FY+ykxhTcqNJxmrCmjWDxG+7Nm51IaE7rKDX4Nn4wt85+W7pg6WtgUWF6ITaEDTKS8PgEHLudF5e6rAA6hjxa+Sg0tew8wBHcKaS89O32MG/xarAs4xi/SHVdHC5sCywuxKbQTi6wsMwQXK4SVbAjdUyb66NVZf6Wd9dsOaghERK2xFipZOpGUBnfKCY2RPXUKiU2B5YXYFNoBEfUOFhsXKBTT+QHsnlLaoCemBmlTzZpDGkJyXWHF9ioqCg1PPADwkhWBgemOsaOBTYHlhdgU2oF04CsK4UM+mNZ99XDkj7Rmx1KKH2QdYX+2122mJ6aaiX8LS/LDOV9Nd4wdDWwKLC/EpnAEpJM7WKHxpEJoSndjsQ4moPvKbqGqLZUUjbUe0RCIiFqizfTu3BfdKSQtGkw0hlIP3JrKpsDyQmwKh2F85ch+yha/47MI3VcPTLqtQ4aQZOa6Mip0hpFCaJUIj/fEi3fYFFheiE3hEBBR70DI/3OlYWm6G4l1MAHdX3YLLdo8u8OGQES0qWY13VVyfSLBnphWVD5iULpjrqOwKbC8EJvCIRhlw1lKg+YHrvtJaYMenSJpydY5R2UIRERNrQ307PSx7mcirA1q30/SHXMdhU2B5YXYFA6CFYEBpg1jpBb16W4g1hdloo/+Xj6G1u5cftDDae0lGmul8NIJ7h0LCHuVLX6X7rjrKGwKLC/EprAfRNQ74Bi/kAhr0904rC8qaA+llz59gLbVbmzXLqPDE6fV1csoaOe4WVO1eMKKwIB0x19HyFhTQNGiUOxUGqq9lESxKxN3HLIp7EdhOOdMhcLOuAetm2t06DLCqn/T7oZqojb5jDrD9rrN9FDkNvc7ECKjbDgr3fHXEbqtKbj3XUTd/FKiWSI0Si3qFcJepUWtQrFHoaiSWnymtJilEP6jULwj0XjLRHhKITygEB4wUdwrUfxRIdzcVqZtXBdwfLkmGkO9VACNYSbCDft/v7Lhz8kyKoQHJMLjUsME9zeI95SGGVKLz6SGJRKhxv3NsFdqUS8RGhMJHFsTddTtDsKyKbTBikBf0zZUogHT3jgsd/3ggUm3UuW6qdTYWp8SM0hS31xLb8x+wv0uhBqF8L10x2BHSLcpuB2+2KUQNigUyxM33VUoLcJKw4sK4QHTFkFlixuVDZcEHOMXgRD8d34456tmmf9L0sk9Qzq5Z4wuzT5JOrmDpZM7OFiRd7x0cvsn1R1Pm1tkZbUtY6LMg6WTO3h0afZJBRE4XTq5Z7i/Eb5SYPvONUNwsYnGUFMbN5m2CEqExyUaLygUJVKLCokwT6FYLrVYrzTsVlo0p+2ZY1P4nHzb/02JMC/dHSHLVb6dQy/NfJBW7aiiWOJOhFQSpzhNWvpR8uKdFmWL33XHTuhQeGkK7mcm3vYRmhSK7Qqh0t18Ac+aNowzbfh9AI0rTNv3KzPkvzA/nPPVYEXe8RMpr89EyutjkZVlkZVFRL2T+kL5E39ukZVlRaBvUuMrR/azqvKO+4IiMOBgKiofMUjpId8IYPZ3UiGlh3xjdGn2SYf6vv3LNb5yZL+2ZW/7m9r+1rZ1kPzzZD25pgJfCdrZ3w+i/5dSw1WmDb9XWoyVCM9LBJRafKY0VCuEJomixctRBptCAqsq77jEMDDj5hC7m5Q26K6S62ny8g+opmHnF9Jfp5r5mypoTPHlpLSIKW28Mr5yZL90x2J7SaUpuIczYYdEWKtQVCmE/yhbPCLRuMUMwcXBYjg/qH3njC3zn2ZVDj/hSOc6Ep3lwGDx0FPNMv+XCmzfuUHM/lpBGL4dtLO/L53sHyaSS16bmJa5U2q4X2q4X6EYrzS8K1G8507HiI/d6SZYcoBQLJMIa5UW61IhibBWolh2sO9KpGb/OFkuV/D3NuW+y9TGTQrhWmUblyk0fhS0s7+fb/u/GcTsryVHSMHioadaERhoVeUdd9j2JSurMJxzYkEETg9q3znBYjhfoe8iZcNtCuExhRBSCAuVFusSpp2SA7ZsCgmkAz+TWqxPd4eY6SpwLqEXZ95PK6sXUUu02TMzSFK9dzM9UHZ7smOs7EnnFTpsCu6CekxqiCbmuRcqDdpEeMqd5jEuM0P+C4PFQ0/d9waceNPv1ct9202+4VoR6Cud3P5B7TtHIXwv4Ph8pgPXmFrcrrQYq2zxiNLwotLwrkJRIhHmuZ2t2Ja4+6JZomhJjETc+fWEXIP+XN1q3j1Rh/vK1qbcUkPUPQyZ+F1aNCfWDzZIFMvc9RNRojS8m5hee8y0YYxCY6SJIk+h3wgWGxcUlQw5e3zlyH5tR1z7t0FyROVOvWX/MLH+USAR/i5RfCQ1LFIo9iTrsyN1yKbQy71FTWrxtBuc3SDwMlAm+umhybfT9NXFtLthh+dmkKQ11kLPV1gk3aypG4I2/Djd8dhejmgKbgfW7O6iEeslQkRq8bRE45agDT+Wju/r0sk942CjIyLqbVUOP2EMDjulqGTI2dLxfT3g+HzKhj8oDX91vxdmSA2LpIYVCsVmpWG31KK+W3Xi3V1uGzUk2miTW5ewUCHMVAj/MhEeNm34fcDx+YLFcP4oG84KFg89NViRd/zBpjqlk9u/IAKnJ0Z2PzERbjDR+EdiQX9DYg3osCOKjDcFIuodtOHHUovVaQ+QDJRCg6zSG+mDBS/Tlj3rj/ow2tESjUVJV71GJvpIaVHbk84rHGAKyV0/WmySWlQobbyhbLhH2cZlheGc86zK4SdYVXnHtZ36ocQ89/jKkf2KSoacbdrGT6WGq0w0/iS1eFqheF+hWJxY/GxI7pzpdjuejkEpLWKJum52jQNqklNYCo0nTdtQAQculw78LDm6aDuq6NUrsW5TlXdcYTjnRPe6Wt9vTDTuUAhvSy0qpBbb9l+fyHhTkE5uf2XD3zjIuzrgDRodupzenvN3WrVjMbVGW7rUDJLE4zFauPlTCuAQkhqiyhaPWBHom+64bA9WBPoqhJeUhq0SoVzZ4hHTgWuC2veTAtt37sHOXSTn+gsicHrAhh+4b5LwsEQoVlrMklqsVlrU8vPQA4QirjTsVghrEiOBD5UWT5i2cV2+Nv5nbJn/NCsCAw82ErQqh58QCMF/Swd+ZtrGdQqNZxSK6VKLbQpFSUabQmKUwGsJXSSFBt1dcj29NutRWr5t/iFvSOtKttVuojvCiSs6UbwfLB56arrjsj0QUe98bfxPYTjnvKLyEYMOtoXTIivLLPN/SaHxI3fxEwqVFv92F5PFHulO97SkOy5YKZCbx6sl0aa7FMJcpcW/TYSCABrDAjb8oDCcc+bBYsSKwADp5A42Q8a3AhrgSIvgxyyJLKiP8EPhvUz0032Tbqb3F7xMK6sXUVNrg6e7ijpCTcMOeuqTQPLBWhAshvPTHZtHQ3J7Y0EETjdt46fuwS8xXiJEFMLKxNw1z/dnmtx1i9rEQv8khWK8suEPZsj/v8nttz0xS7AnuHNsYk7aG+0YldIGjSn+DT05LZ8mLX+PtuxZT02tDen2gANobK2niXP/mSx3vXTgZ+mOzfZSVD5iULAYzjdt368UGiMVwmsKxWKFYqfUop63WLMOFESlGxs7JIoFCsV4N3Z8FxWGc84LVuQdn+64TgsTKa+PssWNfHlOaqU0UNDOocem/oU+mP8Kzd9UQbVNuykaS/3hs1QRj8do6nKHFBruA4PGLT3hzWki5fUxbTFKIVQqFHu63fZNVs/Qvm22UK00zDBR3JuRxiCd3MESAfkh6pyUBsq3L6E7iq+mJ6YG6OOqV2jxljlUXbeZmqNN6e7v283cjdNpVOhSd8eHDX/rCXOq6U5zwTo2lbG7jxJb73akuwF6loAUGlQUGk4PTb6Nnq+w6P15r9C0VUirdy6mxpYGao21pCCDadezeudiuqf0xuSOjik94U2JTYHlhTLSFCyystxteJm5wGyij0z0k4l+Cto5VGDnUoGdS6OcS2l06HIaHbqC7iz+P7orfAM99UmAXvr0XvrP/H/Q5OUf0OLN82hV9RLavGct7Wnc6UlOonSwu6GaHosEknW0vidkTGVTYHmhjDSFUTacJVFMS3fle6F8O4fGFF9G90/6LT00eSQ9Pa2I/v7JWHp15hP0xqdP05uznqEPFrxMetHrpBe9TpEVH1DF2hBVrC2m+Zun08odC2ntzqW0t6mW6pvqqKGlnhpbG6g52kStsRZKVdrq7kY01krPT78v+VBsN0Nwcbrj9EiwKbC8UEaaQhAhW6HYnu7KP/pGMyhoD6Wi0OX0UOR2emXWA6QXvU6frplCizZ9Rsu2zaf1u1bQpprVtKthG9U0ViemdeIHar//MpVYPEbvLXjezZiqoc5EuDXdcXok2BRYXijjTMGKQF9lG/k97UEy0UfjSq6lv00torfn/J0q1hTTlj3rqbaxhhpa9lJztKlHzuV3F2LxGE1e+T4FMDtxs5dxX7pj9UiwKbC8UMaZwujS7JOUBp3uim9f4/hodOgy+kfFnRRZrmn59vlU27iLYvEoxeOZ+1bvBfF4nBZsnkH59iVu/dvi9e6eRptNgeWFMs4UCmzfud196ihoD6EHJt1G785/nlZVL6baxt1dniguE9leu5lGOSOSD4Y9tsx/Wrrj9XCwKbC8UEaZAhH1lhquUlo0pLviDyYT/fTEVJMmL/uQNtWsptZYa0bP83eceKd2Q9U07KJ7Sq93Hwwt5ig95BvpjtnDwabA8kIZZQqJrahPdbd7E0z00wOTbqPIio+oum4LjwqOktqmnZ2qu9rGGnpimnTbBWFtoNj3/9Ids4eDTYHlhTLLFCIwsHttRQW6I3wVvT//JdpYs5rNoBPE4zFauWNBYtvs0VHfXEsvzdq3LXWPaft+le6YPRxsCiwvlFGmoBC+pzQsTXelSy0ogNn01LR8qtoymxpb61PYPWYmexp30cKtMzplCk2tDfT+/BfcB0OLWMCBy2m/y+a7E2wKLC+UWaZgwyVSi23prvRRoeH07rwXqHrvForxNtJOE4/HaPHWObRu54pOfU5LtJmKF7/jthOKuEIhu/OFO2wKLC+UUaZganF7elNbAN1Vci1VrC6hhpa6FHWJTGNLPenFr9D2uk2d+px4PE4zV0fctnKvtry/OyfGY1NgeaGMMQWrKu84ieLB9FU20KNTJM3fNINaee0gpSzbNo8+XvgGNUcbO/1Zc9ZVuCm03ZHC+O6cGI9NgeWFMsYUpJM7WNri9bRUsgZ6alohrd6xhKeLUsze5lp6e84zVLl+Sko+b+Gm2VTo5CZzzH9cGM45Md2xeyjYFFheKJNM4QyloazLK1gDPTk1n1bvWMyGkGLi8Rgt3DSLnpgaoJ31W1PymVVbPqOi0PBk200pKh8xKN2xeyjYFFheKINMAb4iNSzp6gp+bIqiVTuqOC+RB9Q27qZ/VNxF785/vlO7jtqyZOscGlN8mftwaDFHOrmD0x27h4JNgeWFMsYUgpj9NYlQ05WVe0/pDbRoy+xj5s6B7kQ0HqVPVtl0R/gqWr59YcpyQa3ZuYSs0huSD8fmMTjslHTH7qFgU2B5oYwxhYANP+jK9BaFzqVUsbqEDcEjNtWsoYcn/4lenHk/7WnclbLPXbtrGd1XdnOyHbexKbAyTRlhCkTUO4DGMIXQ1BWVGsBs+mjha9TYUp+yzor5nPrmOnpn7nM0yhlGFatLUjo1x6bAynRljCmYaIzoClNQGui56XdS9d4tKeuomM+Jx2M0d+N0Gh26jB6JyJQtMCdhU2BlujLCFCyyspQNtyktmr2u0LHFV9HiLZ/RsXptZbrZuHs1PRz5EwUwm8JL30n59BybAivTlRGmMJHy+pg2jPH6NLNCgz5Y8BI1tXb+EBVzIHub99CEOc+RiT56aPJIqq5L7SiBiE2BxcoYU1BajPXaFO6fdAut37WSeJSQelpjLRRZ8REVOJdQALNp0rIPUrYNtS1sCqxMF5tCihS0h1B4yUROf+0BsXiMFm2ZRXeXXEfJdCGb96z15LvYFFiZLjaFFOm+sltoWycTsjEHEqc4bd2zgf42rYikFhS0h9Inq9Cz0+GrdlTRPaXXJduVTYGVcWJTSEUlaoM+XPiyJ9MZmc7u+mp6eeZDpLRBUgt6dvpYqmnY6dn3Ld4yh0YXu/c0S4QtbAqsTFPGmIKXC81ji6+g1TuW8H3KKaauaQ+9t+AFCto5JLWgMcW/ofkbZ3iaQ+qLuY/E/O78cLApsLxQRpiCRVaWQrjZqy2pL3/6ENU27faso8pEGlvrqXTZu1To/JqkFmSij96e8xw1tTZ4+r3zNsykoJ3tti1ChBPisTJNGWEKRNRb2cZlXhxeC9pDaNoKh0cJKaQl2kxTV2kqCl22r54fnHwbbaxZ7fl3f7Z2uvudKOIK4T+cOpuVacoYU/AqzcVdJdfT6h1VnndWmUJLtJk+W/8J3V1yw746LrBzqWJ1qec7u1pjLVS29AP3e1HElYZ/8iU7rExTRphCr169epkh41teJMR7atooamjZ62lnlSm0RJtpzoZP6K6Sfbt/yEQfvTH7iS6ZnmtqbaD3F7zofjeKuLKNh6ST2z/dsXso2BRYXihjTKEwnHOeQrE9tZVn0AcLX+CzCSngYCMEqQU9OPn2xIFA79nbXEvjZ97tfjeKuGkbyopA33TH7qFgU2B5oYwxhaKSIWcrLeansvICmE2fbZjKN6p1EneEUP6FEYLUgkaHLqNZ6yZ3menuadxNf43c7j4YWsQCaAxLd9weDjYFlhfKGFMoiMDpEqE4lZVX6AyjLTUbuqTDOlZpiTYlRgjXf6Fug/YQ+mDBK106NberfgeNLb7SfTA07A6i/5fpjtvDwabA8kIZYwpWBAYqFONTWXn3T7qZdu7d1mWd1rFGY2s9RVZ8RHeGr/1iUGqg5yssqmnY0WVliVOcFm+tpHw7N/FgwMp8bfxPuuP2cLApsLxQxpjC+MqR/SQad6ey8p4pL6SaRu9O1x7L7G3aQyVLJ9Lo0OUH1OtfJ/+B1u1a0aXbfGPxGJUse4cC6J5RUBo+yQ/nfDXdcXs42BRYXihjTKFXr169FMLNEqExVZX3+uxHaW9zbZd1XMcCcYrTrvpqem/++H0H09rqzvDVNGfDJxSNde01ptFYlF6b9SgpDW5ZULwnndzB6Y7Zw8GmwPJCmWUKIcOvUGxOVeW9O+8Fz0/YHkvE4jHasmc9vfLpwxS0hxxQn4XOMJqyXKdlN9eexp30+JT8RFkgKhEeJ6Le6Y7Zw8GmwPJCGWUKQcz+mkSxIFWV9958NoX20hproSVbP6Onpo76/G28jfLtS+jjRW+k7czH8u3z6a4Sd21DaVEbsOG36dBAUCwAACAASURBVI7XI8GmwPJCGWUKVgQGKISQRBFPReWxKbSP+pY6mrbSpntKbyB5EEMw0U9vffZM2vJHxeMxKl8ZpgD6k2XaZtrGT9Mdr0eCTYHlhTLLFMjKMlHcm6psqWwKhycej1H13s30/vyXaVTo0oPWoYl+en32Y1S9d3PaylnfUkf//uxvn5cLYV4gAienO16PBJsCywtllCkQUW/p+HIUwt5UVB6bwqFpiTbR0q3z6OnyURTAA9cP3OAz6J8Vd9G22o1pTShYXbeFHph8i1smLWIKxfjunN4iCZsCywtllCn06tWrV1D7zpFarE5F5b07bzw1tdanrTPrjsQpTrVNNVS27P3ECeUDp4ukdi8merq8kDbsXkXpvNM6Ho/RnA2f7DMuhdCqbHHjRMrrk+5YPRJsCiwvlHGmYEVgoLTF66movBdmWnyPQhtaYy20qrqKXphxHxUkDoEdPOgMerq8iDbsXkXxeHpTjjdHm+ilmQ+0Xfxeb4b8F6Y7TtsDmwLLC2WeKZCVZWpxu0Jo7WzlPTFN0u4uPHXbXYnH47SrfhtNWvYh3VN640F3FyVloo+eLh9F63et7BZ3UKzdtYzuKbnx8wdCi48LInB6uuO0PVgR6KsQ/sWmwEqZUMQlimkZZQq9evXqFQj5f660WNfZCryr5BraUbc13f1aWmlsqafFWz6jZ8vv2Hdt5qEUwGx6bfZjtLV2Q9pHCEREsXiUSpe+v2/XkTt1BPdYZGWlO0bbw0TK62Nq+ItEKJdarJYa6tLeqbB6nlDE3diBFRIhorQY253vEfGEMTjsFIlQ3NmtqUF7KK2uzsy7maOxVlq/awX9Z94/aXTx5YcdHbh1lUOvz36cttdtonSuIbRlx96t9MTUwL4yKg1bVcjwpzs+O4JFVlZBBE43beOnyjaulhrul1o4Uov1SosGiaIlVVuwWceA3JFAi9KiQSGsUSjeV2jcZzpwTaDY9/8CETiZuvmhTU8got4SIdDZlBcm+qhk2QSKxbs2JUM6icZaaWf9NnIWv0UPTLqNFBpHrKdCZxh9uOBV2t1Q3W0MNBaP0ux1kX25jhI3rU3pzncytwfp5PYfW+Y/rcD2natsuESicbdEQKlhkdRiUyrTvLB6gNwXgnqJsEVqWCQRUCHcGUTILrB9547BYaf0hJ12XUK+7f+mQtjYmQpXGuilTx+k1gy4ZCcWj9L2uk1UvipEj0z50yG3me6vscW/obJl71FdN1uQ39O4i57+ZNTnbYnQKhECPWHXURKLrCzT9v1KOoYoKhlytlWVd9xEyutDiTc9IuptkZU1vnJkv6D2nRPQABLFH02Ep5QWHysUVRKh0V1fgyiPKHqwUMTd7dTQKrWolyiWKYQPlRZPmFrcHkTIlg58xYpAX4usrLYxMpHy+lhVeccFte8cE42hJoq8jDQKq3L4CRLh1c4+CPeV3kpba9ent4fzkGis1V1EXv4+PTk1//M36yNIaaD7y26hynVTqbm1Kd0/4wvE4jEqX1VMBV9MyLdeOv7vpjsuO4K70CxeVggbFYrFEsV7pg1jFPqNwnDOeWPL/Kcd7OG2IjCgIAKnB0Lw3+60E9ym0HhGoZiuUKxSGrYqLWpTsRmD5Y0UQqtCsUdqsU0hrFQaZigUz0k0bjFt46dBzP5aQQROP1T7Syf3DOn4vu7mg4M7E9Ppy9zPE5MzbqG5Vy/XIU0bLlVa1HamcQqdX9OMNaXdZlokVTRHm2hTzVqKrPiIHon8ifLtoe2uExN99Nz0cbRs+7wuz3baHrbWbqAnpgY/LzOKuEJ4qadNHe2/JTX5pqgQmiTCWqXFxybCw8oWvzNt368KbN+5+78p9urlLliPrxzZz+0s4CvSMYRE4xZlwz0S4VWFEFIIc5WGrVJDVGkRU1rEEvPTPLpItRL16rYrRJUWzRJhi9sGIuy+CBj3KYSbVcjwF5UMOduKwIDxlSP77T8KsMjKSo4CAhpA2XCb0uKJRJuuUQhN7ij583bMuC2pbZEOfEUiRDrbiG/OfpLqj4EU2rF4lBpbGmjZ9nn0wYJX6IFJt5KJvg6a5DB6e87faVvtJop3w2tKW6JN5FT9+wu/S6HYKTVcRT1sga0D5xTqFcIGiWKBQmErDZbSvt8oPeQb7htj7mCrKu+4g35H5fATzDL/l4LFcL50sn9o2v4hpha3Sw33Ky3+LRHKFcIat9MS2yVCTeL7mnir7KGVMPAmqaFOItQoDdWJjn+N0lAmEV5VtvFQwIbfBjSAdLJ/KB3f10fZcFawIu/4/WOViHpbVXnHSSd3cGE458wAZn/HdOAaqY1HFQpbIsxTCBvbs6aU0aZgkZWlbCNfadHQmQYeW3wFrape3GNHC42t9bStdhNVrCmm52fcQ3cUX91hM1Aa6L6y39GUlR9TfXMddZcdRvuzYvtCGtf2pjcUcYkQ6SlnE9pyVIfX2uw+cTsjMUshvK1Q3KUQrg0iZJsh41vB4qGnJt86qU0HRG3moK0IDCgM55wondzB0vF9Pah9PzFR5Ckb/qwQ7lQanlXaeCMxtx12pzhgrtSwRGqxyU1jD3VfGHW0R13diXegbIm3+zp3YVdskhqWKIS5CsV0iVDsruXAa0rDs6YN45QNt5m2caW7TX7IN4rKRwyyKoefYEVgQHKNqG2bJ9vDikBf6eSeoRC+p9BvmAg3mDaMkxomKC3mKw27960XdbDOMtoUevXq1Us6vq8ngrQTrg/0ZuUT1BztXnPnhyIej1FrrIW21q6nT9dOpolz/0n3T/ptYr3g8FtLD6YADqHnZ9xNq6uXUGusOd0/75DsbqimF2bcR0q32TGF0Ggi3NpTzia0JdUnmpUWzVKLbYlOZYrS4t8mwsOmNm6SjiHywzlfHYPDTikqHzEoWJF3fHK64rBlJCvLNY3cMwIh+G8zZHwraGd/XzrwM4W+i4II2aYNl0rHN9zUxk0KoVAhFJq2GGUiPKwQXvqixDtKwycdlUSYJ7VYrxBmdvDfTnFNc79yaPiraYtRyfIqhJul4xtu2nBpECFboe+iQMj/86Cd/f182/9NszT7vwoicPro0uyT6AgjUiLqPb5yZL9gRd7xReUjBo3BYaeYpdn/ZYbgYmWL3ynbeEhpeFeimJbYLLAl0XYpMcGMNwX3mk4Y3dnMqXeE82jx1s+67WghFo9SfXMtVddtpc82TKXXZj9CD0waSQXOodNRHFlAVulNFFr8drfabnowmlsbqXjxhAMO2CmEmdKBr6Q7Do8Gr9NcJN7gWxTCXndRE3YkDEMrFM8pbRRJDde7SSZ9FwWLjQuk4/t6YTjnzKLyEYOog9NxyZ1SSUknt79VOfyELygCA0eXZp/UUQUicPLYMv9pHf13iemYE/cvh3Ry+7cta0dfKsh92x+YXPANFhsXKPRdpGy4RCFcq7RRJBGeV1p8rLSYLzXs2Dc1p0WzlyOmjDeFXr0S21O1mN+5BwjohRn3dZu0F/F4nGLxKNU0VtOy7fNp2gqHXpv9CN1Vci0FMeeIh82OpALn1/TqrIdp+fb51BLtvqMDIndkNHfD9IPdB12vbPizFYG+6Y7BoyFtuY8OnDJpSEwFLVJazJIIpQrhQ4XwmtTiaYVwp2kbynTgGqV9v1Fo/Eg62T80S7P/q6h8xKCi8hGD2na8wYq846WT27+txleO7DeR8vocSpSC9SCLrKzDfUfSqNoqWJF3fLLcheGcE4vKRwxKGMl5gWLf/5MO/Exp329MB65RKKRCuFPZ8Ddpi9fdg2OiRCLM3vfGj9CU7ukyNoVe+7b23eUu/Bx9ZQbtHJq07H1qbm1MS+fXGmum+uY62lG3lWatn0TvzHuOnpo6isaVXNPhNYJDKYBD6JHIX6hiTTHVNe3pFukqDkc8HqMV2xfSg5Nuoy9MjbkP3KeF4Zzz0h1/R0vPSIgH0cRzVa9Q7JEINQrFdulufdwstVgvtVivNMxw1x1EOHGG4jkT4amklA33KDRGHkymFrcrbfzaDMHFnVEAjSvcvGgH+R4b/qDQuK9tmSTC8xIB25R7jnSnqDYoFJsViu2JBeSaxPbR+sTicjT97cKmcET2jRY66cx3hq+muRune37KOU5xisfj1NTaQJtq1tDiLXOpZOm79I+KO+nO8DWUb1/SrtPG7Q4UbdB9k35LxYvfoW21G3rEKe44xWlDzSp6bvq4A0ZG7tutMbInriUk6Rmm0E4dZMG2vXI72dSp3d+b7gVwj8SmkGAi5fWRKP7Y+TQAQA9Oup2WbJ1H0RR2nHGKU0u0mRpb6mlPwy5asHkGYdWb9NKMh+mvk39Po0LDPAkQE310V/g6mjD377Ru1/JuP1WUJB5vawj7maPb6YR74o6jthxTpsDqNmJTaEOgeOiXU3OHM9ADk26lxVvmUEsndiRF461U07iD1u9aSVWb55Cz+N/0zxl30t0lN9AoZ3jbO4VTHxjaoAcm3UIfLXidVlQvpOZoU7deSG5LPB6njTWr6B/T7zrQEFxtC6AxrCePEnr1YlNgeSM2hTZYZGUFHLjcPbnZ2cp1d+aUrwpRfXPdYTvUOMUpGmullmgT1TfX0YrqBTRtFdK7c1+if0y/i6yy6yloD6Gj2S7a0TIXOL+mv07+A5Uu+w9t3L26x4wMksTiMVq1YzH9vfyOgy6mu/u2jResCAxMd7x1FjYFlhdiU9gPKwIDJBovpGoxaJQznN6sfILW71r5hXMMLdFm2t1QTZtr1tGyrQuoZNk79OrsB+nBSb+nscVXuWsCnptAIgg00LiSa+iVTx+m6auLaWf9NmqNtaSxaz86mlobaP6mmfRI5I+HGiGQ1LAkYMMP0h1nqYBNgeWF2BQOQkEYvi0RZqeukg26t+wm+mjBazR7fYQiyz+m9+e9Qv+YfifdVXINBTA70Yl1jQlILchEP41yRtDjUxWVLnuP1uxYRnub9/SYKaK2xONx2t2wg4qXTKA7w1cfuh20qFVojOypW1D3h02B5YXYFA6CFYG+yhY3ShS7UlnZJvpoVOhSCtjtyzSa+sY2aGzxb+ipaaPogwUv0+Ktn1FdU02PHBUkaYk20crqKvpnxV2Ub19ymN8PUYXwr7Fl/tPSHV+pgk2B5YXYFA6BdHIHu6loO3fSOa2Nq4ECmE1ji6+kZ6ePpknLPqSlW+fTzvptFItHe+SoIEksHqNtdRsptHgC3VN6/eGn2twtgwvMkP/CdMdVKmFTYHkhNoXDUGD7znUTWbV/N1LQHkJ3hq+mu0uuo3El13Yo5XSqVOj8mu4vu5VenPEAlS1/lzbXrKW9TXt69IggSWuslXbu3UaRFR/SY1NUu+53UCi2K4Rre9IFOu2BTYHlhdgUDoNFVpab3ArWHKkig/YQeqZ8NH2yMkRLt82lldULafn2+TRzzSR6ceb9VOAcbmqjs41oUL59CT085Q80ce4/qXLdVNqweyU1tzZSrBumr+4ocYpTNB6ljTWracoKTY9N/Uu7b35TWjQo23joWNhttD9sCiwvxKZwBKyqvONMNP50uPWFQmcY6ao3aFd99QEnfePxGNU07KTI8g9pbPFVKWs4E300tvgKenxKkN5bMJ6qtlTSrvpqamyt79HTQm1piTVTXdMeWrptDk2c+zw9NPn37b75zRVEJYqPgtp3TrrjyAvYFFheiE2hHRSGc06U2nj0YPcuBDCb3p0/nvY27zl8BxdtovCS/xyQpbNDjaUNGl18GT0/4x4qWfIuLdz8KdU27aZoLNrtcxC1h+R5jW11G2np1nlUsnQiPTktSKOc4UeXuwlhtkL4HvWwy3PaC5sCywuxKbSTUTacJTVM2H/h+YGy22lr7YZ2dXq7G3bQ41NVhxoogH66o/hqempaAZUu+w+t3bmc9jTuTGkKjXQQi0epJdpMTa2NVNtYQ6t2VNGUlR/SW5XP0eNTTCoKDafObNFVCCtN2z/kWFtHaAubAssLsSm0EyLqHcTsr0mE0uTCs3u5zuPtXsBtjbXQpGUf0JE6O6WBikLD6bnp4yi0eAItr55P9c11FI219ripoTjFqaGljmoad9D2uo20YfdqWrV9CVWun0YfL3qVXvzUovvLbqUxoSso3x6aqgN7mxTCzcfKeYRDwabA8kJsCh3AIivLDPn/VyKUKy1iJvopsvL9DmUMXbRpDh3KFJQGurPkSnpr7lO0YNMsWrtzKa3dtYQWbZlJczZOoykrPqbJyz+kycs/IGfRBPpw/puHFC58K/F3v6gpKz6mORun0dxNn3xBVVtn0frdy2lDzcoOa9WOKpq/abr7WRun0SerbJq8/EMKVb1DH857k16f9QQ9X3EPPTb1L3RP6f8lOn+PDuuh2GVq+It0cvunO168hk2B5YXYFDpI0hgUQmXAzo5/uq60Qzt8Fm+eT4fqDIP2EPr79EJ6Zno+PTz5z3Rf6a00LnwdjSn+DRWFRlC+nUNBewgF7SFHTIuttLHv77ZVvp1DRaERVBS67AsaU3wFjQv/H90Vvq7DujN8DY3e91kjKN++hIL2kJTd4dBuIdSYKO49FncaHQw2BZYXYlM4CpJbVU30LbGXvBGPxto3UojHYzRn/XQ63BuyO33Sdekujhkh1Cgb7ikqHzEo3fHRVbApsLwQm8JRMpHy+qjQEP/Lsx6c3dha366J/qbWRpow95m0N/oxJ4QahcZ90skdnO646ErYFFheiE2hE1hkZf2z4s6frN21dDrR4eeQ4vE4raxedNiEbayj0jbThnGZNEJIwqbA8kJsCp2EyMqq2j77h63R5mIiaj2YIcTiMVq/eyU988now6R0ZnU8eGGDacPvrcrhJ6Q7DtIBmwLLC7EppAAi6t1ETV/bvnfT27sbqxticfcwWSweo5rGHTR3QwU9OS3IhpAqoYgrDUuVbVw9vnJkv3S3f7pgU2B5ITaFFEFEvV+tevSsN2Y98fTblc/VfLjwZXpz9tP0zCdjaVRoeNob+liRQmhVCDMDjvGLY/0cwpFgU2B5ITaFFGNFYGDA8QUCtn+NQujkXc+s/VQv0XirIAzf7un3K6cCNgWWF2JT8ADp5PYPImRLLSp68n0M3UYo4hJhi2nDuMJwzpnpbt/uApsCywuxKXiERVZWYTjnPIVifKpvcMssQVRqUSEd3/BgRd7x6W7X7gSbAssLsSl4zOjS7JNMhBsUQqVCaE13g/cYuYvJ1SbCU2bI+BYdo5lOOwObAssLsSl0AVYE+haE4dsKxctSi23pbvTuLoXQpBBmmrZxZaZuN20PbAosL8Sm0IUUlY8YFEDjCokQUQhN6W787ieISoS1Jop7C2zfubyYfHjYFFheiE2hi7HIyioqGXK2aRtKaljEC9GCEqnIt0lbvB7Uvp/w2kH7YFNgeSE2hTQxkfL6FITh2ybCwwphZUauN7jrBrulhgnKNi4rKh8xiNcO2g+bAssLsSmkGSsCA/K18T/KFo9IDUsyY1oJokpDtdTwgXR8OWNw2ClsBh2HTYHlhdgUugnjK0f2U3rIN0wbxikUU6UW9ckb3o4dQVRqsVppeFHZcAmPDDoHmwLLC7EpdDMmUl6f/HDOV03buFKieE+6V0v24NEDRBWKPUqLWUqLsdLJ/mFhOOfEdNfzsQCbAssLsSl0UyyysqzK4ScoNH6UGD1MVig294jRA4q41FAnEWYrDS8G0LhibJn/tExOXucFbAosL8Sm0AOwyMoyy/xfCjjGL0zbUEqDVggbpRb13WGBWmkRkwiNEqHGNQLxRMCBy6Xj+7pVlXdcuuvvWIVNgeWF2BR6GFYE+kond3CwGM43beM6peFZqcUkhaJKodjeJR0EirjSolYirJUoPlUIb5u2oYI2/HgMDjvFisAAXivwHjYFlhdiU+jBEFFvi6ysovIRg4LFxgXS8eUoNEYqNO5TCP9RGmZILdZLDXVKiwaJ0Ki0aE7KPSMBUXfeH1rb/plCaFJaNEgt6hWKPRJhnkJhS4TnFUJhAI0rAiH/z4Pad85EyuvDJtD1sCmwvBCbwjEGEfWWTm7/0aXZJ0kn94yg9p0TLIbzA47PF0DjCoVCmggFJkKBRPGgQnhJIbykbPib0kaRiVBg2iJoItygbLgkaMOPzdLs/zLL/F8ag8NOKQznnJjp9xh0F9gUWF6ITSFDIKLeyZFFW02kvD5Jtf3/yb+f7nIzh4ZNgeWF2BQYpofCpsDyQmwKDNNDYVNgeSE2BYbpobApsLwQmwLD9FDYFFheiE2BYXoobAosL8SmwDA9FDYFlhdiU2CYHgqbAssLsSkwTA+FTYHlhdgUGKaHYkWgr7TF64mUJd0/ey6r+wtFi0IxmU2BYXogFllZQYRsE+EphWKyRLHMzVTLBsFqn5QWMYVip0KxXGmYohAeCzg+H6eyYZgeSjJ1SWE450Qz5L9QarjKtGGMQvFO4nrXvRJFC08xsdwU96LFvetELJAaJigtxgYcuNwM+S+0KoefkExxk+64ZhgmhUykvD6BCJycH875aiDk/7lpi6BE4y2JME9psS5xEx6bxDEv99ZDqcV6iTBPIrxqovGnQMj/c+nAVwIROJlHBAyTYRBR74mU12d85ch+gQicrND4kUK4OZFe/U2pRYXSUL0vjTpPPfU4uQYPUbcNxTalxSyF8KaJ4l5TGzcFte8nSQPgkQDDMAdlIuX1kU7u4PxwzlfNkP9CE40RiWtfJ0oUCxTCRqWhWmpR7965kf7OjyUo0Rb1UsMO9/ZFWCQ1TDBR3GvacKkZ8l9YYPvOlU7uYIusrHTHGcMwPRSLrKzErX79rcrhJwQw+zvupU1CSm08qhD+JRFKJYoFEmFLcp0iMU8d5xFGCpSox2S9KoQmqcUmpcV8qcUkhfCmQnjM1PAXZcMlBWH4thWBgdLJ7T++cmQ/HgEwDNNlWJXDTwgUD/2yGTK+ZYb8/xtwfL6ADb81bRiXuI0vJBHmuZ0YVEsUu5QWtQphr0JokihaMto43M7evdEQYa9bN2Kn0lCtUGxWCHOVBq00/NO0YZypjZsCjs8XtOHHZsj4VlHJkLODFXnHc8fPMEy3JblWYUVgQGE450Tp5A4ORODkYLFxgRmCi5VtXK1suE2icbeJ8LD7piveUSjsxBbaae41r7Awccf4ZqVhq9Kwdd9ieHIU0hEdxdt5R5Uo2y6pxTalYavUYpNCsVghLFRazJcopikUk6UWjtQwQSG8pmzjIYnG3aYWt5sOXBNwjF8Ei40LxuCwU4rKRwxK3Go4wKrKO24i5fVJd/syDMN4QvIWv7Z3iheGc84sKhlydkEYvh0sNi5QCN8Lov+X0jGEdAyhbLjEtI0rpYarklI23GaicYdCuPOQ0mAphNeUNt5ol1C8LDXcf7jPNNG4w0S4oW1ZTNu4MoiQnSyvGYKLg3b294PFxgUBzP5OoHjolwvDOWeOLs0+qe3v5zd9hmGYFGGRlWVV5R13OEknt3/ijXtge5QY4fQ/0udyZ84wDMMwDMMwDMMwDMMwDMMwDMMwDMMwDMMwDMMwDMMwDMMwDMMwDMMwDMMwDMMwDMMwDMMwDMMwDMMwDMMwDMMwDMMwDMMwDMMwDMMwDMMwDMMwDMMwDMMwDMMwDMMwDMMwDMMwDMMwDMMw3mFV5R1nlmb/lxnyX2jaxk/ztfE/gRD8d2E458R0l41hGIbpIsZXjuxnhvz/K7XxqNSiQiFsVFo0KBSblRazJMLzQYRs6eT2T3dZGYZhGA8pDOecqGz4s9RitUJolVrQ/lJaxBTCRhPFvYEInJzuMjMMwzAeYEVggEQIKBQ7D2YGBwrqTISHrcrhJ6S77AzDMEwKIaLe0vHlKBSb22cIyVED7Da1cZNFVla6fwPDMAyTIqwIDFQa3lVaxDpiClILUiimB7XvnHT/BoZhGCZFSAd+JhHWdtQQ9o0WbLg03b+BYRiGSRGmNm5SCHuPxhQkirhpi6AVgb7p/h0MwzBMClC2kX9UhrBvCgke4C2qDMMwxwimhr9IDdGjNwXjPjYFhmGYY4SAA5e3fyvqAaOEVoXGSN6BxDAMc4wQwOzvKBSLj9IUNpghuDjdv4FhGIZJEVZV3nES4e8SRUvHTAGiEo23ispHDEr3b2AYhmFSSLAYzpcIsyWKeAfOKCxX6Lso3WVnGIZhUsxEyusjHV+O0mL+kRadE4fcVksN14+vHNkv3WVnGIZhPMCKQF+Fxo+khgkSxa4DkuKhiCsNuyVCsQoZft5xxDAMc4zj5kHKHWyiMUKh8aTU8IFEQIniI4VivIkiL1g89FTebcQwDJNhuFNKuYODxUNPDUTg5ImU1yfdZWIYhmEYhmEYhmEYhmEYhmEYhmEYhmEYhmEYhmEYhmEYhmEYhmEYhkkZFllZ0sntH6zIO146uYOlkzvYisBA6eT2l05ufyLqne4yMkx3I3E6vX/iWRm8v4rKRwyyIjCgK06nJw5C9req8o7j5/UgEFHviZTXJ6h955gh/4VBhOyAA5cn7sq9eT9da6IxVKHvIun4v2uW+b9kkZVFRL27snKDFXnHK4TvtS2n1HCVQuNHheGcE1P1Pcm6KbB95wbR/0up4SoTjT+ZKO5VaDyptPi3QvGORHhVonjQRHFvwIbfSsc3XKHxI7PM/6WJlNenOwSeFYGBQe37iWkbVyqEm5UtbjRtuDTf9n+zs3mDiKi3VTn8BOn4v+vGB1ybjBnTgWsU+i4KFg899WjqgYh6F4Zzzgyi/5fuZ8HNyjauNkNwcWE458zO1q0Vgb6F4ZzzpOPLUQjXKlvcGHB8udLxfzdV+ZSScTS2zH+aG7c+n2nDpcoWN7Z9vkyEG5QNl5i271cBzP5OIAInJ5+vVJSjKyGi3kXlIwaZIf+FyoZL3N8n7lUILykU7xwoeE3ZxkMSxR8DaAwLFhsXWJXDT0jVbyei3kHtO8dEY6hECEgN90s07lYIN5u28dOi8hGDemI9p4zxlSP7jS7NPilow4+VNooUineUwow95wAAIABJREFUhhlSwxKpxTapoe5gaYuVFs1KQ7XSYp3UsEgilCsU75g2jAugMSyofedYERjo1cXpVgT6Bu3s70s0XlAoqpQWtRJF3E2OJhqkhhUSjbeC6P/l0WbMJKLeVgQGFNi+c5UtfqcQXlNazFIIG5QWDUdK56y0iEmEGrcsUC7ReMG0jeukA1+xIjCgqwNPOrn9VcjwKxTvKxSrpBb1yXIqDbuVFvMVGs8oPeQbHXlLSxqBQvie0mKsQghJDYsS8dG8L2kdQpPSYp3SIqxs4+qOmLZ0cgeb2rhJaShTCBsUQpP7udAotVgvESIKjZGjS7NP6mi9WGRlFdi+c6U2HlUIlQrFdje+RUyh2KkQFioNLwa17ydHE0sJMzsxiNlfUzbcJm3xukIxVaFYLBG2JOo+dsCdEBp2KISNCmGhQjHZROMfyhY3FoZzzktlJ+kFEymvz+jS7JMU+i5SGiypheP2KbCjvVesus+P2OX2L+IjiRAIYPZ3OvPbpZM7WKJxi0IxVWrY0fYZTiRaXO22j/GjjEufMr5yZD8z5L9QIgSUhimJ4G/qSN76A/T5g18rtVivNLyrUMiAY/yiIAKnp2o4OL5yZD/p+IZLDYsOyJh5YKe8ViHcbFXlHdeR77AiMNAMwcUK4TGFYrnUov7AB7ejgqhC2KsQVrqf6zeCxUNPTUWdHPH3VA4/wbQNJbXYdNjfgaJFaTEniP5ftuehsCIwUNlwScKcN+/rrI8UJxp2myjuDUTg5CN9R6B46JeVhmclQs0h4xNFXGqoUwivFZUMObvd9UJWViDk/7lCMXWfgR38JrdWhbDSNfX2jRossrKKSoacrbTvN0obbyiEjZ2Jo0Ss17smaLxgojF0DA47pb2/tSuwyMpSesg3TIRbFQp734tBZ/qVZPsiNCoUm5WGFwOOLzcQgZM7Yg6F4ZwzlQ1/Uyj2HL48EJUalijbuCwjjGF85ch+wWLjAqmNR6WGJYfrVDst9609JrXYpBBCpi2CBWH4dmfekomotxmCi5WGpe0NNIWwwbSN69rTwK7hZP9QoXhZIWzodDAfvmPcqhA+NG3jSisCA71687Mi0FfZ4ndKQ3UH2m1O0IYfH6pMVgT6Sgd+JhFeVSi2H009KRR7lAbzcO1SVD5ikNTi6cN12Pu1dZNCeK09ZtOrV69ewWLjAoUws13ld196Nh7pvobECHOgiXCD0lB2qNF2pztJDTuUhndNNEYEK/KOb8/v9Yrk1KpCuNO9FAkave1XoFohvBlE/y/bY9JWBAYqDX+VidFx+wRLpAM/684jsk5BRL0DxUO/bCIUKBSrOn7FYeflTuu4bzkBDSCd3MEd/R1jcNgpCsX7HXrbcju5+dLxf/dw9SOd3DOUBlMirG3vEDclAY5ip0TjLTMEF3txF4B0/N+VGhZ1sK1iEsVHB5uOKYjA6aZtKIWwsrP1pFBUBWz4waHaxESR507BdeRzoc60DXWkkeno0uyT3KmCDrwYuVOUCwKY/Z2Dfaa7cJn9Q6WNN9w7Hjx6qWjTTgrFdqnF0x2d9ksFRNR7DA47JTG1N8NTMziwnaNSi/UmGnccbnRIRL2DCNmJeurQ5yuEt49mSrLbk3yrUwgfdm2jHebB0mKbQviXaRtXtndhh4h6B9AYlpie6mDnA01KG0UHe8OzyMoK2PADqWGCQtibrjpRCP+/vS+Pk6sq067urCQQ2SL7IoRNhLA4KqKc91RVd+wJiQ5YqCAjoNMgct5zq7vTJA7KFRxw4XM+HFGj4IwLzNDi58h5z63qdKAUAgo0CEKQnQQI+5KQkLXJ/f44t5Lupqq76i61JPf5/c4//Uf1uWd7znmX530KFVskl6b2Cet20udmJnhOtPHNOu/dFK9L4vOHjz+qtiOQ2A0ewYfx3ZsFsa+W8j1ZBdhdEOSrPliNqWFZV3/7QWONjaUAkNiLfvqMml81+oUjnI4pUvOzUbGHoiaDkn0i9idJfE6tTB59bmaCpeEEz0cyjkkmumbWNvw+q+HDpb598WDnJEH8Jj9mOyT2otTJ02oxnjWDvTwzWRLLeM7YgDbx0BfyViT2Bip2o8yljh9vMZtDCX7k1+SFxHR3AfYe/puLBzsnGecrDEZqSqu8vYOK3dql+Owwbn3C6ZiJxLSv8TLr5dpi1FRWp49DBX+s1JRTxab+tV2AXUf33XL4qUKx5/z1Hd6SGk4vNy6LBzsnoeK9vvcEsXuG3yCNUxV6hGKr6nU4Fi8WlmZfiLr6nF2AqV702sONsW9gSCh4ROpU22j/YTYPs1DBY773AIEVVcBMzbF4sHMSan6WIFhRt4Va4YSiYg9YTjI5FjHYBZhqIlv8/R8k9qgcSB+87feWZyabMFb2aCONj4kGYg8IJzmvWgf5aJibPfzVd3+I/c4qwO4yx49CYrdHYlYjWFbK4e6t3SpNR9v6vRWJiXLrydiY+S8C9PuZotlLOB0zUMPlfl6w4Y8l2yoUW4WanRuVKamnv306at4l6kmAZeccnhIKzhlOipYCEIqt8j2eBP9hD86bFsVY1hR9bmaC1HC6sY83wIRVNKHsrqxKHlDum+TS1D6CYJnf/4HE1nTp1JGJRJEw2blI8EJDLezh46HYSunA54IQg6XhhEBrgNgdMpc6HhX/RWQ3QmL3hE4KirlCwZXlbsx2AXZFgt8E6PcqSwH09LdPlxouQ2Jr6r5mhq0doeBJzPFU2MTQXYC9BcE1weYl8rZKEnyxaCpGSnFfZkKvoeK/KvWSbSoYp3LyJKHY/Q154JUbfIKNUsPCcgvZys/ZTyh2t//NAhu6++Fo27VbLSfZgQTP1vubx+4v24oEz1uafcEvMVj55ElI8HyAPtyDCuyIfS23lYoWCkoKSPDtKEnBMzt+CRW8XPe1UnLtsLtQtR3hZ92Ugkm44z8IzZ8UYUOCZy0n2dHnZibEpJBIJLL5OXsiwW8aw9ZX7WKGQrmopDBIQTipD5qEmjo4A331mW0Vij2Hmp/lx64ZlBSQ4KmozY+o4EelnueNTArmkIErzfg06jqCIUn8x3YBpla7bkajp799OhK/om6BGNU2Q4rLrXzyJMtJJndqUrBdu9UzizTH5L13Mv8mnOThpb4tKCkgwUYveqm/cTdy6QUuFDxpKYBq10NgUjChqRGOFayVmp9d6nXY0KSg2HpB8FKjryNU8LJwkvOCRLOZ6B32VZNdXP9vqmKO3kVitxvpkJ2YFHqXtO1vJBWCL1YzqLDRZOGyNSbZiL0tTITMpmiimeDv2Tw/ttS3BX4pKBgSBIV65GiEMhcK7pQ5flQ1Gzyw+SjKZpx4A1Z+zn6l+t7IpNA0zdyY+xYtTe1V6ZoZMU6u3YqU4kKxZ+r+Lf7WwEah2P1BfD5NTQq2a7dKgi8GdQIhwTpU7AEk+G+p2QJLsy9InTwtS6lPZgnSlobzkNg3BPGbjOMXngwt/4HgvgUa9i31fcFJgbmBo2dMXP2bguAlJPaEl+H6ei1MdUZqgS2uJumvoUlBwZNIKV6O5GJSCKkRrLacZIef10KW0ochsdujDmdHgi2C4CWzJtgT25piKwXB6iD/P+hrt6lJQTgdM5Dgv/xPDgyZrER+gXCSh9sFmFhK9bT4N9u1W3v629+PxE+WBF+UxH8siD2Oiq33N4kwhATXl5MQCIcUqt1QbLMnWNaPBN9Gzc61iM/FHE9Z+eRJUidP85zWX0INlyMxbUTOwo3lH7bA3xbEL6g0qqQRScHTx7pXOMl5Y/lJdhhSMFnQm412D6wTCtYWGxKsEwQbvMtGJKYo78X/22p9C/bgvGmo4Ooo1rLXJ+/yyX+ABF8yjnt+snDSJwonfaLxB/BTJfH5kqDbu4SuCKzRVnVfm5gUsnmY5TuihthmJPg1qrYj/GREFpUghQMHWpp9QRD7g1DsuWpu5kjwgnA4K3ejqSUpeDbjB83Bkj4xm5+z51gJQa7rttjLM5MX0tw9snl+rNSwUBDcF3rsuolIGiyG1o6HRiCFbWqxBCtQwZ+lhoXdOnnIeOus2UnBE9F7XhC7AzW/ShLLWBpOkAPpg4vN0nACan6WJPYtQTAgFHsuolfnc1mV/Egla6a4nn1nfI+3FhRbhcT6LCfZsUDDvtm7M7uM94oxqgwdM7KUPkwquMSzUKytzfptUlJwXbdFajjdF6sbu+MS4cCBYfXFxG8nT5ME3/HMLGMudCT2qlRwyVgHb21IwSgkSoLubB5m+ZUMsF271crP2c846ODBUJO+iG0WCq6s5OZXP1KAISN9AAUkfgVqfpaVS52yaGlqr0pfOc1KCt4t+FlBcI3UydOE0zFjrFoIxVd3UZnX7Bl4IVSTDcEG1LyrknFPJLzwU8VuDdls9I5Q8HvLSXb09LdP9+v83qY+S7xTEDwYuWmrWUmhz81MMOaL6m8ZqOAti/jcKNQA7QJMzeb5seYZCo+J4SqF5ta7DoktlwRfHk/pMWpS8J6zNwon9UG/NRhKfP9Ei9LHeHpBob0akOB5K588abw5qzUpeLfjZwXBT2UOPiGXpvbxO5bNSApenY3fZTV82G8WbPbuzC5Gzhty/jSryo5HReJuJoKRn4XE3gjlf3v5NlJzFE7HzDB1vbJ5fqyn1BtZ8mDTksLiwc5JxvzjR/QJ/mLl4NCo+ydz/ChJ/GJTyIX/yhQ14Z2V3sijJAVU8LLUcFlU9Q2sAuwuNSz0NPXD2OBbhKdLNPaY1YgUtkmB8x9mVfIjYZQjbTZSMLUD4OowqsC5rtvS1d9+ECr4eVg2fVTsoWweZo33v7P5OXuigltCWxfEHpXE54eRL1FqnHqXzd9NEnQLv1IW445bk5KCvTwzGRXc6csBQ5AfLRQXJYTTMaV32fzdqjXNREIKnlaMpeG8MMt3loJdgKkmciscYhAK/p7V6ePGHrMakILxRw2i4v8Y5hg2EykgsTWS+NfDPjys/Jz9qpb3Lnu4sfUyB58Y6/8ZM3TyNFTwVhh7C4k9ijmeilq5tbi3TARTuOu7aUlBOB1TkOBhf5NXW1Lwi4hI4U1J8OWgwnOVwmguwUVhJAIhwUbUvGusDRc5KRBsEMRvyuZhVtg6O01DCka2+rpKC/tUC5OFD4PBI25gCDU7fxzRyYlIcH1IPrBnhJNsr5WUt3A6pqCGr1RfN2GcdbSTksKD5YqGNBLCJgWTmMe+EcWzdiwIp2OGVw84DHuxI5yOmeXHLEpSgLVCwZXl8kqCoilIIQKNoff01bVbjcZSMJ+UlwB59VgXIFRtRwhijwffW2yNJPhirctZFuU4RFUV1sYbt52QFEzcOMiwnKtRIVxSgCFUcEtUB9p4kAPpg4VitwWNnEAFr1n55Enl/k9UpICKrZcE34myKlVzkAKsRoIvRV3xzCs4NBC4hro54MpegoxETkCnrVEMuLZ32fzdohyTcvBqiPy/sHIZmpYU7OWZySb00ffiXiE1P7uRiSFMUkCC54UDH6vXt/gvEfie79giNSwsdyOLghSQYAsqdqNcmtonyjFqeFIwzvU/RhWcMBwmupCdG0g5wMix95eL8uvpb58uiP8s8GFK7G/lpGpqge113NnKUNZ7s5KCiT5iNweoJLVVEKyQxC/2q5MSNUIjBWKbpYbLauVHKAe7ALsKgp8Gei14+kHlbn+RkIKCP0dpLimi0UkBCbZIxf6ldjbz1Ad9m4i3rRd4sFwwgBxIH4yK3Rvw9zeM5+eqBbJ3Z3YxdR+C65w1LSnYBZiImn03cCF1xd5GYjdbCsAenDet1oXAx0KIpPC37n44ut7fsz1rNPCh/Uy5UMOwSQGJvSic5LxarItGJwVBsKKWvjjTZ9YXcH+vLHfAZVXyI8Hj/eGRsQpl1RJZnT4ujCJjzUsKrt1qOfCZMGKavZvrK6jYjaj4P/Yuadu/3syfSIRDCsb0MbazrZawB+dNE8R+F0iwi9gbqJL/VOr3wyQFb+x+FHX93yIanhQU/L6Wr2rXdVu8sp++93g5UvDMU+cHCX1Fxd5FDZfXan2MB+F0TEEFPwrut2tSUkgkEgnhJA8Ptfym0fFfi8Rulxouy1Lqk37yC8JCOKTAXvRTlyAquK7bYvTeA9S/ILZZEv96qd8PlRQUPCac1AdrNTYNTwrE/q3WBd0lwReDyUCXJgUvz+kngdRIib2YpdQnazkeY2GYflOg109Tk0Lvsvm7IbEbolAQ9G4nq5DYEiTosfLJk7oLsHctN0XwymtsKyq4s9Em2Oi4BDu4UcFPSh2A4ZECDNXaD9PIpICKrZcaLqzVWBQhc/CJIMEJZUmhAFOFYrcFfLH+qVxtjHqhd0nb/qjgzmB7q4lJIZFIJISTnBd28sZ7Dlaj6/8GEtOo2CLhcNZdgL373MyEKPSTigih8toWVGA3gilsOExsNfw2GJmXNmWE+FJ4Jqvhw7Ucl4YmBWJvSM3PrOV4JBKJRJfis4PUhC5HCgtp7h5I8FSA9TeExK6Lcv/7gQnV5z8IsvabnhRMRAv7XdTKgSMOWoIXBLF7hOLfsxx+6qKlqb2ieEEEJgXFNmUJ0o22cBcPdk5CxXuDFQKBO7v62w8a/duhkIJJ0LrZr8CbXzQyKQjFViGleC3HI5FIJLoLsLdQ7LkAe6AkKRjRxiDrBNZaGs6r9XhUAknw5SDm2aYnBaNdwj8ajPV9b8It3iZ2pGZZJH6yXYCpYR3CwV8K7NVahFL6AWr4VKAgAWKPyxw/avTvhkEKSLAONXyl1mTa6KRQD9+UF8bs229YjhSkTp4mFHslwN56YzxdpXoBczwVRBOp6UkhkSjmLPDOehbaNgccPIkEv0YNn+pdNn+3oIdKCD6Fe3qXtO0f1jiHCaTkxwOZBQieLeUEDsl8tKoSdc3QxyQmhZL9joQUiM8PIpWNCl5u1L3lvYJ8X5J3CFJIJIql9NiiehKDaTAkiL2JxG5GDZ8KIhoWQvTRmDpB9USX4rOR2BMBxvl14aRPHP27gUnBK8AUtYJsKcSkULrfDUkKBM9WUzu8lrDyc/ZDYsv9j9kOQgqJhOfAVLxXKHi9ljVNyx4uCl4TxG/KUuqTfqJYQvAp3BilVk8QdOnUkajYAwE25ZZSsh1BSaEYe14P+ZOYFEr3OxrzET/b91ibrPpljXpwerVmBv2P2Q5EConENj2TC5DYo7VyPo/dYEgo9pwguHSBhn2rMSmF4FO4rtbO0kqBqu2IRiQFoWDIIn5GPTLbY1Io3e8oSAEVSFRsva/fNRfO2+rxmqwEMSmUQJ+bmSAc+BgS/BYJ1tX91WAW53pUcIvMpY6v9MCJSWHMAzCalwKxN6op+B7qmMSkULLfMSlUh5gUysB13ZZFS1N7CeIXmPDR8PTG/TcYQoJBpBSvhBiCO5r5TVEVQgmKxiUFeAoJPlSXMYlJoWS/IzIfnRnE/4jE7mrUg9NLzLvf/5jtoKRQhO3arcKBA1HD15DY7ULB2rqalYyc70OWk0yOX4Q+uKO5USvMZXX6OKHg7/7HEVYj8ZNH/24IpBB5/e5yiEmhdL8b0dEsFFvVqP464cCBSOxR/2O2g5NCEX1uZoKVn7Of1HA6ErvZW2j1eT14jiqL0seMRQzBXwpwX6MoOI6GMe+xFwN824pSGvbBHc3w55gUSh+COxIpeEoIgUJSG3VvZXX6OCT2tP9v20lIoQjbtVuzd2d2EU76RGNXhFuEYs94oaQ18z2gYu8KzX45VrWmEF4Kq4STPLyW41sppE61+bbpmk35WBTJazEplF9LOxIpBM2TMWHntc/wrgQW8bnB9KJ2MlIYDtd1WxbS3D2yeX6sUHAOEvxGEHscFbwVRFK3igX7tqXhvHL+hR1V5sIuwESp4JKAYmR3RSFzEZNC2bZDkUJ3PxwdMMnxHUn84lqPx3hwXbfF7C3/Fet2alIYDtu1W+0CTO1d0ra/eVryH6KCPwrFXonsBUFsqyB2R7nMyFAE8Qj+tdEE8UyiIf9FQO0jVSoxLyaFmBRGzmdpUujpb58eyKflCeI15t6CnwQ5l2JSKIPFg52Tepe07S918jQk6EHF+lHBa2EU9RnRCFaj5meVus2HIZ0tFLutXI3aeqG7AHsHcYSZA5BdVyohMCaFmBRGzmc5n0LHFCTIBZXObjSpizBKjMakUAEWD3ZO6l02fzcrlzoFFVztDXo4TmojzX19Kd9CSJXXXkBKfrwe41YOqPmnAxUCibDITkwKOwcpLB7snISafTdgJOIrjeRXMOKgcHoQ05EZs5gUqoJdgIlWDg4VCs4RBANBnKXbDzl4sFSxjlBqNBPbjMSvqIdsQynYyzOTkdjiQGUQx9D2j0khJoWR81mmyI5rt3p+RP++Q2JbUcPlDVPqtgBTkVjfTl2Os56wXbtVLk3tIzXLCsWeCVgwZm1Wp48b/T9CIQVzWPylp7/9A/UYp9HI5vmxSPBwoG8iWFGuTGZMCjEpjJzP0qSQSBhRRqHg9WAHKDxWKuChHhAOZ4HCvLd9U0wKgbB4sHOS1Kk2JHjYLzEgwUZJfP5ov0KIpLBRapat92vBFBZniwSxzb6/x3POl5PviEkhJoWR81meFLIqeYAgdkeg/UWwQRJ010MrazguHUi/D4nd4GmtxaRQb/S5mQmWk0wKxVb5POg2o+ZdoxdWWKTgHRhPlZKariWyOn2cIPZ4wO/YIoh/s1zUR0wKMSmMnM/ypFAsXRnc3MIeKvXSrxVs126VxOeHVTYgJoWQYBdgKiq42tdrgdhmqWFhxKSwBQl+XaqucS0gnI4ZSHB94PwPgtVWLnVKudyLmBRiUhh1YJclhUTCaCAFlLtwhYIhSfzHYyWiRolsHmYhsT+FFTofk0JIKHr+fUXV1IAUvENjHSqQtQ5RNSY2uDDIgbd9rKCwQMO+5f5XTAoxKYycz7FJoXdJ2/6o2EPBD1J4y9JwXq1NtN0F2NvL+fFvkn3PtzQpKdiu3Yqq7QjpwOekgkuQmDB1FJIfr9cHIaW48FP3ldhmqTlGTQpee0UoOMcuwMRajInt2q0m7T54DW1UbJPUbMFYfY9JISaFUWtmTFKwCzBRKP69MBQMkOBZ1PCpWu2t3mXzd0MFNir2dphnRFOSwqUD6fehhq8Jxe5Hxd4uPpuQYCMqthIVu9HScEKtQ8Uwx1Oo4DUfi2mjRfyMqBzNIxqxrULBk1LzM8sdIGGhz81MsIjPFQr+HsbTFok9LXOpfxjrf8akEJPCyPkcmxRc122xNJwg/PoDR+0tVPCYcJLtURKD67otlw6k3ycUXBko36fsmDUZKdgF2BU1XI7E1pQ/aGAIiT0hCbqzKnlALbR/+tzMBCTe6ctpRbBB6uRpNSGF7Yv3Zanhwqjkf+3lmckW8TPCIoSi3Xa853lMCjEpjJzPsUkhkSj6u9gNoUjqmxrfT0himSjMtK7rtlg5OBSJ/zAKQjBj1kSk4LpuC2p2bsVedoINgqCAmp0vnI6ZUeqULFqa2gsJcv4WErzUrZOHjP7NyEhh+wJ+UxD/WTYPs8K62biu29LT3/5+qeEyodiq0JxfBC9YGk4Y7//HpBCTwsj5HJ8UXNdtkcTniDBeC9vbK0jw7QUa9g0rXNWoO3OGBLnQ5XZGjFkTkYJxqrBbqzpojIzEOkFQEArO6epvPyjsmGLhdExBDRcJBWt9TQSxO3r6298/+ncjJwXzvzejYg9Jgi/LgfTBfl9V2560TrJdEFDQVPsRi9RETn2/ktKiMSnEpDByPscnhURiW233n4WqjkywweRBwGdL7e+Kx2B5ZrKl4QQjsQMvR10krKlIoUvx2UGKRwgFa03oFlyazfNj7cF504K8HlzXbbELsKul4TzfB5Ehre/bBZg6+vdrQgrbN896QewOQWDJHD/KHpw3bfFg56SxSKLPzUywCzC1q7/9ICT4kiD2OxGBqiwSW96l+OxK5iQmhZgURq3rikghkUgkZC51PCp4LNS9ZcxJa5AgJzXHLp060h6cN81enplc6nLqnSkT7QJMXbQ0tZflJDtQwU+Q2BNhJKZVNmZNRAqWAghJa2iDUGwVKrhFEL/A0nCClZ+zX6XhZMX6z1mV/AgSW4wK3vKfzczWoOZnlfzeGpLCtgWs2HokeF4QkNSwUOpUm5VPnpTV6eOKTTjpE4XDGWq4CAn+CwmeGu7wD3eBsrdRw0WVmrdiUohJYdT6qZgU7OWZyVKzbChnTIm9JRR7xwhUstuF4t8TCs4RDmcyB58oNuEk25GYQMV/5fnj3qwVGWwfsyYjBRFmCU1zS9/iHYIDkviPpYaF0oHPIaU4EnzIovQx21oudQqq5D9J4l8XCn4vwrGZ3y8H0geX/N5ak8LosVHsXc9p/6ogWDGsvYSKbULF3o2yWh0q9i4S/GYhzd2j4jUSk0JMCiPXUMWkkEgkEnJpah8k1hdpka1he6tUi3pfjds0+2XTkIJw0icGWSAVLqJNqOAtr1Tfc8MbEnsRib0RlpPHxN3DZeUlG0KQzo7QIRVpMxvn3i7FZ1fj54hJISaFUeu/KlJIJBIJi9LHCGJ/q/se8LlvPD+hP78Dsa1I/Iqow9VDQzY/Z09U7Na6D3xoDR4ZS700lMprit0YyXM44oYEz1rE51br+I5JISaFkfNZPSn0uZkJXl2CSC+gEbVXBAH53vPEtkoNlzWKHPi4cF23BQk+H1TuthEaEqxD4p1jZ+cGJoWNlsNPFQQ/rUXN6fDGhr0hiF/gZ2HGpBCTwsj5rJ4UEgmv7oeGi/wko9atEayWBN1I/IogLwVJ/OJGKzM6JuwCTBXE/q2ZiaF4g+8uwN5jfWvwcpywwaL0MT397R9Agt82AzGYAjosW0n4aekxi0mh1G/HpODrf0+VBN1NQgzvePM/UxD8h//fgSGh4LNhz2Pk6F02fzdvAz0YphBULZrnRLpH5vhR431nGKTQ3Q9HJxKJhCEGdnPDEoMJ3XsViYme/vbpfteGcNInCuMD8jc/xO4qlUhYC8QpTpwDAAALMklEQVSkULrf9SKFRCKRsAfnTTM5SKEmtoXcYC0S/2F3Afbu6W9/v1DMCfBbr2OOp8Kcw5qhz81M8CRjr0MFL9fVW1/5AjWEoPlHK0mgC5MUXNdtyVL6MO/FsLHeYzGyn0YzBgk+H9TBJZzUB5HYowHm6NZ6yYsHJQWpYWG5sOqgpICKrRQOfKzWYxKYFIg9ETSSxoSq8jOR2PKGO2eIvYkKbKsAuycSiYTM8aMCvZQJnkLiJ4cze3VCT3/7dOEk21GxW6OKlQ+jGZMR3FkpISQS4ZJCEXIgfTBq+L++s6/DX9SbhWK3CYezMKQ2TDUtKPifJ3ZDqUTCWsCsY3jZ71yXy3dJJALW+1DMFQoeKRc6HSWyd2d2QQV/9FmnZKsgoDA0iPrczASZS/0DEuTCzNb3vU5NuPbzUsOFRdKzXbvVXCz8W0+Q2F3CgQODz1yd4bpuSzY/Z09Lsy8gsSWCYHVDkQPBaqHZL7N5mFWNxEYUpJBIbJPclUjsiahT5sdZgC8Kxb8nB9IHhyU9sniwcxIS/4EfMxkSrJPELw6jH37QrZOHIMGgv0MCHhsr69vT95nvR2bZvHD5TfUo52oXYKLUsNDPOkWCLVJzDFPXa4GGfT256pX1OmNMbhX7k3A4Gx6MYRdgKhL8JsieRoL/rXW9lUjhum6LcDpmIsHnkeC/kdgbdbWhe7pCqOEr1SRgFREVKSQSZrNZDj/VMyetq9kCL2Z2KlAW8blRxEObTHN4odp+IcFf6nlL8soqfr1q8x6xzajgJ+O9cIQDBwrFbqt6rom9KYnPqYXa8GiYPZ0+0V8ZV3gkm+fHht0n4XRMsZxk0vjo2JpaXay8/7MKCb6dzcOs0fOR1enjkODZYOcVXF2PeY4ctmu3GnE2+JgguAYJHjZhjrU6+GADEnsUNVwunOThfm8qUZJCIjH8hQXnIcFfkGBdpIvazMEdlobzhNMxM6pi56b2LvtGNSYyJPaq5cBn6l2A3asE1l+ptIG5xcN92TzMGu+3bddutRz4TDWEiYqtRwVX1zPD1V6emYwKZFX+FoLVqEBGFW/vum6LVYDdUfNPC8WcaIXqYMiTx+iTmn+0FPnbyzOTkeDbQZJVkdgaSXx+FOPVMCiKS8mB9MEW8TOQ4PtI7E9CweuBsv5KbEzvSfeqIPYHVCAtSh8T9NkaNSkUYbt2q3DgQFMPAm4RxN5Egi1BSRQVexcV24TEnhYE/ymJZcKUEh4LC2nuHkjw/fH8TEXbLGq4qBGeza7rtshc6nhjBh3PNgxDqNi9Vi51SqVjai/PTJaK/YtQ7Lkx59fTwZIE/y6cjplRf/d4sAqwuzn04LXx+w1voYKr/bzOq4VnnZiBGj6Fiv0f44yGDcH1imAICTYisUcFwTWWArAH500rdYs3+Vv8ZKHgyUD7ldjTVn7OflGPWUNBOB1TFmjYV+ZSx6Nm56OCnwti9yDBs0bPB94yN6PyZOEdIus809TzQsEjQsH/SOIXdyk+e9HS1F5hJX7UihSKsF27NZufs6dxqLFveA7bZwyJVuJcgyFU7G3jLIW/C+I3CQXndOnUkb3L5u9W62fppQPp9wniFwjF7jc3x+3z6t2oXkFi2nKSyXo5l0vBdd2Wbp08xAQEsGdGZ6eaWttsJSr4eXc/HF3tejMvqRRHxfq9G+6m4XPojdUDUsOFtThYK0Xvsvm7CQWfNXsCXh958MKQt07vM0JzHTNq3b/s3ZldrBwcahGfawgCBj1zzivmzChnyoYhodg7noTOSiQYlMR/jJqfZeXg0PEuK9n8nD2Fgv8JdMklthUV/0UjXIzqBtu1WxcPdk6yCzC1ux+O9gTwPi8VXCIUXCkJvlO6sW9JDRdaDnwmq+HDi5am9lo82DkpigzAWpNCEa7rthRlsbv74WjLgc9IzRE1+y4SXO9JZ4xoQrFrBfFvombnW04yKZyOmYsHOyfV2xxTfAVJzc+WxL5VnEdBcKnUqbZ6kFWlEE7HFEvDCajha8V+o4KrUcNFXYrPDrKBi/UvpE61Sc0WbB8X/k2p+dndOnlII2a12q7dumhpai9JfD5quHzbuGi4HDX/dBgvUdd1W2zXbvUkrE2r4je3yV8PzpvW3Q9HG+VT3onEvlHqTEEFtiD2VYv4GV2KzxZOx4xK/2cxwS5wNCHBBqn5mfXerzHGQb1IYSzYg/OmCadjxuhWq2LlMWJEiezdmV2k5h9Fza9CBUuNr41pQXBpl04d2UhCcR4hfNl3GPNIC8gDqNqOqPc3xRgHjUgKMWLsqLDyc/bzyODlET41T3lUEHtcEP9mVqePq0d47nAY0yj7qlDslaCEYL4NrmkkwotRBjEpxIhRG8ilqX2EZr8cL3rHCyh5FDW/Sub4UT397dNraX7sczMTspQ+TCh2LSp4KzAhmFfCSplLHV+rb4gRADEpxIgRPRYPdk6SmmM1IdkeeTyHBNcLJzkvm4dZUZpQXddtyarkAajZuajYvSHWdHlXEnynaaSyd3bEpBAjRvTIquQBqNi9Pk0vW1Gxt5FgUBD8tOiktwuwa7k6zJVi8WDnpJ7+9ukWpY9Bgh5U8EcktiYMMtj+8mHLkeBDYY5njAgRk0KMGNHCdd0WqZOniVDK/MKQUSyFF5DYEtT8KunA57KU+qSJKkoevkDDvgtp7h6l2gIN+woneTgSPxkpxT3ZbiUIXhIEGyJIvn1Harag3v6RGFUgJoUYMaKF67otXpZ3uMrBxjm91UvgfFso9owguE8QDAhif0CC/31vY0u83Ibnt+VLRabCAENCwe97+tvfX+85iFEFYlKIESNamJcCnN5wcvJRNkNWD1n55EmNmqMTowxiUogRI3p4siKh2uobuSHBCxbxM+LcoiZETAoxYkQP4XTMRMX6G0puPzJCYK8i8c44J6FJEZNCjBjRo8/NTJAOfA6JvVrvQzuyZqThX2gU4ccYPhGYFBR7JyaFGDHGR09/+3QkJsZVYW3KBkNI7AnU/NMxITQ5rALsHqi0pGIre/rbP1Dv74gRoxmQvTuzi/diWNLIpX2rPAM2oQKV1fDhRhQ4jFElXNdtQcV/5VcSFwn+0rukbf96f0eMGM0C27Vbsyp5gNT8TJMjwN4MXhuhDmRg5DielhoW7hA1l2MYeOFyF47W06+omaLlP61nxawYMZoVRnK9Y4bUqTZB8J+o4LGwpCUifhm8KwhWoIKfZ1XyI7F8xQ4Ir5j7X6tfHPCycJLz4jjkGDGCwS7A1C7FZ0sFlyAxjQpeQ8U2NYx5yeQdbBIEK4Ri11oOP7WRikbFCBl2ASaiZudXU5/Wu9FcGy+MGDHCg12AiVYBdu9SfDYqtkgQDHglMEOQyPDxKiDY6BHBbah4b5dOHWkPzptW73GKUQMIp2OGJP51QbC6gtvJO0KzX3b1tx9U737HiLGjwqvMtqtw0idKxf8ZNb/KvCLYSk+iYhMSbAlcB57YVlMilW32aja/isTuQmLXIfFOK5c65dKB9Pviimk7IewC7IoEnxfE7in1akDF1ntFvi8VTsfM2GwUI0Zt4Lpui3A6pixamtqrWycPsXKpUwTxCwTBNUjwW1O9DR5GYk8gsaeR2IvlGzwvFDwpiD2OBH8VBAOo+C9QsUWS+PwspQ+TS1P71LqOQ4wGhe3arVYODpWan20Kg7MbkNgNkuDfJfGLu3TqyDh1PUaM+qJY49mrcz7RXp6Z3F2AvY0CKnzIcpLJ8o2fiqrtiCylD7MLMNWrIz+xz81MiEkgxpiwl2cm2wXY1Txh45T1GDFixIgRI0aMGDFixIgRI0aMGDFixIgRI0aMGDFixIgRI0aMGDsg/j9c1CIQcSd/kgAAAABJRU5ErkJggg==;imageBorder=#000000;strokeWidth=2;" vertex="1" parent="1">
          <mxGeometry x="795.5" y="180" width="119" height="105" as="geometry" />
        </mxCell>
        <mxCell id="qcaZ6cuYOBvwn0T5m9db-14" value="&lt;div style=&quot;font-size: 14px&quot;&gt;&lt;font style=&quot;font-size: 14px&quot;&gt;&lt;b&gt;Electron&lt;/b&gt;&lt;/font&gt;&lt;/div&gt;&lt;div style=&quot;font-size: 14px&quot;&gt;&lt;font style=&quot;font-size: 14px&quot;&gt;&lt;b&gt;Client&lt;br&gt;&lt;/b&gt;&lt;/font&gt;&lt;/div&gt;" style="text;html=1;align=center;verticalAlign=middle;resizable=0;points=[];autosize=1;strokeColor=none;" vertex="1" parent="1">
          <mxGeometry x="10" y="287.5" width="70" height="30" as="geometry" />
        </mxCell>
        <mxCell id="qcaZ6cuYOBvwn0T5m9db-15" value="&lt;div style=&quot;font-size: 14px&quot;&gt;&lt;font style=&quot;font-size: 14px&quot;&gt;&lt;b&gt;NodeJS &amp;amp;&lt;/b&gt;&lt;/font&gt;&lt;/div&gt;&lt;div style=&quot;font-size: 14px&quot;&gt;&lt;font style=&quot;font-size: 14px&quot;&gt;&lt;b&gt;Express&lt;br&gt;&lt;/b&gt;&lt;/font&gt;&lt;/div&gt;" style="text;html=1;align=center;verticalAlign=middle;resizable=0;points=[];autosize=1;strokeColor=none;" vertex="1" parent="1">
          <mxGeometry x="273.34" y="287.5" width="80" height="30" as="geometry" />
        </mxCell>
        <mxCell id="qcaZ6cuYOBvwn0T5m9db-16" value="&lt;b&gt;&lt;font style=&quot;font-size: 14px&quot;&gt;Spring Boot&lt;/font&gt;&lt;/b&gt;" style="text;html=1;align=center;verticalAlign=middle;resizable=0;points=[];autosize=1;strokeColor=none;" vertex="1" parent="1">
          <mxGeometry x="550" y="280" width="100" height="20" as="geometry" />
        </mxCell>
        <mxCell id="qcaZ6cuYOBvwn0T5m9db-17" value="&lt;font style=&quot;font-size: 14px&quot;&gt;&lt;b&gt;Spring Data JPA&lt;/b&gt;&lt;/font&gt;" style="text;html=1;align=center;verticalAlign=middle;resizable=0;points=[];autosize=1;strokeColor=none;" vertex="1" parent="1">
          <mxGeometry x="790" y="287.5" width="130" height="20" as="geometry" />
        </mxCell>
        <mxCell id="qcaZ6cuYOBvwn0T5m9db-18" value="&lt;font style=&quot;font-size: 14px&quot;&gt;&lt;b&gt;MariaDB&lt;/b&gt;&lt;/font&gt;" style="text;html=1;align=center;verticalAlign=middle;resizable=0;points=[];autosize=1;strokeColor=none;" vertex="1" parent="1">
          <mxGeometry x="1063" y="275" width="70" height="20" as="geometry" />
        </mxCell>
        <mxCell id="qcaZ6cuYOBvwn0T5m9db-19" value="&lt;u&gt;&lt;font style=&quot;font-size: 14px&quot;&gt;&lt;b&gt;Make request&lt;br&gt;&lt;/b&gt;&lt;/font&gt;&lt;/u&gt;" style="text;html=1;align=center;verticalAlign=middle;resizable=0;points=[];autosize=1;strokeColor=none;" vertex="1" parent="1">
          <mxGeometry x="105" y="195" width="110" height="20" as="geometry" />
        </mxCell>
        <mxCell id="qcaZ6cuYOBvwn0T5m9db-20" value="&lt;u&gt;&lt;font style=&quot;font-size: 14px&quot;&gt;&lt;b&gt;Make request&lt;br&gt;&lt;/b&gt;&lt;/font&gt;&lt;/u&gt;" style="text;html=1;align=center;verticalAlign=middle;resizable=0;points=[];autosize=1;strokeColor=none;" vertex="1" parent="1">
          <mxGeometry x="396.67" y="200" width="110" height="20" as="geometry" />
        </mxCell>
        <mxCell id="qcaZ6cuYOBvwn0T5m9db-21" value="&lt;u&gt;&lt;font style=&quot;font-size: 14px&quot;&gt;&lt;b&gt;Display response&lt;/b&gt;&lt;/font&gt;&lt;/u&gt;" style="text;html=1;align=center;verticalAlign=middle;resizable=0;points=[];autosize=1;strokeColor=none;" vertex="1" parent="1">
          <mxGeometry x="90" y="260" width="140" height="20" as="geometry" />
        </mxCell>
        <mxCell id="qcaZ6cuYOBvwn0T5m9db-22" value="&lt;u&gt;&lt;font style=&quot;font-size: 14px&quot;&gt;&lt;b&gt;Provide data&lt;/b&gt;&lt;/font&gt;&lt;/u&gt;" style="text;html=1;align=center;verticalAlign=middle;resizable=0;points=[];autosize=1;strokeColor=none;" vertex="1" parent="1">
          <mxGeometry x="680" y="195" width="100" height="20" as="geometry" />
        </mxCell>
        <mxCell id="qcaZ6cuYOBvwn0T5m9db-23" value="&lt;u&gt;&lt;font style=&quot;font-size: 14px&quot;&gt;&lt;b&gt;Provide data&lt;/b&gt;&lt;/font&gt;&lt;/u&gt;" style="text;html=1;align=center;verticalAlign=middle;resizable=0;points=[];autosize=1;strokeColor=none;" vertex="1" parent="1">
          <mxGeometry x="680" y="265" width="100" height="20" as="geometry" />
        </mxCell>
        <mxCell id="qcaZ6cuYOBvwn0T5m9db-24" value="&lt;u&gt;&lt;font style=&quot;font-size: 14px&quot;&gt;&lt;b&gt;Response&lt;/b&gt;&lt;/font&gt;&lt;/u&gt;" style="text;html=1;align=center;verticalAlign=middle;resizable=0;points=[];autosize=1;strokeColor=none;" vertex="1" parent="1">
          <mxGeometry x="414" y="265" width="90" height="20" as="geometry" />
        </mxCell>
        <mxCell id="qcaZ6cuYOBvwn0T5m9db-25" value="&lt;u&gt;&lt;b&gt;&lt;font style=&quot;font-size: 14px&quot;&gt;Execute queries&lt;/font&gt;&lt;/b&gt;&lt;/u&gt;" style="text;html=1;align=center;verticalAlign=middle;resizable=0;points=[];autosize=1;strokeColor=none;" vertex="1" parent="1">
          <mxGeometry x="910" y="205" width="130" height="20" as="geometry" />
        </mxCell>
        <mxCell id="qcaZ6cuYOBvwn0T5m9db-26" value="&lt;u&gt;&lt;font style=&quot;font-size: 14px&quot;&gt;&lt;b&gt;Receive data&lt;/b&gt;&lt;/font&gt;&lt;/u&gt;" style="text;html=1;align=center;verticalAlign=middle;resizable=0;points=[];autosize=1;strokeColor=none;" vertex="1" parent="1">
          <mxGeometry x="930" y="260" width="110" height="20" as="geometry" />
        </mxCell>
      </root>
    </mxGraphModel>
  </diagram>
</mxfile>
